<?xml version="1.0" standalone="no"?>
<!DOCTYPE svg PUBLIC "-//W3C//DTD SVG 1.1//EN" "http://www.w3.org/Graphics/SVG/1.1/DTD/svg11.dtd" >
<svg>
<metadata>
Created by FontForge 20090914 at Tue Oct 11 06:58:23 2016
 By www-data
2002 Christian Schwartz published by FontShop International for the FontFont library.
</metadata>
<defs>
<font id="Bau-Bold" horiz-adv-x="649" >
  <font-face 
    font-family="Bau-Bold"
    font-weight="400"
    font-stretch="normal"
    units-per-em="1000"
    panose-1="2 11 8 4 4 2 2 2 2 3"
    ascent="800"
    descent="-200"
    x-height="517"
    cap-height="756"
    bbox="-84 -347 1556 1057"
    underline-thickness="20"
    underline-position="-113"
    unicode-range="U+0020-U+F6C2"
  />
<missing-glyph 
d="M64 756h521v-756h-521v756zM447 138v480h-245v-480h245z" />
    <glyph glyph-name=".notdef" 
d="M64 756h521v-756h-521v756zM447 138v480h-245v-480h245z" />
    <glyph glyph-name="space" unicode=" " horiz-adv-x="240" 
 />
    <glyph glyph-name="exclam" unicode="!" horiz-adv-x="387" 
d="M97 175h195v-175h-195v175zM89 566v190h209v-190l-38 -296h-133z" />
    <glyph glyph-name="quotedbl" unicode="&#x22;" horiz-adv-x="619" 
d="M61 756h219l-41 -325h-137zM339 756h219l-41 -325h-137z" />
    <glyph glyph-name="numbersign" unicode="#" horiz-adv-x="592" 
d="M254 459v-90h84v90h-84zM39 459v130h79v115h136v-115h84v115h136v-115h79v-130h-79v-90h79v-130h-79v-117h-136v117h-84v-117h-136v117h-79v130h79v90h-79z" />
    <glyph glyph-name="dollar" unicode="$" horiz-adv-x="726" 
d="M318 578c-36 -2.66699 -60.833 -9.16699 -74.5 -19.5s-20.5 -25.833 -20.5 -46.5c0 -17.333 6.5 -30.333 19.5 -39s38.167 -16 75.5 -22v127zM410 125c37.333 1.33301 63.667 7.33008 79 17.9971s23 27.334 23 50.001c0 18.667 -7.5 31.834 -22.5 39.501
s-41.5 14.834 -79.5 21.501v-129zM318.001 -14.0029c-68.667 6 -127.001 20.502 -175.001 43.502s-90.667 52.833 -128 89.5l124 107c46.667 -52.667 106.334 -85 179.001 -97v138c-33.333 5.33301 -66.5 12.666 -99.5 21.999s-62.833 22.5 -89.5 39.5
s-48.167 38.5 -64.5 64.5s-24.5 58.667 -24.5 98c0 36 7 67.5 21 94.5s33.333 49.833 58 68.5s54 33 88 43s71 16 111 18v81h92v-82c56.667 -4.66699 106.5 -16.334 149.5 -35.001s84.167 -46 123.5 -82l-116 -111c-15.333 18.667 -35.833 36.667 -61.5 54
s-57.5 29 -95.5 35v-137c35.333 -4.66699 70.333 -11.5 105 -20.5s65.667 -21.833 93 -38.5s49.5 -38.5 66.5 -65.5s25.5 -60.833 25.5 -101.5c0 -146.667 -96.667 -223 -290 -229v-115h-92v118z" />
    <glyph glyph-name="percent" unicode="%" horiz-adv-x="1112" 
d="M247 392c24.667 0 43.333 9 56 27s19 44 19 78s-6.66699 59.5 -20 76.5s-32 25.5 -56 25.5c-48.667 0 -73 -34 -73 -102c0 -70 24.667 -105 74 -105zM863.999 103c24.667 0 43.333 9 56 27s19 44 19 78s-6.66699 59.5 -20 76.5s-32 25.5 -56 25.5
c-48.667 0 -73 -34 -73 -102c0 -70 24.667 -105 74 -105zM660.998 704h156l-366 -704h-155zM861.998 -15c-35.333 0 -66.333 5.83203 -93 17.499s-49 27.5 -67 47.5s-31.667 43.5 -41 70.5s-14 55.833 -14 86.5s5.33301 59.167 16 85.5s25.5 49.333 44.5 69
s41.833 35.167 68.5 46.5s56 17 88 17s61.333 -5.16699 88 -15.5s49.667 -25 69 -44s34.333 -41.667 45 -68s16 -55.5 16 -87.5c0 -30.667 -4.83301 -59.667 -14.5 -87s-23.834 -51.166 -42.501 -71.499s-41.667 -36.5 -69 -48.5s-58.666 -18 -93.999 -18zM244.998 273.999
c-35.333 0 -66.333 5.83203 -93 17.499s-49 27.5 -67 47.5s-31.667 43.5 -41 70.5s-14 55.833 -14 86.5s5.33301 59.167 16 85.5s25.5 49.333 44.5 69s41.833 35.167 68.5 46.5s56 17 88 17s61.333 -5.16699 88 -15.5s49.667 -25 69 -44s34.333 -41.667 45 -68
s16 -55.5 16 -87.5c0 -30.667 -4.83301 -59.667 -14.5 -87s-23.834 -51.166 -42.501 -71.499s-41.667 -36.5 -69 -48.5s-58.666 -18 -93.999 -18z" />
    <glyph glyph-name="ampersand" unicode="&#x26;" horiz-adv-x="787" 
d="M362 507c28.667 13.333 49.167 27.168 61.5 41.501s18.5 30.833 18.5 49.5c0 18 -4 31.333 -12 40s-19 13 -33 13c-31.333 0 -47 -23.333 -47 -70c0 -24.667 4 -49.334 12 -74.001zM402 140.002c-57.333 52 -105.001 110.668 -143.001 176.001
c-20.667 -22.667 -31 -49.334 -31 -80.001s9 -55.5 27 -74.5s47.333 -28.5 88 -28.5c22.667 0 42.334 2.33301 59.001 7zM410.999 406.003c16.667 -26 35.668 -51.165 57.001 -75.498s44 -47.166 68 -68.499c9.33301 21.333 17.333 44.666 24 69.999s12 53 16 83l157 -31
c-5.33301 -32.667 -13.5 -67.334 -24.5 -104.001s-26.5 -72.334 -46.5 -107.001c17.333 -9.33301 34 -17 50 -23s31.333 -10.333 46 -13l-22 -155c-32.667 1.33301 -65.5 7.16602 -98.5 17.499s-65.833 24.5 -98.5 42.5c-28 -19.333 -58.833 -34.166 -92.5 -44.499
s-71.834 -15.5 -114.501 -15.5c-95.333 0 -168.833 20 -220.5 60s-77.5 97.333 -77.5 172c0 30.667 4.5 57.834 13.5 81.501s21.333 44.667 37 63s33.667 34.166 54 47.499s41.833 25.333 64.5 36c-6 20.667 -10.667 41.167 -14 61.5s-5 40.833 -5 61.5
c0 35.333 5.33301 66 16 92s25.5 47.333 44.5 64s41.5 29 67.5 37s54 12 84 12c28 0 54 -3.5 78 -10.5s44.667 -17.5 62 -31.5s30.833 -31.5 40.5 -52.5s14.5 -45.5 14.5 -73.5c0 -26 -5 -48.833 -15 -68.5s-23.167 -37.167 -39.5 -52.5s-35.333 -29 -57 -41
s-44.5 -23.333 -68.5 -34z" />
    <glyph glyph-name="quotesingle" unicode="'" horiz-adv-x="341" 
d="M61 756h219l-41 -325h-137z" />
    <glyph glyph-name="parenleft" unicode="(" horiz-adv-x="413" 
d="M291 -184c-32.667 28.667 -64.167 59.999 -94.5 93.999s-57.333 71.5 -81 112.5s-42.5 85.833 -56.5 134.5s-21 102.667 -21 162c0 58 7 111 21 159s32.833 92.333 56.5 133s50.667 77.834 81 111.501s61.833 65.167 94.5 94.5l103 -87c-19.333 -26 -38 -52.667 -56 -80
s-34 -57.333 -48 -90s-25.167 -68.5 -33.5 -107.5s-12.5 -83.5 -12.5 -133.5s4.16699 -95 12.5 -135s19.5 -76.5 33.5 -109.5s30 -63.333 48 -91s36.667 -54.5 56 -80.5z" />
    <glyph glyph-name="parenright" unicode=")" horiz-adv-x="413" 
d="M19 -97c19.333 26 38 52.667 56 80s34 57.333 48 90s25.167 68.5 33.5 107.5s12.5 83.5 12.5 133.5s-4.16699 94.833 -12.5 134.5s-19.5 76 -33.5 109s-30 63.5 -48 91.5s-36.667 55 -56 81l103 87c32.667 -29.333 64.167 -60.833 94.5 -94.5s57.166 -71 80.499 -112
s42.166 -86 56.499 -135s21.5 -102.833 21.5 -161.5c0 -58 -7.16699 -111 -21.5 -159s-33.166 -92.333 -56.499 -133s-50.166 -78 -80.499 -112s-61.833 -65.333 -94.5 -94z" />
    <glyph glyph-name="asterisk" unicode="*" horiz-adv-x="508" 
d="M63 411l102 99l-137 20l51 151l119 -64l-24 139h161l-24 -139l118 64l51 -151l-137 -20l102 -99l-128 -94l-63 129l-63 -129z" />
    <glyph glyph-name="plus" unicode="+" horiz-adv-x="626" 
d="M385 58h-144v163h-170v148h170v163h144v-163h170v-148h-170v-163z" />
    <glyph glyph-name="comma" unicode="," horiz-adv-x="399" 
d="M88 -86c16.667 2 31.333 5.83398 44 11.501s23.5 12.5 32.5 20.5s16 16.667 21 26s8.16699 18.666 9.5 27.999h-108v190h225v-157c0 -24 -4 -48.833 -12 -74.5s-21 -49 -39 -70s-41.167 -38.167 -69.5 -51.5s-62.833 -20.333 -103.5 -21v98z" />
    <glyph glyph-name="hyphen" unicode="-" horiz-adv-x="489" 
d="M71 344h347v-168h-347v168z" />
    <glyph glyph-name="period" unicode="." horiz-adv-x="399" 
d="M87 190h225v-190h-225v190z" />
    <glyph glyph-name="slash" unicode="/" horiz-adv-x="483" 
d="M296 813h177l-313 -950h-177z" />
    <glyph glyph-name="zero" unicode="0" horiz-adv-x="700" 
d="M351 135c37.333 0 68 12.833 92 38.5s36 66.5 36 122.5c0 56.667 -12 97.167 -36 121.5s-55.333 36.5 -94 36.5c-37.333 0 -68 -12.167 -92 -36.5s-36 -64.833 -36 -121.5c0 -57.333 12 -98.5 36 -123.5s55.333 -37.5 94 -37.5zM345 -18
c-46.667 0 -88.9961 7.16699 -126.996 21.5s-70.5 35 -97.5 62s-47.833 59.833 -62.5 98.5s-22 82.334 -22 131.001s8.16699 92.167 24.5 130.5s38.666 70.666 66.999 96.999s61.666 46.333 99.999 60s79.166 20.5 122.499 20.5c42.667 0 83.167 -6.16699 121.5 -18.5
s71.666 -31 99.999 -56s50.833 -56.5 67.5 -94.5s25 -82.333 25 -133c0 -49.333 -7.66699 -93.666 -23 -132.999s-36.833 -72.833 -64.5 -100.5s-61.167 -48.834 -100.5 -63.501s-83 -22 -131 -22z" />
    <glyph glyph-name="one" unicode="1" horiz-adv-x="390" 
d="M146 366c-11.333 -7.33301 -25.333 -14 -42 -20s-40 -9.66699 -70 -11v122c16.667 3.33301 32.167 8 46.5 14s27.333 14 39 24s21.667 22.667 30 38s14.5 34 18.5 56h159v-589h-181v366z" />
    <glyph glyph-name="two" unicode="2" horiz-adv-x="636" 
d="M31 0c0.666992 44.667 7.16895 83.3301 19.502 115.997s28.166 60.834 47.499 84.501s41.166 43.5 65.499 59.5s49.5 29.667 75.5 41c22 10 43.667 18.667 65 26s40.5 14.833 57.5 22.5s30.667 15.834 41 24.501s15.5 19 15.5 31c0 20.667 -7.33301 35.5 -22 44.5
s-38 13.5 -70 13.5c-34.667 0 -63.167 -8.33301 -85.5 -25s-39.166 -40.667 -50.499 -72l-152 64c21.333 58.667 57.333 102.167 108 130.5s110.667 42.5 180 42.5c48.667 0 90.5 -4.66699 125.5 -14s63.667 -22.5 86 -39.5s38.666 -37.5 48.999 -61.5
s15.5 -50.333 15.5 -79c0 -27.333 -4.66699 -50.5 -14 -69.5s-22 -35.5 -38 -49.5s-34.5 -26.167 -55.5 -36.5s-42.833 -19.833 -65.5 -28.5c-44 -17.333 -79.667 -32.166 -107 -44.499s-43 -26.5 -47 -42.5h322v-138h-566z" />
    <glyph glyph-name="three" unicode="3" horiz-adv-x="664" 
d="M330 -126c-82.667 0 -151 18.6689 -205 56.002s-89.667 89.333 -107 156l159 44c10.667 -37.333 27.167 -65.833 49.5 -85.5s55.833 -29.5 100.5 -29.5c36 0 63.833 6.66699 83.5 20s29.5 34 29.5 62c0 19.333 -4 34.666 -12 45.999s-19.833 19.833 -35.5 25.5
s-34.5 9.16699 -56.5 10.5s-47 1.66602 -75 0.999023v133c27.333 -0.666992 51.5 -0.166992 72.5 1.5s38.5 5.5 52.5 11.5s24.5 14.5 31.5 25.5s10.5 25.5 10.5 43.5c0 46 -33 69 -99 69c-37.333 0 -66.5 -7.83301 -87.5 -23.5s-38.167 -40.5 -51.5 -74.5l-156 47
c10 28.667 23.5 54.667 40.5 78s37.667 43.333 62 60s52.833 29.5 85.5 38.5s70 13.5 112 13.5c88 0 154.833 -17.833 200.5 -53.5s68.5 -83.834 68.5 -144.501c0 -36.667 -9 -67.5 -27 -92.5s-43 -43.5 -75 -55.5c17.333 -4.66699 33.833 -11.5 49.5 -20.5
s29.5 -20.167 41.5 -33.5s21.5 -28.666 28.5 -45.999s10.5 -36.333 10.5 -57c0 -73.333 -26.333 -129.333 -79 -168s-126.667 -58 -222 -58z" />
    <glyph glyph-name="four" unicode="4" horiz-adv-x="716" 
d="M399 366c-9.33301 -17.333 -21.333 -36.499 -36 -57.499s-30.5 -42 -47.5 -63s-34.333 -41.333 -52 -61s-34.5 -36.834 -50.5 -51.501h186v233zM682 133.001l0.000976562 -133h-108v-112h-181v112h-359v146c32 25.333 65.667 57.333 101 96s69.5 78.834 102.5 120.501
s63.167 82.667 90.5 123s48.666 75.166 63.999 104.499h182v-457h108z" />
    <glyph glyph-name="five" unicode="5" 
d="M325 -126c-42 0 -79.5 4.16797 -112.5 12.501s-62.167 20 -87.5 35s-47 33.167 -65 54.5s-33 44.666 -45 69.999l152 63c13.333 -30 31 -52.833 53 -68.5s52 -23.5 90 -23.5c25.333 0 46.166 3.16699 62.499 9.5s29.333 14.666 39 24.999s16.334 22.333 20.001 36
s5.5 27.834 5.5 42.501c0 32 -9.33301 56 -28 72s-45 24 -79 24c-28 0 -51.333 -5 -70 -15s-33.667 -27 -45 -51l-150 12l62 417h428v-147h-312l-19 -125c13.333 12.667 31 23.834 53 33.501s51.667 14.5 89 14.5c29.333 0 58.833 -4.16699 88.5 -12.5
s56.5 -21.833 80.5 -40.5s43.5 -42.667 58.5 -72s22.5 -65 22.5 -107c0 -39.333 -6.5 -74.833 -19.5 -106.5s-31.833 -58.834 -56.5 -81.501s-55 -40.167 -91 -52.5s-77.333 -18.5 -124 -18.5z" />
    <glyph glyph-name="six" unicode="6" horiz-adv-x="676" 
d="M340 123c40 0 70.333 8 91 24s31 41.667 31 77c0 34.667 -10.333 59.5 -31 74.5s-49.667 22.5 -87 22.5c-34 0 -61.5 -7.83301 -82.5 -23.5s-31.5 -41.5 -31.5 -77.5c0 -64.667 36.667 -97 110 -97zM348 -18c-53.333 0 -99.665 8.66895 -138.998 26.002
s-71.833 41.333 -97.5 72s-44.667 67.334 -57 110.001s-18.5 89 -18.5 139c0 52 6.83301 101.667 20.5 149s34.334 88.666 62.001 123.999s62 63.5 103 84.5s89.167 31.5 144.5 31.5c61.333 0 113.166 -9.66699 155.499 -29s78.5 -51.666 108.5 -96.999l-125 -95
c-9.33301 13.333 -18.5 24.666 -27.5 33.999s-18.667 17 -29 23s-22.333 10.333 -36 13s-29.834 4 -48.501 4c-48.667 0 -84.834 -15 -108.501 -45s-39.167 -76.667 -46.5 -140c17.333 21.333 38.5 38.666 63.5 51.999s58.833 20 101.5 20c34 0 67.167 -4.66699 99.5 -14
s61 -23.5 86 -42.5s45 -42.667 60 -71s22.5 -61.5 22.5 -99.5c0 -41.333 -7.33301 -77.5 -22 -108.5s-35 -56.833 -61 -77.5s-57 -36.334 -93 -47.001s-75.333 -16 -118 -16z" />
    <glyph glyph-name="seven" unicode="7" horiz-adv-x="639" 
d="M141 -112c6 66.667 18.499 129.333 37.499 188s41.167 112 66.5 160s52.166 90 80.499 126s55.5 64.667 81.5 86h-365v141h558v-115c-41.333 -35.333 -77.666 -75.5 -108.999 -120.5s-57.833 -93 -79.5 -144s-38.167 -103.833 -49.5 -158.5s-17.666 -109 -18.999 -163
h-202z" />
    <glyph glyph-name="eight" unicode="8" horiz-adv-x="671" 
d="M338 427c34 0 58.667 6.66797 74 20.001s23 32.666 23 57.999c0 23.333 -8.5 42 -25.5 56s-41.5 21 -73.5 21s-56.833 -6.66699 -74.5 -20s-26.5 -34 -26.5 -62c0 -26 8.5 -44.667 25.5 -56s42.833 -17 77.5 -17zM335 116.001c38 0 67.832 7.16699 89.499 21.5
s32.5 37.5 32.5 69.5c0 63.333 -40.333 95 -121 95c-39.333 0 -69.333 -7.5 -90 -22.5s-31 -39.167 -31 -72.5c0 -32.667 10.333 -56 31 -70s50.334 -21 89.001 -21zM335.999 -17.999c-96.667 0 -171.501 18.999 -224.501 56.999s-79.5 92.667 -79.5 164
c0 40 11.167 74.667 33.5 104s50.833 51.666 85.5 66.999c-24 9.33301 -44.167 24.833 -60.5 46.5s-24.5 52.5 -24.5 92.5c0 34 7.16699 63.5 21.5 88.5s33.833 45.833 58.5 62.5s53.667 29 87 37s68.666 12 105.999 12c36.667 0 71.334 -3.66699 104.001 -11
s61.167 -19 85.5 -35s43.5 -36.5 57.5 -61.5s21 -55.5 21 -91.5c0 -33.333 -7.5 -62.5 -22.5 -87.5s-35.167 -42.5 -60.5 -52.5c32.667 -13.333 60 -34.666 82 -63.999s33 -63 33 -101c0 -39.333 -7 -73.166 -21 -101.499s-34.167 -51.833 -60.5 -70.5
s-58.166 -32.5 -95.499 -41.5s-79.333 -13.5 -126 -13.5z" />
    <glyph glyph-name="nine" unicode="9" horiz-adv-x="672" 
d="M326 262c35.333 0 64.333 8.16797 87 24.501s34 40.833 34 73.5c0 33.333 -10.333 58.166 -31 74.499s-50 24.5 -88 24.5s-67.333 -8 -88 -24s-31 -40.667 -31 -74c0 -66 39 -99 117 -99zM320 -125.999c-62.667 0 -118.496 10.1689 -167.496 30.502
s-90.5 53.5 -124.5 99.5l127 92c17.333 -22.667 37.166 -40.834 59.499 -54.501s53.5 -20.5 93.5 -20.5c48 0 84 14.5 108 43.5s38 69.833 42 122.5c-8 -8.66699 -16.833 -16.834 -26.5 -24.501s-20.834 -14.334 -33.501 -20.001s-27.334 -10.167 -44.001 -13.5
s-36 -5 -58 -5c-38 0 -73.167 5 -105.5 15s-60.5 24.5 -84.5 43.5s-42.833 42.167 -56.5 69.5s-20.5 58.666 -20.5 93.999c0 42.667 7.16699 80 21.5 112s34.5 58.833 60.5 80.5s57 37.834 93 48.501s75.667 16 119 16c54 0 100.833 -8.16699 140.5 -24.5
s72.167 -39.666 97.5 -69.999s44.166 -66.833 56.499 -109.5s18.5 -90 18.5 -142c0 -55.333 -6.16699 -106.333 -18.5 -153s-31.333 -87 -57 -121s-58.5 -60.667 -98.5 -80s-87.333 -29 -142 -29z" />
    <glyph glyph-name="colon" unicode=":" horiz-adv-x="389" 
d="M92 185h205v-185h-205v185zM92 484h205v-185h-205v185z" />
    <glyph glyph-name="semicolon" unicode=";" horiz-adv-x="389" 
d="M92 484h205v-185h-205v185zM89 -88c34 4 59 14.5 75 31.5s25.667 35.833 29 56.5h-101v185h205v-152c0 -24 -3 -48.333 -9 -73s-16.833 -47 -32.5 -67s-37 -36.667 -64 -50s-61.167 -20.333 -102.5 -21v90z" />
    <glyph glyph-name="less" unicode="&#x3c;" horiz-adv-x="576" 
d="M56 209v149l454 190v-178l-239 -85l239 -93v-173z" />
    <glyph glyph-name="equal" unicode="=" horiz-adv-x="596" 
d="M71 241h454v-148h-454v148zM71 473h454v-148h-454v148z" />
    <glyph glyph-name="greater" unicode="&#x3e;" horiz-adv-x="576" 
d="M66 197l239 85l-239 93v173l454 -190v-149l-454 -190v178z" />
    <glyph glyph-name="question" unicode="?" horiz-adv-x="672" 
d="M212 175h195v-175h-195v175zM221 282c0 23.333 3.16504 43.168 9.49805 59.501s15.5 31 27.5 44s26.333 24.833 43 35.5s35.334 21.667 56.001 33l35 20c10.667 6 19.834 12.5 27.501 19.5s13.5 14.5 17.5 22.5s6 17.667 6 29c0 24 -7.33301 41.5 -22 52.5
s-38.667 16.5 -72 16.5c-80.667 0 -138.667 -38 -174 -114l-161 67c12.667 30 29.334 57.333 50.001 82s45 46 73 64s60.167 32 96.5 42s76.833 15 121.5 15c101.333 0 174.833 -19.667 220.5 -59s68.5 -94.333 68.5 -165c0 -23.333 -2.83301 -44 -8.5 -62
s-13.5 -33.833 -23.5 -47.5s-21.5 -25.834 -34.5 -36.501s-26.833 -20.334 -41.5 -29.001c-25.333 -15.333 -46.333 -27.333 -63 -36s-29.834 -16.167 -39.501 -22.5s-16.5 -13.166 -20.5 -20.499s-6 -17 -6 -29h-186v19z" />
    <glyph glyph-name="at" unicode="@" horiz-adv-x="923" 
d="M435 146c31.333 0 55.833 12.333 73.5 37s26.5 58 26.5 100c0 23.333 -5.33301 41.5 -16 54.5s-27.667 19.5 -51 19.5c-34 0 -58.833 -12.5 -74.5 -37.5s-23.5 -58.5 -23.5 -100.5c0 -22.667 5 -40.5 15 -53.5s26.667 -19.5 50 -19.5zM429 -163
c-60 0 -114.496 10.6719 -163.496 32.0049s-90.833 50.333 -125.5 87s-61.5 79.5 -80.5 128.5s-28.5 100.833 -28.5 155.5c0 63.333 12.333 121.166 37 173.499s57.667 97.333 99 135s89 67 143 88s110.333 31.5 169 31.5c58 0 112 -8.83301 162 -26.5
s93.667 -42.834 131 -75.501s66.666 -72.5 87.999 -119.5s32 -99.5 32 -157.5c0 -48.667 -6.33301 -89.5 -19 -122.5s-29 -59.667 -49 -80s-42.5 -34.833 -67.5 -43.5s-49.833 -13 -74.5 -13c-39.333 0 -71.166 7.16699 -95.499 21.5s-41.166 34.166 -50.499 59.499
c-17.333 -28.667 -38.666 -50.167 -63.999 -64.5s-52.333 -21.5 -81 -21.5c-26 0 -49.5 4.33301 -70.5 13s-39 21.334 -54 38.001s-26.667 36.667 -35 60s-12.5 49.666 -12.5 78.999c0 43.333 6 81.166 18 113.499s27.667 59.166 47 80.499s41.666 37.333 66.999 48
s51.666 16 78.999 16c37.333 0 65.666 -6.83301 84.999 -20.5s32.666 -28.834 39.999 -45.501l11 56h146l-46 -287c-6 -40.667 5.33301 -61 34 -61c30 0 55 15.5 75 46.5s30 76.833 30 137.5c0 46.667 -8.16699 87.667 -24.5 123s-38.833 65 -67.5 89s-63 42.167 -103 54.5
s-83.333 18.5 -130 18.5c-48.667 0 -94.5 -8 -137.5 -24s-80.667 -39 -113 -69s-57.833 -66 -76.5 -108s-28 -89 -28 -141c0 -44 6.83301 -85.5 20.5 -124.5s33.667 -72.833 60 -101.5s58.5 -51.5 96.5 -68.5s81.333 -25.5 130 -25.5c26 0 48.667 1.33301 68 4
s37.166 6.66699 53.499 12s31.666 12 45.999 20s29.5 17 45.5 27l47 -68c-19.333 -14 -38.5 -26 -57.5 -36s-38.667 -18.167 -59 -24.5s-42.5 -11.166 -66.5 -14.499s-50.667 -5 -80 -5z" />
    <glyph glyph-name="A" unicode="A" horiz-adv-x="838" 
d="M410 577l-103 -290h206zM205 0h-190l286 756h234l288 -756h-207l-50 141h-311z" />
    <glyph glyph-name="B" unicode="B" horiz-adv-x="854" 
d="M509 464c34.667 0 58.833 4.16797 72.5 12.501s20.5 25.833 20.5 52.5c0 23.333 -6.33301 40.166 -19 50.499s-37 15.5 -73 15.5h-230v-131h229zM279.999 161.001l237 0.00195312c38 0 63.833 6.66699 77.5 20s20.5 32.666 20.5 57.999s-7.16699 44.166 -21.5 56.499
s-41.5 18.5 -81.5 18.5h-232v-153zM83.999 756.003l440 -0.00390625c50.667 0 93 -6.16699 127 -18.5s61.167 -28.166 81.5 -47.499s34.833 -41.166 43.5 -65.499s13 -48.833 13 -73.5c0 -43.333 -7.5 -77 -22.5 -101s-40.167 -44 -75.5 -60
c17.333 -6.66699 33 -14.667 47 -24s26 -20.666 36 -33.999s17.667 -29.333 23 -48s8 -41 8 -67c0 -32 -4.5 -61.167 -13.5 -87.5s-24.167 -49.166 -45.5 -68.499s-50 -34.333 -86 -45s-81 -16 -135 -16h-441v756z" />
    <glyph glyph-name="C" unicode="C" horiz-adv-x="802" 
d="M440 -18c-65.333 0 -122.831 9.99902 -172.498 29.999s-91.334 47.667 -125.001 83s-59.167 77.166 -76.5 125.499s-26 100.833 -26 157.5s9.5 108.834 28.5 156.501s45.833 89 80.5 124s76.334 62.333 125.001 82s102.334 29.5 161.001 29.5
c46 0 86.833 -4.66699 122.5 -14s67.167 -22.666 94.5 -39.999s51.166 -38 71.499 -62s38.166 -50.667 53.499 -80l-162 -98c-17.333 42 -40.166 73.167 -68.499 93.5s-64.5 30.5 -108.5 30.5c-58.667 0 -105.834 -18.333 -141.501 -55s-53.5 -92 -53.5 -166
c0 -37.333 4.83301 -70 14.5 -98s23.167 -51.5 40.5 -70.5s38 -33.333 62 -43s50.667 -14.5 80 -14.5c46 0 84 12.333 114 37s53 56 69 94l167 -99c-16 -28 -34.333 -54.333 -55 -79s-45 -46.167 -73 -64.5s-60.333 -32.833 -97 -43.5s-78.334 -16 -125.001 -16z" />
    <glyph glyph-name="D" unicode="D" horiz-adv-x="862" 
d="M426 161c58 0 104.668 17.834 140.001 53.501s53 90.5 53 164.5c0 37.333 -4.83301 69.666 -14.5 96.999s-23.167 49.833 -40.5 67.5s-37.833 30.667 -61.5 39s-49.834 12.5 -78.501 12.5h-144v-434h146zM84.001 756.001l331.001 0.000976562
c62 0 118.167 -8.33301 168.5 -25s93.166 -41 128.499 -73s62.5 -71 81.5 -117s28.5 -98.333 28.5 -157c0 -57.333 -8.83301 -109.5 -26.5 -156.5s-43.834 -87.333 -78.501 -121s-77.667 -59.834 -129 -78.501s-110.666 -28 -177.999 -28h-326v756z" />
    <glyph glyph-name="E" unicode="E" horiz-adv-x="798" 
d="M84 756h653v-149h-457v-144h342v-149h-342v-162h475v-152h-671v756z" />
    <glyph glyph-name="F" unicode="F" horiz-adv-x="782" 
d="M84 756h653v-149h-457v-164h362v-149h-362v-294h-196v756z" />
    <glyph glyph-name="G" unicode="G" horiz-adv-x="902" 
d="M445 -18c-61.333 0 -116.837 9.83203 -166.504 29.499s-92.167 46.834 -127.5 81.501s-62.666 75.667 -81.999 123s-29 98.666 -29 153.999c0 58.667 9.33301 112.5 28 161.5s45.834 91.167 81.501 126.5s79.334 62.833 131.001 82.5s110.5 29.5 176.5 29.5
c91.333 0 165.5 -14.167 222.5 -42.5s101.5 -67.833 133.5 -118.5l-158 -100c-20 28.667 -45 51.334 -75 68.001s-71.333 25 -124 25c-67.333 0 -119.666 -20.333 -156.999 -61s-56 -97.334 -56 -170.001s19 -128 57 -166s95 -57 171 -57c34.667 0 64 5.66699 88 17
s43.5 24.5 58.5 39.5s25.833 30.333 32.5 46s10 28.167 10 37.5v4h-162v152h340v-444h-99l-31 97c-14 -17.333 -29.5 -33.166 -46.5 -47.499s-36 -26.5 -57 -36.5s-44.667 -17.667 -71 -23s-55.833 -8 -88.5 -8z" />
    <glyph glyph-name="H" unicode="H" horiz-adv-x="911" 
d="M280 312v-312h-196v756h196v-285h351v285h196v-756h-196v312h-351z" />
    <glyph glyph-name="I" unicode="I" horiz-adv-x="372" 
d="M88 756h196v-756h-196v756z" />
    <glyph glyph-name="J" unicode="J" horiz-adv-x="714" 
d="M335 -18c-51.333 0 -95.834 7.16406 -133.501 21.4971s-68.834 34.833 -93.501 61.5s-42.834 58.834 -54.501 96.501s-17.5 79.5 -17.5 125.5v40h189v-20c0 -26 1.33301 -48.667 4 -68s7.83398 -35.666 15.501 -48.999s18.667 -23.333 33 -30s33.5 -10 57.5 -10
c22.667 0 41 4.33301 55 13s24.5 20.667 31.5 36s11.667 33.5 14 54.5s3.5 43.833 3.5 68.5v434h196v-454c0 -57.333 -6.66699 -106.166 -20 -146.499s-32.666 -73.333 -57.999 -99s-56.666 -44.5 -93.999 -56.5s-80 -18 -128 -18z" />
    <glyph glyph-name="K" unicode="K" horiz-adv-x="857" 
d="M584 756h219l-299 -309l348 -447h-240l-240 311l-92 -95v-216h-196v756h196v-318z" />
    <glyph glyph-name="L" unicode="L" horiz-adv-x="712" 
d="M84 756h196v-600h400v-156h-596v756z" />
    <glyph glyph-name="M" unicode="M" horiz-adv-x="1060" 
d="M84 756h265l179 -496l181 496h267v-756h-191v507l-194 -507h-139l-192 507v-507h-176v756z" />
    <glyph glyph-name="N" unicode="N" horiz-adv-x="897" 
d="M84 756h248l304 -506l-7 506h184v-756h-229l-324 534l8 -534h-184v756z" />
    <glyph glyph-name="O" unicode="O" horiz-adv-x="896" 
d="M449 155c30.667 0 58.499 4.83301 83.499 14.5s46.5 24 64.5 43s31.833 42.5 41.5 70.5s14.5 60 14.5 96c0 36.667 -5 68.834 -15 96.501s-24.167 50.834 -42.5 69.501s-40.166 32.667 -65.499 42s-53 14 -83 14s-57.5 -4.66699 -82.5 -14s-46.5 -23.333 -64.5 -42
s-32 -41.834 -42 -69.501s-15 -59.834 -15 -96.501c0 -74 18.833 -129.833 56.5 -167.5s87.5 -56.5 149.5 -56.5zM442.999 -18c-61.333 0 -116.833 10 -166.5 30s-92 47.667 -127 83s-62 77.166 -81 125.499s-28.5 100.833 -28.5 157.5s10.833 108.834 32.5 156.501
s51 89 88 124s80.167 62.333 129.5 82s102 29.5 158 29.5s108.667 -9.16699 158 -27.5s92.5 -44.166 129.5 -77.499s66.333 -73.833 88 -121.5s32.5 -100.834 32.5 -159.501c0 -57.333 -10 -110.5 -30 -159.5s-48 -91.5 -84 -127.5s-79.333 -64.167 -130 -84.5
s-107 -30.5 -169 -30.5z" />
    <glyph glyph-name="P" unicode="P" horiz-adv-x="792" 
d="M478 436c37.333 0 62.5 7 75.5 21s19.5 34.333 19.5 61c0 23.333 -6.5 42 -19.5 56s-37.833 21 -74.5 21h-199v-159h198zM280 0h-195.999v756h406c48.667 0 90.334 -6 125.001 -18s63 -28.833 85 -50.5s38 -47.667 48 -78s15 -63.833 15 -100.5
c0 -33.333 -4.83301 -64 -14.5 -92s-24.834 -52.167 -45.501 -72.5s-46.834 -36.333 -78.501 -48s-69.5 -17.5 -113.5 -17.5h-231v-279z" />
    <glyph glyph-name="Q" unicode="Q" horiz-adv-x="896" 
d="M449 155c30.667 0 58.499 4.83301 83.499 14.5s46.5 24 64.5 43s31.833 42.5 41.5 70.5s14.5 60 14.5 96c0 36.667 -5 68.834 -15 96.501s-24.167 50.834 -42.5 69.501s-40.166 32.667 -65.499 42s-53 14 -83 14s-57.5 -4.66699 -82.5 -14s-46.5 -23.333 -64.5 -42
s-32 -41.834 -42 -69.501s-15 -59.834 -15 -96.501c0 -74 18.833 -129.833 56.5 -167.5s87.5 -56.5 149.5 -56.5zM877.999 3l-156 -132.002l-129 135c-45.333 -16 -95.333 -24 -150 -24c-61.333 0 -116.833 10 -166.5 30s-92 47.667 -127 83s-62 77.166 -81 125.499
s-28.5 100.833 -28.5 157.5s10.833 108.834 32.5 156.501s51 89 88 124s80.167 62.333 129.5 82s102 29.5 158 29.5s108.667 -9.16699 158 -27.5s92.5 -44.166 129.5 -77.499s66.333 -73.833 88 -121.5s32.5 -100.834 32.5 -159.501
c0 -51.333 -7.83301 -99.166 -23.5 -143.499s-38.5 -84.166 -68.5 -119.499z" />
    <glyph glyph-name="R" unicode="R" horiz-adv-x="846" 
d="M494 429c39.333 0 67 7.66797 83 23.001s24 37 24 65c0 27.333 -8.16699 47.166 -24.5 59.499s-43.5 18.5 -81.5 18.5h-215v-166h214zM280 0.000976562l-196.005 -0.00390625v756h425c100 0 172.667 -19.167 218 -57.5s68 -93.833 68 -166.5
c0 -29.333 -3.66699 -54.5 -11 -75.5s-17.166 -38.833 -29.499 -53.5s-26.666 -26.667 -42.999 -36s-33.833 -16.666 -52.5 -21.999c22 -5.33301 41.667 -14.666 59 -27.999s29.333 -28.666 36 -45.999c5.33301 -14 9.5 -29.333 12.5 -46s5.33301 -33.834 7 -51.501
s3.16699 -35.5 4.5 -53.5s3 -35.333 5 -52c4 -34 10 -54.333 18 -61v-7h-200c-1.33301 6 -2.66602 12.667 -3.99902 20s-2.66602 16.833 -3.99902 28.5s-2.66602 25.834 -3.99902 42.501s-2.33301 37 -3 61c-1.33301 44.667 -12.333 75.834 -33 93.501
s-54.667 26.5 -102 26.5h-171v-272z" />
    <glyph glyph-name="S" unicode="S" horiz-adv-x="776" 
d="M404 -18c-47.333 0 -90.3291 3.49609 -128.996 10.4961s-73.834 16.833 -105.501 29.5s-60 28 -85 46s-47.833 38 -68.5 60l129 115c26.667 -31.333 61.167 -56.666 103.5 -75.999s93.166 -29 152.499 -29c54 0 92.333 5.66699 115 17s34 29.333 34 54
c0 13.333 -2.66699 24.333 -8 33s-14.833 15.834 -28.5 21.501s-31.834 10.5 -54.501 14.5s-51 8.33301 -85 13c-37.333 5.33301 -75.5 12 -114.5 20s-74.5 20.667 -106.5 38s-58.167 40.5 -78.5 69.5s-30.5 67.167 -30.5 114.5c0 40.667 7.83301 75.834 23.5 105.501
s37.667 54.167 66 73.5s62.5 33.833 102.5 43.5s84.667 14.5 134 14.5c84.667 0 154.5 -11.167 209.5 -33.5s102.167 -54.5 141.5 -96.5l-121 -115c-8.66699 10.667 -19.5 21.667 -32.5 33s-28.667 21.333 -47 30s-39.333 15.834 -63 21.501s-50.5 8.5 -80.5 8.5
c-52 0 -89.167 -5.33301 -111.5 -16s-33.5 -28 -33.5 -52c0 -12.667 2.83301 -23.167 8.5 -31.5s15.667 -15.333 30 -21s33.333 -10.5 57 -14.5s53.5 -8 89.5 -12c38.667 -4.66699 77.5 -11.334 116.5 -20.001s74 -22 105 -40s56.167 -41.5 75.5 -70.5s29 -66.5 29 -112.5
c0 -83.333 -27.333 -145.166 -82 -185.499s-140.334 -60.5 -257.001 -60.5z" />
    <glyph glyph-name="T" unicode="T" horiz-adv-x="751" 
d="M38 600v156h675v-156h-233v-600h-196v600h-246z" />
    <glyph glyph-name="U" unicode="U" horiz-adv-x="881" 
d="M440 -18c-118.667 0 -208.5 27.335 -269.5 82.002s-91.5 137 -91.5 247v445h196v-434c0 -30 2.5 -55.5 7.5 -76.5s13.833 -38.333 26.5 -52s29.667 -23.5 51 -29.5s48.333 -9 81 -9c32 0 58.667 3 80 9s38.333 15.833 51 29.5s21.5 31 26.5 52s7.5 46.5 7.5 76.5v434h196
v-445c0 -57.333 -8.5 -106.833 -25.5 -148.5s-41.167 -75.834 -72.5 -102.501s-69.333 -46.334 -114 -59.001s-94.667 -19 -150 -19z" />
    <glyph glyph-name="V" unicode="V" horiz-adv-x="840" 
d="M15 756h213l205 -568l196 568h196l-277 -756h-246z" />
    <glyph glyph-name="W" unicode="W" horiz-adv-x="1162" 
d="M15 756h211l134 -533l147 533h163l158 -542l127 542h192l-205 -756h-230l-128 475l-130 -475h-229z" />
    <glyph glyph-name="X" unicode="X" horiz-adv-x="900" 
d="M48 756h238l170 -219l165 219h213l-275 -351l314 -405h-238l-199 257l-196 -257h-213l307 387z" />
    <glyph glyph-name="Y" unicode="Y" horiz-adv-x="810" 
d="M15 756h223l181 -278l170 278h206l-287 -440v-316h-196v318z" />
    <glyph glyph-name="Z" unicode="Z" horiz-adv-x="783" 
d="M46 157l446 450h-433v149h663v-155l-445 -449h460v-152h-691v157z" />
    <glyph glyph-name="bracketleft" unicode="[" horiz-adv-x="451" 
d="M80 793h329v-143h-145v-665h145v-143h-329v951z" />
    <glyph glyph-name="backslash" unicode="\" horiz-adv-x="483" 
d="M10 813h177l313 -950h-177z" />
    <glyph glyph-name="bracketright" unicode="]" horiz-adv-x="451" 
d="M42 -15h145v665h-145v143h329v-951h-329v143z" />
    <glyph glyph-name="asciicircum" unicode="^" horiz-adv-x="489" 
d="M71 441h347v-168h-347v168z" />
    <glyph glyph-name="underscore" unicode="_" horiz-adv-x="489" 
d="M-1 -41h491v-138h-491v138z" />
    <glyph glyph-name="grave" unicode="`" horiz-adv-x="500" 
d="M21 726h231l77 -159h-132z" />
    <glyph glyph-name="a" unicode="a" horiz-adv-x="630" 
d="M248 109c13.333 0 27.667 2.33301 43 7s29.333 11.5 42 20.5s23.167 20 31.5 33s12.5 28.167 12.5 45.5c-54.667 0 -98.334 -5.5 -131.001 -16.5s-49 -28.5 -49 -52.5c0 -13.333 4.83301 -22.833 14.5 -28.5s21.834 -8.5 36.501 -8.5zM374.001 320
c0 14 -1.00098 25.667 -3.00098 35s-6 16.833 -12 22.5s-14.333 9.66699 -25 12s-25 3.5 -43 3.5c-37.333 0 -67.333 -6.33301 -90 -19s-40.667 -27.667 -54 -45l-111 92c33.333 37.333 73.333 65 120 83s98.667 27 156 27c28 0 55.667 -2 83 -6s51.833 -12 73.5 -24
s39.167 -29 52.5 -51s20 -50.667 20 -86v-195c0 -23.333 3.33301 -38.5 10 -45.5s16.334 -10.5 29.001 -10.5c6.66699 0 11.834 0.5 15.501 1.5s7.16699 2.16699 10.5 3.5h4l-34 -114c-7.33301 -3.33301 -17.833 -6.16602 -31.5 -8.49902s-26.5 -3.5 -38.5 -3.5
s-24.5 1 -37.5 3s-25.167 5.5 -36.5 10.5s-21.666 12 -30.999 21s-16.333 20.167 -21 33.5c-21.333 -27.333 -47.166 -47 -77.499 -59s-63.5 -18 -99.5 -18c-25.333 0 -48.833 2.83301 -70.5 8.5s-40.334 14.5 -56.001 26.5s-27.834 27.333 -36.501 46s-13 41 -13 67
c0 37.333 8.83301 67.666 26.5 90.999s42 41.833 73 55.5s67.667 23.5 110 29.5s88.166 10.333 137.499 13z" />
    <glyph glyph-name="b" unicode="b" horiz-adv-x="647" 
d="M338 132c66 0 99 43 99 129c0 85.333 -33 128 -99 128c-30 0 -54.333 -12 -73 -36s-28 -55 -28 -93s9.33301 -68.833 28 -92.5s43 -35.5 73 -35.5zM409 -14c-40.667 0 -75.001 7.5 -103.001 22.5s-50.667 37.5 -68 67.5l2 -76h-176v756h176v-307
c6.66699 10 14.5 20 23.5 30s19.833 18.833 32.5 26.5s27.334 13.834 44.001 18.501s35.667 7 57 7c68 0 121.167 -23.167 159.5 -69.5s57.5 -112.833 57.5 -199.5s-18 -154.334 -54 -203.001s-86.333 -73 -151 -73z" />
    <glyph glyph-name="c" unicode="c" horiz-adv-x="576" 
d="M301 -18c-38.667 0 -74.666 5.99805 -107.999 17.998s-62.166 29.5 -86.499 52.5s-43.333 51.333 -57 85s-20.5 71.834 -20.5 114.501c0 43.333 6.83301 82.333 20.5 117s32.5 64 56.5 88s52.5 42.333 85.5 55s69.167 19 108.5 19c65.333 0 118.166 -13.667 158.499 -41
s71.166 -67 92.499 -119l-142 -70c-8.66699 24.667 -21 45.334 -37 62.001s-38 25 -66 25c-32 0 -56.5 -10.5 -73.5 -31.5s-25.5 -53.833 -25.5 -98.5c0 -44 8.33301 -78 25 -102s41.667 -36 75 -36c27.333 0 49.333 8.33301 66 25s28.667 39.667 36 69l149 -65
c-20.667 -54 -52.167 -95.333 -94.5 -124s-96.5 -43 -162.5 -43z" />
    <glyph glyph-name="d" unicode="d" 
d="M308 134c31.333 0 56.5 11.5 75.5 34.5s28.5 53.5 28.5 91.5s-8.83301 69 -26.5 93s-43.5 36 -77.5 36s-58.833 -10.333 -74.5 -31s-23.5 -53 -23.5 -97c0 -44.667 7.83301 -77 23.5 -97s40.5 -30 74.5 -30zM246 -14c-69.333 0 -122.169 24.1689 -158.502 72.502
s-54.5 116.166 -54.5 203.499c0 86.667 19.333 153.167 58 199.5s91.334 69.5 158.001 69.5c22.667 0 42.5 -2.33301 59.5 -7s31.833 -10.834 44.5 -18.501s23.5 -16.5 32.5 -26.5s16.833 -20 23.5 -30v307h176v-756h-176l2 76c-17.333 -30 -38.666 -52.5 -63.999 -67.5
s-59 -22.5 -101 -22.5z" />
    <glyph glyph-name="e" unicode="e" horiz-adv-x="606" 
d="M408 317c-4 24.667 -14.168 43.667 -30.501 57s-40.166 20 -71.499 20c-28 0 -51 -5.33301 -69 -16s-30.333 -31 -37 -61h208zM198.999 216c5.33301 -32 17.502 -56.002 36.502 -72.002s42.833 -24 71.5 -24c27.333 0 51 4.16699 71 12.5s36 25.166 48 50.499l149 -47
c-24 -52 -58.667 -90.667 -104 -116s-99.333 -38 -162 -38c-40.667 0 -78 6 -112 18s-63.5 29.5 -88.5 52.5s-44.5 51.333 -58.5 85s-21 71.834 -21 114.501c0 43.333 6.66699 82.333 20 117s32.166 64 56.499 88s53.5 42.333 87.5 55s71.667 19 113 19
c32 0 65 -5.16699 99 -15.5s64.5 -27.666 91.5 -51.999s48.167 -56.666 63.5 -96.999s20.666 -90.5 15.999 -150.5h-377z" />
    <glyph glyph-name="f" unicode="f" horiz-adv-x="425" 
d="M15 378v139.002h97v96c0 56.667 15.333 97.5 46 122.5s73 37.5 127 37.5c32 0 58.333 -2.33301 79 -7s39.667 -10.667 57 -18l-19 -136h-2c-7.33301 5.33301 -15.833 10.166 -25.5 14.499s-22.167 6.5 -37.5 6.5s-27.333 -3.33301 -36 -10s-13 -17.334 -13 -32.001v-74
h121v-139h-121v-378h-176v378h-97z" />
    <glyph glyph-name="g" unicode="g" horiz-adv-x="629" 
d="M293 291c25.333 0 45.333 4.66895 60 14.002s22 24.666 22 45.999c0 22 -7.33301 37.667 -22 47s-34.667 14 -60 14s-45.166 -5 -59.499 -15s-21.5 -25.333 -21.5 -46s7.16699 -35.834 21.5 -45.501s34.166 -14.5 59.499 -14.5zM187 -6.99805
c-5.33301 -5.33301 -9.33398 -10.998 -12.001 -16.998s-4 -13 -4 -21c0 -17.333 9 -29.833 27 -37.5s48.333 -11.5 91 -11.5c26.667 0 48.5 0.666992 65.5 2s30.167 3.66602 39.5 6.99902s15.833 7.66602 19.5 12.999s5.5 12.333 5.5 21c0 8 -1.5 14.5 -4.5 19.5
s-9.33301 8.83301 -19 11.5s-23.667 4.5 -42 5.5s-42.833 1.83301 -73.5 2.5c-18 0 -34.667 0.5 -50 1.5s-29.666 2.16699 -42.999 3.5zM127.999 218.004c-21.333 15.333 -38.3291 33.999 -50.9961 55.999s-19 48 -19 78c0 59.333 21.167 104 63.5 134s98.5 45 168.5 45
c20.667 0 41.167 -1.33301 61.5 -4s39.5 -7.16699 57.5 -13.5s34.5 -14.833 49.5 -25.5s27.5 -24 37.5 -40c14 32 31.167 53.833 51.5 65.5s43.166 16.5 68.499 14.5v-147h-3c-28 6 -49.167 3.5 -63.5 -7.5s-24.5 -29.5 -30.5 -55.5c-10.667 -48 -34.667 -83.333 -72 -106
s-90 -34 -158 -34c-18 0 -35.333 1 -52 3s-32.334 5.33301 -47.001 10c-11.333 -7.33301 -17 -17.333 -17 -30c0 -7.33301 1.66699 -13.166 5 -17.499s10 -7.66602 20 -9.99902s24.333 -4 43 -5s43.667 -1.83301 75 -2.5c40 -0.666992 76.667 -2.83398 110 -6.50098
s61.833 -10.834 85.5 -21.501s42.167 -26.167 55.5 -46.5s20 -47.5 20 -81.5c0 -35.333 -6.66699 -64.333 -20 -87s-32.833 -40.667 -58.5 -54s-57.167 -22.666 -94.5 -27.999s-80.333 -8 -129 -8c-48 0 -88.667 2.16699 -122 6.5s-60.5 11.5 -81.5 21.5s-36.333 23 -46 39
s-14.5 35.333 -14.5 58c0 13.333 2.33301 25 7 35s10.834 18.5 18.501 25.5s16.5 13 26.5 18s20.333 9.5 31 13.5c-26.667 10 -44.834 23 -54.501 39s-14.5 35.333 -14.5 58c0 15.333 2.66699 29 8 41s12.166 22.333 20.499 31s18.166 16.167 29.499 22.5s23 11.833 35 16.5
z" />
    <glyph glyph-name="h" unicode="h" 
d="M64 756h175.998v-328c17.333 30.667 40.333 55.5 69 74.5s66 28.5 112 28.5c24.667 0 47.334 -3.33301 68.001 -10s38.5 -17 53.5 -31s26.5 -32 34.5 -54s12 -48.667 12 -80v-356h-176v295c0 26 -5.16699 47 -15.5 63s-28.833 24 -55.5 24
c-33.333 0 -58.666 -10.5 -75.999 -31.5s-26 -58.833 -26 -113.5v-237h-176v756z" />
    <glyph glyph-name="i" unicode="i" horiz-adv-x="314" 
d="M69 755h176v-168h-176v168zM69 517h176v-517h-176v517z" />
    <glyph glyph-name="j" unicode="j" horiz-adv-x="314" 
d="M69 755h176v-168h-176v168zM72 -189c-23.333 0 -43.498 1.83496 -60.498 5.50195s-32.833 8.83398 -47.5 15.501v141h6c5.33301 -3.33301 11.5 -6.33301 18.5 -9s16.5 -4 28.5 -4c16 0 28.667 3.66699 38 11s14 19.666 14 36.999v509h176v-539
c0 -24.667 -4 -47.334 -12 -68.001s-19.333 -38.334 -34 -53.001s-32.834 -26 -54.501 -34s-45.834 -12 -72.501 -12z" />
    <glyph glyph-name="k" unicode="k" horiz-adv-x="613" 
d="M240 0h-176v756h176v-420l155 181h194l-187 -199l203 -318h-199l-120 194l-46 -49v-145z" />
    <glyph glyph-name="l" unicode="l" horiz-adv-x="314" 
d="M69 756h176v-756h-176v756z" />
    <glyph glyph-name="m" unicode="m" horiz-adv-x="948" 
d="M388 0l0.00195312 299c0 29.333 -5.5 50.5 -16.5 63.5s-27.167 19.5 -48.5 19.5c-30 0 -51.333 -9.83301 -64 -29.5s-19 -51.5 -19 -95.5v-257h-176v517h176l-2 -80c14.667 26 34.5 48.167 59.5 66.5s56.5 27.5 94.5 27.5c36 0 67.667 -6 95 -18s47.666 -34 60.999 -66
c22 30.667 46.667 52.334 74 65.001s58.333 19 93 19c24.667 0 47.667 -2.83301 69 -8.5s39.666 -15.334 54.999 -29.001s27.333 -31.667 36 -54s13 -49.833 13 -82.5v-357h-176v299c0 29.333 -5.5 50.5 -16.5 63.5s-27.167 19.5 -48.5 19.5
c-30 0 -51.333 -9.83301 -64 -29.5s-19 -51.5 -19 -95.5v-257h-176z" />
    <glyph glyph-name="n" unicode="n" 
d="M64 517l175.999 -0.000976562l-2 -91c17.333 30.667 40.666 55.834 69.999 75.501s67 29.5 113 29.5c24.667 0 47.334 -3.33301 68.001 -10s38.5 -17 53.5 -31s26.5 -32 34.5 -54s12 -48.667 12 -80v-356h-176v295c0 26 -5.16699 47 -15.5 63s-28.833 24 -55.5 24
c-33.333 0 -58.666 -10.5 -75.999 -31.5s-26 -58.833 -26 -113.5v-237h-176v517z" />
    <glyph glyph-name="o" unicode="o" horiz-adv-x="612" 
d="M307 120c32.667 0 57.5 12 74.5 36s25.5 57.667 25.5 101c0 87.333 -33.333 131 -100 131c-32 0 -56.833 -10.5 -74.5 -31.5s-26.5 -53.833 -26.5 -98.5c0 -44 8.5 -78 25.5 -102s42.167 -36 75.5 -36zM306 -18c-40 0 -77 5.99902 -111 17.999s-63.333 29.5 -88 52.5
s-43.834 51.333 -57.501 85s-20.5 71.834 -20.5 114.501c0 43.333 6.83301 82.333 20.5 117s32.834 64 57.501 88s54 42.333 88 55s71.333 19 112 19s77.834 -6.66699 111.501 -20s62.667 -32 87 -56s43.333 -52.667 57 -86s20.5 -70.333 20.5 -111
c0 -44 -6.83301 -83 -20.5 -117s-32.834 -62.833 -57.501 -86.5s-54 -41.667 -88 -54s-71 -18.5 -111 -18.5z" />
    <glyph glyph-name="p" unicode="p" horiz-adv-x="647" 
d="M338 132c66 0 99 43 99 129c0 85.333 -33 128 -99 128c-30 0 -54.333 -12 -73 -36s-28 -55 -28 -93s9.33301 -68.833 28 -92.5s43 -35.5 73 -35.5zM64 517l175.999 0.00195312l-2 -76c14.667 25.333 34.167 46.666 58.5 63.999s57.833 26 100.5 26
c68 0 121.167 -23.167 159.5 -69.5s57.5 -112.833 57.5 -199.5s-18 -154.334 -54 -203.001s-86.333 -73 -151 -73c-40.667 0 -74.667 7 -102 21s-49.666 35 -66.999 63v-249h-176v696z" />
    <glyph glyph-name="q" unicode="q" 
d="M308 134c31.333 0 56.5 11.5 75.5 34.5s28.5 53.5 28.5 91.5s-8.83301 69 -26.5 93s-43.5 36 -77.5 36s-58.833 -10.333 -74.5 -31s-23.5 -53 -23.5 -97c0 -44.667 7.83301 -77 23.5 -97s40.5 -30 74.5 -30zM409 71c-17.333 -28 -38.334 -49.166 -63.001 -63.499
s-58 -21.5 -100 -21.5c-69.333 0 -122.166 24.167 -158.499 72.5s-54.5 116.166 -54.5 203.499c0 86.667 19.333 153.167 58 199.5s91.334 69.5 158.001 69.5c23.333 0 43.666 -2.33301 60.999 -7s32.5 -11 45.5 -19s24 -17.333 33 -28s16.5 -21.667 22.5 -33l-2 73h176
v-696h-176v250z" />
    <glyph glyph-name="r" unicode="r" horiz-adv-x="444" 
d="M64 517l176 0.000976562l-2 -63c13.333 23.333 30.5 41.166 51.5 53.499s42.833 18.5 65.5 18.5c22 0 39.667 -2.66699 53 -8s24.666 -12 33.999 -20l-71 -158h-2c-14 16 -33 24 -57 24c-25.333 0 -43.666 -7.66699 -54.999 -23s-17 -40 -17 -74v-267h-176v517z" />
    <glyph glyph-name="s" unicode="s" horiz-adv-x="562" 
d="M291 -15c-64.667 0 -119.666 7.83789 -164.999 23.5049s-83.666 38.5 -114.999 68.5l92 102c10 -8.66699 20.667 -16.667 32 -24s24 -13.833 38 -19.5s30 -10 48 -13s39 -4.5 63 -4.5c33.333 0 55.333 3 66 9s16 14.667 16 26c0 7.33301 -1.5 12.666 -4.5 15.999
s-8.83301 6 -17.5 8s-20.5 3.66699 -35.5 5s-34.5 3.33301 -58.5 6c-32 4 -61.333 9.33301 -88 16s-49.334 16.5 -68.001 29.5s-33.167 29.667 -43.5 50s-15.5 46.166 -15.5 77.499c0 30.667 6.33301 56.667 19 78s30 38.666 52 51.999s47.833 23.166 77.5 29.499
s61.5 9.5 95.5 9.5c56.667 0 105.334 -5.66699 146.001 -17s71 -24 91 -38l-80 -116c-16 11.333 -36.5 21.166 -61.5 29.499s-58.833 12.5 -101.5 12.5c-17.333 0 -31 -1 -41 -3s-17.667 -4.5 -23 -7.5s-8.83301 -6.33301 -10.5 -10s-2.5 -7.5 -2.5 -11.5
c0 -4.66699 1.16699 -8.83398 3.5 -12.501s7 -6.83398 14 -9.50098s16.833 -5 29.5 -7s29 -3.66699 49 -5c29.333 -2 58.666 -5.66699 87.999 -11s55.666 -14.166 78.999 -26.499s42.333 -29.166 57 -50.499s22 -49.333 22 -84c0 -62 -22 -107.167 -66 -135.5
s-104.333 -42.5 -181 -42.5z" />
    <glyph glyph-name="t" unicode="t" horiz-adv-x="406" 
d="M15 378l0.00195312 139.002h84v72c25.333 16 53.166 35.667 83.499 59s58.5 47.666 84.5 72.999h8v-204h106v-139h-106v-191c0 -14 2.66699 -24.833 8 -32.5s15.666 -11.5 30.999 -11.5c11.333 0 21 1 29 3s14.667 4.66699 20 8h2v-148
c-10 -4 -25.167 -8.33301 -45.5 -13s-43.5 -7 -69.5 -7c-28 0 -52 2.66699 -72 8s-35.667 14.666 -47 27.999c-10.667 12 -18.667 27 -24 45s-8 41 -8 69v242h-84z" />
    <glyph glyph-name="u" unicode="u" 
d="M228 -14c-25.333 0 -48.1699 3.33398 -68.5029 10.001s-38 17 -53 31s-26.5 32 -34.5 54s-12 48.667 -12 80v356h176v-295c0 -26 5.16699 -47 15.5 -63s28.833 -24 55.5 -24c16.667 0 31.334 2.33301 44.001 7s23.334 12.667 32.001 24s15.167 26.333 19.5 45
s6.5 41.667 6.5 69v237h176v-517h-176l2 91c-17.333 -30.667 -40.666 -55.834 -69.999 -75.501s-67 -29.5 -113 -29.5z" />
    <glyph glyph-name="v" unicode="v" horiz-adv-x="598" 
d="M12 517h189l100 -314l110 314h175l-198 -517h-184z" />
    <glyph glyph-name="w" unicode="w" horiz-adv-x="834" 
d="M12 517h188l70 -309l87 309h134l77 -309l80 309h174l-161 -517h-175l-70 281l-75 -281h-175z" />
    <glyph glyph-name="x" unicode="x" horiz-adv-x="631" 
d="M211 260l-193 257h211l94 -134l97 134h186l-190 -243l207 -274h-211l-107 152l-111 -152h-186z" />
    <glyph glyph-name="y" unicode="y" horiz-adv-x="598" 
d="M12 517l189.002 0.000976562l105 -299l108 299h172l-199 -491c-9.33301 -23.333 -18.333 -44.333 -27 -63s-17.5 -35.334 -26.5 -50.001s-18.333 -27.5 -28 -38.5s-19.834 -20.5 -30.501 -28.5c-30.667 -22.667 -70 -34 -118 -34c-20 0 -37.833 2 -53.5 6
s-28.834 9.66699 -39.501 17v143h6c5.33301 -6 13.333 -11.167 24 -15.5s23.667 -6.5 39 -6.5c24 0 42 4.16699 54 12.5s21.333 21.5 28 39.5z" />
    <glyph glyph-name="z" unicode="z" horiz-adv-x="537" 
d="M35 123l243 258h-233v136h454v-117l-250 -264h253v-136h-467v123z" />
    <glyph glyph-name="braceleft" unicode="{" horiz-adv-x="461" 
d="M412 -160c-104.667 2.66699 -180.167 18.8311 -226.5 48.498s-69.5 74.834 -69.5 135.501c0 15.333 1.16699 29.833 3.5 43.5l7 39.5l7 37.5c2.33301 12.333 3.5 25.166 3.5 38.499c0 25.333 -9.16699 43.333 -27.5 54s-47.5 15.334 -87.5 14.001v143
c40 -1.33301 69.167 3.16699 87.5 13.5s27.5 28.166 27.5 53.499c0 13.333 -1.16699 26 -3.5 38l-7 36l-7 36c-2.33301 12 -3.5 25 -3.5 39c0 60.667 23.167 105.834 69.5 135.501s121.833 45.834 226.5 48.501l9 -143c-23.333 -1.33301 -42.666 -3.66602 -57.999 -6.99902
s-27.5 -8 -36.5 -14s-15.333 -13.167 -19 -21.5s-5.5 -17.833 -5.5 -28.5c0 -8 0.666992 -16.333 2 -25s3 -18 5 -28s3.66699 -21.333 5 -34s2 -27 2 -43c0 -30.667 -8.5 -57.334 -25.5 -80.001s-44.5 -38.667 -82.5 -48c38 -9.33301 65.5 -25.333 82.5 -48
s25.5 -49.334 25.5 -80.001c0 -30 -2.33301 -55.833 -7 -77.5s-7 -42.5 -7 -62.5c0 -11.333 1.83301 -21 5.5 -29s10 -15 19 -21s21.167 -10.667 36.5 -14s34.666 -5.66602 57.999 -6.99902z" />
    <glyph glyph-name="bar" unicode="|" horiz-adv-x="299" 
d="M65 813h169v-950h-169v950z" />
    <glyph glyph-name="braceright" unicode="}" horiz-adv-x="461" 
d="M40 -17c23.333 1.33301 42.666 3.66895 57.999 7.00195s27.5 8 36.5 14s15.333 13 19 21s5.5 17.667 5.5 29c0 20 -2.33301 40.833 -7 62.5s-7 47.5 -7 77.5c0 30.667 8.5 57.334 25.5 80.001s44.5 38.667 82.5 48c-38 9.33301 -65.5 25.333 -82.5 48
s-25.5 49.334 -25.5 80.001c0 16 0.666992 30.333 2 43s3 24 5 34s3.66699 19.333 5 28s2 17 2 25c0 10.667 -1.83301 20.167 -5.5 28.5s-10 15.5 -19 21.5s-21.167 10.667 -36.5 14s-34.666 5.66602 -57.999 6.99902l9 143c104.667 -2.66699 180.167 -18.834 226.5 -48.501
s69.5 -74.834 69.5 -135.501c0 -14 -1.16699 -27 -3.5 -39l-7 -36l-7 -36c-2.33301 -12 -3.5 -24.667 -3.5 -38c0 -25.333 9.16699 -43.166 27.5 -53.499s47.5 -14.833 87.5 -13.5v-143c-40 1.33301 -69.167 -3.33398 -87.5 -14.001s-27.5 -28.667 -27.5 -54
c0 -13.333 1.16699 -26.166 3.5 -38.499l7 -37.5l7 -39.5c2.33301 -13.667 3.5 -28.167 3.5 -43.5c0 -60.667 -23.167 -105.834 -69.5 -135.501s-121.833 -45.834 -226.5 -48.501z" />
    <glyph glyph-name="asciitilde" unicode="~" horiz-adv-x="572" 
d="M371 223c-19.333 0 -36.1699 2.5 -50.5029 7.5s-27.166 10.667 -38.499 17l-31.5 17c-9.66699 5 -19.167 7.5 -28.5 7.5c-16 0 -28 -3.33301 -36 -10s-13.667 -17.667 -17 -33l-141 8c4 29.333 11.167 55.833 21.5 79.5s23.166 43.667 38.499 60
s32.666 28.833 51.999 37.5s39.666 13 60.999 13c18.667 0 35.334 -2.5 50.001 -7.5s27.834 -10.667 39.501 -17l32 -17c9.66699 -5 19.167 -7.5 28.5 -7.5c15.333 0 27 3.33301 35 10s13.667 17.667 17 33l141 -8c-4 -29.333 -11.167 -55.833 -21.5 -79.5
s-23.166 -43.667 -38.499 -60s-32.666 -28.833 -51.999 -37.5s-39.666 -13 -60.999 -13z" />
    <glyph glyph-name="Zcaron" horiz-adv-x="783" 
d="M176 964h132l85 -71l85 71h128l-118 -169h-194zM46 157l446 450h-433v149h663v-155l-445 -449h460v-152h-691v157z" />
    <glyph glyph-name="Zcaron" unicode="&#x17d;" horiz-adv-x="783" 
d="M176 964h132l85 -71l85 71h128l-118 -169h-194zM46 157l446 450h-433v149h663v-155l-445 -449h460v-152h-691v157z" />
    <glyph glyph-name="zcaron" horiz-adv-x="537" 
d="M59 736h132l85 -71l85 71h128l-118 -169h-194zM35 123l243 258h-233v136h454v-117l-250 -264h253v-136h-467v123z" />
    <glyph glyph-name="zcaron" unicode="&#x17e;" horiz-adv-x="537" 
d="M59 736h132l85 -71l85 71h128l-118 -169h-194zM35 123l243 258h-233v136h454v-117l-250 -264h253v-136h-467v123z" />
    <glyph glyph-name="uni00A0" unicode="&#xa0;" horiz-adv-x="240" 
 />
    <glyph glyph-name="exclamdown" unicode="&#xa1;" horiz-adv-x="387" 
d="M95 756h195v-175h-195v175zM89 190l38 296h133l38 -296v-190h-209v190z" />
    <glyph glyph-name="cent" unicode="&#xa2;" horiz-adv-x="598" 
d="M276 387c-23.333 -6.66699 -41.833 -20.333 -55.5 -41s-20.5 -50 -20.5 -88c0 -37.333 6.66699 -67.333 20 -90s32 -38 56 -46v265zM276 -15.999c-34.667 3.33301 -66.8301 11.834 -96.4971 25.501s-55.5 32 -77.5 55s-39.333 50.167 -52 81.5s-19 66.666 -19 105.999
c0 40 6.16699 76.167 18.5 108.5s29.5 60.333 51.5 84s48 42.667 78 57s62.333 23.5 97 27.5v116h84v-117c53.333 -6 97.333 -22.167 132 -48.5s61.667 -62.5 81 -108.5l-138 -65c-6.66699 19.333 -15.834 36.166 -27.501 50.499s-27.5 24.5 -47.5 30.5v-267
c38.667 12.667 63.667 42.334 75 89.001l145 -60c-16.667 -46 -43.834 -83.167 -81.501 -111.5s-83.834 -45.833 -138.501 -52.5v-117h-84v116z" />
    <glyph glyph-name="sterling" unicode="&#xa3;" horiz-adv-x="688" 
d="M343 270c0 -30 -5.16797 -54.5 -15.501 -73.5s-25.166 -35.167 -44.499 -48.5h353v-148h-590v154c35.333 9.33301 62.666 21.5 81.999 36.5s29 37.833 29 68.5v8c0 2.66699 -0.333008 5.33398 -1 8.00098h-116v122h68c-8.66699 16 -16 32.667 -22 50s-9 36.333 -9 57
c0 29.333 4.83301 57 14.5 83s26 48.667 49 68s53.5 34.666 91.5 45.999s85 17 141 17c77.333 0 139.333 -15.833 186 -47.5s81.334 -76.5 104.001 -134.5l-159 -67c-9.33301 30.667 -24.5 55.667 -45.5 75s-49.5 29 -85.5 29c-37.333 0 -64 -7.5 -80 -22.5
s-24 -35.5 -24 -61.5c0 -15.333 3.16699 -30.5 9.5 -45.5s13.833 -30.5 22.5 -46.5h182v-122h-140v-5z" />
    <glyph glyph-name="currency" unicode="&#xa4;" horiz-adv-x="606" 
d="M303 237c48 0 72 33.333 72 100c0 33.333 -6.16699 57.5 -18.5 72.5s-30.166 22.5 -53.499 22.5c-22.667 0 -40.334 -7.33301 -53.001 -22s-19 -39 -19 -73c0 -66.667 24 -100 72 -100zM387 140c-26.667 -9.33301 -55 -14 -85 -14c-31.333 0 -59 4.33301 -83 13l-77 -82
l-105 98l71 77c-15.333 28.667 -23 62.334 -23 101.001c0 40 8 75 24 105l-72 77l105 98l76 -81c26.667 9.33301 55 14 85 14c30.667 0 59 -5 85 -15l76 82l105 -98l-72 -78c7.33301 -14.667 13.166 -30.334 17.499 -47.001s6.5 -34.334 6.5 -53.001
c0 -20 -2.16699 -38.667 -6.5 -56s-10.166 -33.666 -17.499 -48.999l72 -77l-105 -98z" />
    <glyph glyph-name="yen" unicode="&#xa5;" horiz-adv-x="753" 
d="M14 704h202l172 -263l160 263h191l-231 -355h161v-90h-196v-57h196v-89h-196v-113h-183v113h-196v89h196v57h-196v90h160z" />
    <glyph glyph-name="brokenbar" unicode="&#xa6;" horiz-adv-x="299" 
d="M234 -137h-169v409h169v-409zM65 813h169v-421h-169v421z" />
    <glyph glyph-name="section" unicode="&#xa7;" horiz-adv-x="659" 
d="M428 210c13.333 3.33301 23.6699 8.66992 31.0029 16.0029s11 17.333 11 30c0 8.66699 -1.33301 16 -4 22s-8.33398 11.167 -17.001 15.5s-20.834 8.16602 -36.501 11.499s-36.834 7 -63.501 11l-117 16c-13.333 -3.33301 -23.666 -8.5 -30.999 -15.5
s-11 -17.167 -11 -30.5c0 -8.66699 1.16699 -16.334 3.5 -23.001s7.66602 -12.5 15.999 -17.5s20.5 -9.33301 36.5 -13s37.667 -6.83398 65 -9.50098zM333.004 -172.996c-55.333 0 -103.834 8.16992 -145.501 24.5029s-76.5 38.5 -104.5 66.5l97 107
c20.667 -20.667 43.167 -35 67.5 -43s50.833 -12 79.5 -12c58.667 0 88 12.667 88 38c0 10.667 -1.83301 18.667 -5.5 24s-10.5 9.5 -20.5 12.5s-24.167 5.5 -42.5 7.5s-42.5 5.33301 -72.5 10c-39.333 6 -74.333 13.5 -105 22.5s-56.334 20.833 -77.001 35.5
s-36.334 33.167 -47.001 55.5s-16 50.5 -16 84.5s8 62.667 24 86s41.667 42.666 77 57.999c-18.667 15.333 -31.667 32.666 -39 51.999s-11 41.666 -11 66.999c0 36 6.33301 66.333 19 91s30 44.667 52 60s47.833 26.5 77.5 33.5s61.834 10.5 96.501 10.5c30 0 57 -2 81 -6
s46 -9.66699 66 -17s38.333 -16.833 55 -28.5s32.667 -24.834 48 -39.501l-98 -107c-20.667 20.667 -43 35.167 -67 43.5s-50.667 12.5 -80 12.5c-56.667 0 -85 -14 -85 -42c0 -10 1.66699 -17.667 5 -23s10 -9.5 20 -12.5s24.167 -5.66699 42.5 -8
s42.5 -5.83301 72.5 -10.5c40.667 -6 76.334 -13.333 107.001 -22s56.334 -20.167 77.001 -34.5s36.167 -33 46.5 -56s15.5 -52.167 15.5 -87.5c0 -34 -7.83301 -62.667 -23.5 -86s-40.5 -42.666 -74.5 -57.999c17.333 -15.333 29.333 -32.5 36 -51.5s10 -40.833 10 -65.5
c0 -36 -6.33301 -66.167 -19 -90.5s-30 -44 -52 -59s-48 -25.833 -78 -32.5s-62.333 -10 -97 -10z" />
    <glyph glyph-name="dieresis" unicode="&#xa8;" horiz-adv-x="500" 
d="M58 726h161v-159h-161v159zM281 726h161v-159h-161v159z" />
    <glyph glyph-name="copyright" unicode="&#xa9;" horiz-adv-x="856" 
d="M431 142c-37.333 0 -70.4971 5.99902 -99.4971 17.999s-53.833 28.5 -74.5 49.5s-36.334 46.167 -47.001 75.5s-16 61 -16 95s5.83301 65.5 17.5 94.5s28.167 54 49.5 75s46.833 37.333 76.5 49s62.167 17.5 97.5 17.5c51.333 0 93.666 -11 126.999 -33
s58 -50.667 74 -86l-121 -71c-16 33.333 -41.333 50 -76 50c-25.333 0 -46 -7.83301 -62 -23.5s-24 -39.5 -24 -71.5s8.33301 -56.5 25 -73.5s37.667 -25.5 63 -25.5c18.667 0 34.667 5.33301 48 16s23 23.334 29 38.001l127 -71c-9.33301 -17.333 -20.333 -33.5 -33 -48.5
s-27.5 -28 -44.5 -39s-36.833 -19.667 -59.5 -26s-48.334 -9.5 -77.001 -9.5zM427.003 68.999c42.667 0 82.501 7.49902 119.501 22.499s69.167 36.167 96.5 63.5s48.666 60 63.999 98s23 79.667 23 125c0 44.667 -7.5 86 -22.5 124s-35.833 70.5 -62.5 97.5
s-58.5 48.167 -95.5 63.5s-77.167 23 -120.5 23c-44 0 -84.5 -7.66699 -121.5 -23s-69 -36.666 -96 -63.999s-48 -60 -63 -98s-22.5 -79.667 -22.5 -125s7.83301 -86.833 23.5 -124.5s37 -70 64 -97s58.833 -48 95.5 -63s76 -22.5 118 -22.5zM427.004 -9.00195
c-54 0 -104.501 9.83398 -151.501 29.501s-88 46.667 -123 81s-62.5 75 -82.5 122s-30 97.833 -30 152.5c0 54 10 104.5 30 151.5s47.5 88 82.5 123s76.167 62.667 123.5 83s98.333 30.5 153 30.5s105.667 -10 153 -30s88.333 -47.5 123 -82.5s61.834 -75.833 81.501 -122.5
s29.5 -97 29.5 -151c0 -54.667 -10 -105.667 -30 -153s-47.5 -88.333 -82.5 -123s-76.167 -61.834 -123.5 -81.501s-98.333 -29.5 -153 -29.5z" />
    <glyph glyph-name="ordfeminine" unicode="&#xaa;" horiz-adv-x="538" 
d="M219 380c10 0 20.667 1.83105 32 5.49805s21.5 8.83398 30.5 15.501s16.5 15 22.5 25s9 21.333 9 34c-44 0 -77 -4 -99 -12s-33 -21.667 -33 -41c0 -9.33301 3.66699 -16.166 11 -20.499s16.333 -6.5 27 -6.5zM311 548.998
c-0.666992 19.333 -5.16992 32.999 -13.5029 40.999s-26.166 12 -53.499 12c-30 0 -53.5 -4.83301 -70.5 -14.5s-31.167 -21.5 -42.5 -35.5l-96 78c28 30.667 61 53 99 67s81 21 129 21c23.333 0 46.833 -1.66699 70.5 -5s44.834 -9.83301 63.501 -19.5
s33.834 -23.167 45.501 -40.5s17.5 -40.333 17.5 -69v-153c0 -18.667 2.83301 -31 8.5 -37s13.5 -9 23.5 -9c9.33301 0 16.333 1.66699 21 5h4l-29 -98c-6 -2.66699 -15.667 -5 -29 -7s-27 -3 -41 -3c-10 0 -20.167 0.666992 -30.5 2s-20.166 4 -29.499 8
s-17.833 9.5 -25.5 16.5s-13.5 16.167 -17.5 27.5c-15.333 -20.667 -35 -36 -59 -46s-50 -15 -78 -15c-21.333 0 -41 2.33301 -59 7s-33.5 11.834 -46.5 21.501s-23.333 22 -31 37s-11.5 33.167 -11.5 54.5c0 30 7.16699 54.5 21.5 73.5s34.166 34.167 59.499 45.5
s55 19.5 89 24.5s71 8.5 111 10.5z" />
    <glyph glyph-name="guillemotleft" unicode="&#xab;" horiz-adv-x="584" 
d="M32 241l110 208h168l-115 -208l115 -208h-168zM268 241l110 208h168l-115 -208l115 -208h-168z" />
    <glyph glyph-name="logicalnot" unicode="&#xac;" horiz-adv-x="502" 
d="M283 270h-240v145h406v-295h-166v150z" />
    <glyph glyph-name="uni00AD" unicode="&#xad;" horiz-adv-x="489" 
d="M71 344h347v-168h-347v168z" />
    <glyph glyph-name="registered" unicode="&#xae;" horiz-adv-x="556" 
d="M294 528c20 0 30 7.66699 30 23s-10 23 -30 23h-42v-46h42zM252 387l-84.999 0.000976562v249h140c33.333 0 58.166 -7.16699 74.499 -21.5s24.5 -33.166 24.5 -56.499c0 -19.333 -4.83301 -33.5 -14.5 -42.5s-21.167 -15.5 -34.5 -19.5c16 -4 27.333 -13 34 -27
c4 -8.66699 6.66699 -18 8 -28s3 -20.333 5 -31c2 -12 3.66699 -18.667 5 -20v-3h-87c-1.33301 3.33301 -2.5 8.66602 -3.5 15.999s-2.16699 19 -3.5 35c-1.33301 11.333 -4.5 18.666 -9.5 21.999s-12.167 5 -21.5 5h-32v-78zM278.001 314.001
c28 0 53.6689 4.66602 77.002 13.999s43.166 22.5 59.499 39.5s29.166 37.333 38.499 61s14 50.167 14 79.5c0 28.667 -4.33301 54.834 -13 78.501s-21.167 43.834 -37.5 60.501s-36.166 29.667 -59.499 39s-49.333 14 -78 14s-54.667 -4.66699 -78 -14
s-43.333 -22.333 -60 -39s-29.5 -37 -38.5 -61s-13.5 -50.333 -13.5 -79c0 -29.333 4.66699 -55.833 14 -79.5s22.333 -43.834 39 -60.501s36.667 -29.667 60 -39s48.666 -14 75.999 -14zM278.003 253c-35.333 0 -68.667 6.33203 -100 18.999s-58.5 30.334 -81.5 53.001
s-41.167 49.5 -54.5 80.5s-20 64.833 -20 101.5c0 35.333 6.66699 68.5 20 99.5s31.5 58 54.5 81s50.167 41.167 81.5 54.5s65 20 101 20s69.667 -6.5 101 -19.5s58.333 -31 81 -54s40.5 -50 53.5 -81s19.5 -64.167 19.5 -99.5c0 -36 -6.66699 -69.667 -20 -101
s-31.5 -58.333 -54.5 -81s-50 -40.5 -81 -53.5s-64.5 -19.5 -100.5 -19.5z" />
    <glyph glyph-name="macron" unicode="&#xaf;" horiz-adv-x="500" 
d="M99 721h302v-140h-302v140z" />
    <glyph glyph-name="degree" unicode="&#xb0;" horiz-adv-x="472" 
d="M236 453c19.333 0 35.167 6.83203 47.5 20.499s18.5 33.834 18.5 60.501s-6 47 -18 61s-28 21 -48 21c-19.333 0 -35.166 -6.5 -47.499 -19.5s-18.5 -33.5 -18.5 -61.5c0 -27.333 6.16699 -47.833 18.5 -61.5s28.166 -20.5 47.499 -20.5zM235.001 349.999
c-27.333 0 -52.501 4.49902 -75.501 13.499s-42.667 21.5 -59 37.5s-29.166 35 -38.499 57s-14 46 -14 72c0 27.333 4.66699 52.5 14 75.5s22.333 42.833 39 59.5s36.5 29.667 59.5 39s48.167 14 75.5 14s52.5 -4.5 75.5 -13.5s42.833 -21.667 59.5 -38
s29.667 -35.666 39 -57.999s14 -46.833 14 -73.5c0 -27.333 -4.66699 -52.333 -14 -75s-22.5 -42.167 -39.5 -58.5s-37 -29 -60 -38s-48.167 -13.5 -75.5 -13.5z" />
    <glyph glyph-name="plusminus" unicode="&#xb1;" horiz-adv-x="626" 
d="M71 148h484v-148h-484v148zM385 206h-144v153h-170v148h170v153h144v-153h170v-148h-170v-153z" />
    <glyph glyph-name="twosuperior" unicode="&#xb2;" horiz-adv-x="498" 
d="M32 264c0.666992 26.667 4.83203 50.5029 12.499 71.5029s17.5 39.5 29.5 55.5s25.833 30.167 41.5 42.5s31.5 23.5 47.5 33.5c16.667 10.667 33.667 20 51 28s32.833 15.667 46.5 23s24.834 14.833 33.501 22.5s13 16.5 13 26.5c0 12.667 -4.5 21.834 -13.5 27.501
s-24.5 8.5 -46.5 8.5c-21.333 0 -38.833 -6.33301 -52.5 -19s-24.5 -28.667 -32.5 -48l-121 49c14.667 40 39 71.833 73 95.5s80.333 35.5 139 35.5c62.667 0 112.5 -12.667 149.5 -38s55.5 -60 55.5 -104c0 -22.667 -4.33301 -41.834 -13 -57.501
s-19.834 -29.334 -33.501 -41.001s-29.167 -21.667 -46.5 -30l-52 -24.5c-27.333 -12.667 -45.666 -21.834 -54.999 -27.501s-15 -11.834 -17 -18.501h211v-111h-420z" />
    <glyph glyph-name="threesuperior" unicode="&#xb3;" horiz-adv-x="516" 
d="M252 255c-64 0 -114.334 12.501 -151.001 37.501s-59.667 58.5 -69 100.5l122 33c6 -19.333 16 -35 30 -47s33.333 -18 58 -18c51.333 0 77 14.333 77 43c0 10 -3.16699 17.833 -9.5 23.5s-15.166 9.66699 -26.499 12s-25 3.5 -41 3.5c-15.333 0 -32 -0.333008 -50 -1v99
c16.667 -0.666992 32.667 -1 48 -1s28.833 1 40.5 3s20.834 5.5 27.501 10.5s10 12.167 10 21.5c0 14.667 -6.83301 24.5 -20.5 29.5s-31.167 7.5 -52.5 7.5c-26 0 -46.333 -5.5 -61 -16.5s-25.667 -25.833 -33 -44.5l-114 42c13.333 36 37.166 65.5 71.499 88.5
s81.5 34.5 141.5 34.5c70 0 122.667 -11.667 158 -35s53 -54 53 -92c0 -24 -6.5 -42.833 -19.5 -56.5s-29.167 -24.5 -48.5 -32.5c22.667 -5.33301 41.5 -16.333 56.5 -33s22.5 -38 22.5 -64c0 -24.667 -5.33301 -46.334 -16 -65.001s-25.667 -34.167 -45 -46.5
s-42.5 -21.5 -69.5 -27.5s-56.833 -9 -89.5 -9z" />
    <glyph glyph-name="acute" unicode="&#xb4;" horiz-adv-x="500" 
d="M243 726h231l-176 -159h-132z" />
    <glyph glyph-name="mu" unicode="&#xb5;" horiz-adv-x="653" 
d="M64 517l176 0.000976562v-300c0 -30 5.5 -51.167 16.5 -63.5s29.167 -18.5 54.5 -18.5c16.667 0 31.334 2.33301 44.001 7s23.334 12.667 32.001 24s15.167 26.333 19.5 45s6.5 41.667 6.5 69v237h176v-517h-176l2 91c-14.667 -29.333 -34.334 -54.5 -59.001 -75.5
s-53.334 -31.5 -86.001 -31.5c-5.33301 0 -10.333 0.166992 -15 0.5s-9.66699 1.16602 -15 2.49902v-166h-176v696z" />
    <glyph glyph-name="paragraph" unicode="&#xb6;" horiz-adv-x="837" 
d="M355 298h-78.002c-42 0 -78.667 5.5 -110 16.5s-57.166 26.333 -77.499 46s-35.5 43 -45.5 70s-15 56.5 -15 88.5c0 35.333 5.16699 67.5 15.5 96.5s26.333 54 48 75s49.334 37.167 83.001 48.5s74.167 17 121.5 17h456v-756h-161v605h-76v-605h-161v298z" />
    <glyph glyph-name="periodcentered" unicode="&#xb7;" horiz-adv-x="399" 
d="M87 432h225v-190h-225v190z" />
    <glyph glyph-name="cedilla" unicode="&#xb8;" horiz-adv-x="500" 
d="M273 -249c-33.333 0 -61.8291 5.5 -85.4961 16.5s-41.167 27.167 -52.5 48.5l84 29c3.33301 -7.33301 8.66602 -13.333 15.999 -18s17.666 -7 30.999 -7c26.667 0 40 11.333 40 34c0 9.33301 -3 17 -9 23s-13.667 9 -23 9c-15.333 0 -26 -4.66699 -32 -14h-62v128h75v-61
c4 3.33301 9.66699 5.83301 17 7.5s14.666 2.5 21.999 2.5c32 0 58 -8.83301 78 -26.5s30 -41.5 30 -71.5c0 -34 -12.333 -59.167 -37 -75.5s-55.334 -24.5 -92.001 -24.5z" />
    <glyph glyph-name="onesuperior" unicode="&#xb9;" horiz-adv-x="325" 
d="M113 550c-9.33301 -5.33301 -21.1689 -10.667 -35.502 -16s-31.166 -8 -50.499 -8v98c10.667 2 21.334 4.83301 32.001 8.5s20.5 8.66699 29.5 15s17 14 24 23s11.833 20.167 14.5 33.5h132v-444h-146v290z" />
    <glyph glyph-name="ordmasculine" unicode="&#xba;" horiz-adv-x="523" 
d="M261 392c25.333 0 44.166 9.66699 56.499 29s18.5 44.666 18.5 75.999s-6.16699 55.833 -18.5 73.5s-31.166 26.5 -56.499 26.5c-23.333 0 -41.5 -8.5 -54.5 -25.5s-19.5 -41.833 -19.5 -74.5c0 -31.333 6 -56.666 18 -75.999s30.667 -29 56 -29zM260 274
c-33.333 0 -63.9971 4.83398 -91.9971 14.501s-52.333 23.834 -73 42.501s-36.667 41.5 -48 68.5s-17 57.833 -17 92.5c0 35.333 5.66699 67 17 95s27.333 51.667 48 71s45.167 34.166 73.5 44.499s59.166 15.5 92.499 15.5s64.166 -5.33301 92.499 -16
s52.833 -25.834 73.5 -45.501s36.834 -43 48.501 -70s17.5 -56.833 17.5 -89.5c0 -35.333 -5.83301 -66.833 -17.5 -94.5s-27.834 -51 -48.501 -70s-45.334 -33.5 -74.001 -43.5s-59.667 -15 -93 -15z" />
    <glyph glyph-name="guillemotright" unicode="&#xbb;" horiz-adv-x="584" 
d="M153 241l-115 208h168l110 -208l-110 -208h-168zM389 241l-115 208h168l110 -208l-110 -208h-168z" />
    <glyph glyph-name="onequarter" unicode="&#xbc;" horiz-adv-x="1052" 
d="M804 294c-6 -8.66699 -13.667 -18.001 -23 -28.001l-29.5 -30.5c-10.333 -10.333 -21 -20.166 -32 -29.499s-21.167 -17.333 -30.5 -24h115v112zM113 549.999c-9.33301 -5.33301 -21.1689 -10.667 -35.502 -16s-31.166 -8 -50.499 -8v98
c10.667 2 21.334 4.83301 32.001 8.5s20.5 8.66699 29.5 15s17 14 24 23s11.833 20.167 14.5 33.5h132v-444h-146v290zM581.997 703.998h146l-365 -704h-146zM1023 181.998v-105h-80v-77h-145v77h-250v116c16 10 36 25.833 60 47.5s48.167 45 72.5 70l68.5 73.5
c21.333 24 37.333 44 48 60h146v-262h80z" />
    <glyph glyph-name="onehalf" unicode="&#xbd;" horiz-adv-x="1080" 
d="M113 550c-9.33301 -5.33301 -21.1689 -10.667 -35.502 -16s-31.166 -8 -50.499 -8v98c10.667 2 21.334 4.83301 32.001 8.5s20.5 8.66699 29.5 15s17 14 24 23s11.833 20.167 14.5 33.5h132v-444h-146v290zM581.997 703.999h146l-365 -704h-146zM613.997 -0.000976562
c0.666992 26.667 5.00195 50.499 13.002 71.499s18 39.5 30 55.5s25.667 30.167 41 42.5s31 23.5 47 33.5c16.667 10.667 33.667 20 51 28s32.833 15.5 46.5 22.5s24.834 14.333 33.501 22s13 16.5 13 26.5c0 12.667 -4.5 22 -13.5 28s-24.167 9 -45.5 9
c-22 0 -39.833 -6.33301 -53.5 -19s-24.5 -28.667 -32.5 -48l-121 49c14.667 40 39 71.667 73 95s80.333 35 139 35c62.667 0 112.5 -12.667 149.5 -38s55.5 -59.666 55.5 -102.999c0 -22.667 -4.33301 -42 -13 -58s-19.834 -29.667 -33.501 -41s-29 -21.333 -46 -30
s-34.167 -17 -51.5 -25l-33.5 -16.5c-9 -4.33301 -16.333 -8 -22 -11s-9.83398 -5.83301 -12.501 -8.5s-4.33398 -5.66699 -5.00098 -9h211v-111h-420z" />
    <glyph glyph-name="threequarters" unicode="&#xbe;" horiz-adv-x="1206" 
d="M959 294c-6 -8.66699 -13.667 -18.001 -23 -28.001l-29.5 -30.5c-10.333 -10.333 -21 -20.166 -32 -29.499s-21.167 -17.333 -30.5 -24h115v112zM737 703.999h146l-366 -704h-146zM252 254.999c-64 0 -114.334 12.501 -151.001 37.501s-59.667 58.5 -69 100.5l122 33
c6 -19.333 16 -35 30 -47s33.333 -18 58 -18c51.333 0 77 14.333 77 43c0 10 -3.16699 17.833 -9.5 23.5s-15.166 9.66699 -26.499 12s-25 3.5 -41 3.5c-15.333 0 -32 -0.333008 -50 -1v99c16.667 -0.666992 32.667 -1 48 -1s28.833 1 40.5 3s20.834 5.5 27.501 10.5
s10 12.167 10 21.5c0 14.667 -6.83301 24.5 -20.5 29.5s-31.167 7.5 -52.5 7.5c-26 0 -46.333 -5.5 -61 -16.5s-25.667 -25.833 -33 -44.5l-114 42c13.333 36 37.166 65.5 71.499 88.5s81.5 34.5 141.5 34.5c70 0 122.667 -11.667 158 -35s53 -54 53 -92
c0 -24 -6.5 -42.833 -19.5 -56.5s-29.167 -24.5 -48.5 -32.5c22.667 -5.33301 41.5 -16.333 56.5 -33s22.5 -38 22.5 -64c0 -24.667 -5.33301 -46.334 -16 -65.001s-25.667 -34.167 -45 -46.5s-42.5 -21.5 -69.5 -27.5s-56.833 -9 -89.5 -9zM1177 182v-105h-80v-77h-145v77
h-250v116c16 10 36 25.833 60 47.5s48.333 45 73 70s47.667 49.5 69 73.5s37 44 47 60h146v-262h80z" />
    <glyph glyph-name="questiondown" unicode="&#xbf;" horiz-adv-x="672" 
d="M460 581h-195v175h195v-175zM451 474c0 -23.333 -3.16797 -43.168 -9.50098 -59.501s-15.5 -31 -27.5 -44s-26.333 -24.833 -43 -35.5s-35.334 -21.667 -56.001 -33l-35.5 -20c-10.333 -6 -19.333 -12.5 -27 -19.5s-13.5 -14.5 -17.5 -22.5s-6 -17.667 -6 -29
c0 -24 7.33301 -41.5 22 -52.5s38.667 -16.5 72 -16.5c80.667 0 138.667 38 174 114l161 -67c-13.333 -30 -30.166 -57.333 -50.499 -82s-44.5 -46 -72.5 -64s-60.167 -32 -96.5 -42s-76.833 -15 -121.5 -15c-101.333 0 -174.833 19.667 -220.5 59s-68.5 94.333 -68.5 165
c0 23.333 2.83301 44 8.5 62s13.5 33.833 23.5 47.5s21.5 25.834 34.5 36.501s26.833 20.334 41.5 29.001c25.333 15.333 46.333 27.333 63 36s29.834 16.167 39.501 22.5s16.5 13.166 20.5 20.499s6 17 6 29h186v-19z" />
    <glyph glyph-name="Agrave" unicode="&#xc0;" horiz-adv-x="838" 
d="M193 954h231l77 -159h-132zM410 577l-103 -290h206zM205 0h-190l286 756h234l288 -756h-207l-50 141h-311z" />
    <glyph glyph-name="Aacute" unicode="&#xc1;" horiz-adv-x="838" 
d="M407 954h231l-176 -159h-132zM410 577l-103 -290h206zM205 0h-190l286 756h234l288 -756h-207l-50 141h-311z" />
    <glyph glyph-name="Acircumflex" unicode="&#xc2;" horiz-adv-x="838" 
d="M410 577l-103 -290h206zM315 964h194l118 -169h-132l-85 71l-85 -71h-128zM205 0h-190l286 756h234l288 -756h-207l-50 141h-311z" />
    <glyph glyph-name="Atilde" unicode="&#xc3;" horiz-adv-x="838" 
d="M410 577l-103 -290h206zM490 797c-17.333 0 -32.3359 2.33398 -45.0029 7.00098s-23.667 9.66699 -33 15l-26 15c-8 4.66699 -16.333 7 -25 7c-24 0 -38.667 -13 -44 -39l-112 7c6 51.333 22 91.166 48 119.499s59 42.5 99 42.5c17.333 0 32.166 -2.33301 44.499 -7
s23 -9.66699 32 -15l25 -15c7.66699 -4.66699 15.834 -7 24.501 -7c12.667 0 21.334 3.33301 26.001 10s8.33398 16.334 11.001 29.001l122 -7c-5.33301 -50.667 -21.166 -90.334 -47.499 -119.001s-59.5 -43 -99.5 -43zM204.997 0.000976562h-190l286 756h234l288 -756
h-207l-50 141h-311z" />
    <glyph glyph-name="Adieresis" unicode="&#xc4;" horiz-adv-x="838" 
d="M229 954h161v-159h-161v159zM452 954h161v-159h-161v159zM410 577l-103 -290h206zM205 0h-190l286 756h234l288 -756h-207l-50 141h-311z" />
    <glyph glyph-name="Aring" unicode="&#xc5;" horiz-adv-x="838" 
d="M415 870c14 0 25.5 4.5 34.5 13.5s13.5 22.833 13.5 41.5s-4.5 32.667 -13.5 42s-20.5 14 -34.5 14s-25.667 -4.33301 -35 -13s-14 -22.667 -14 -42s4.5 -33.5 13.5 -42.5s20.833 -13.5 35.5 -13.5zM410 577l-103 -290h206zM414 793
c-20 0 -38.6689 3.16602 -56.002 9.49902s-32.166 15.166 -44.499 26.499s-22.166 24.833 -29.499 40.5s-11 33.167 -11 52.5c0 20 3.66699 38.333 11 55s17.333 30.834 30 42.501s27.667 20.834 45 27.501s36 10 56 10s38.5 -3.33301 55.5 -10s31.833 -16 44.5 -28
s22.667 -26 30 -42s11 -33 11 -51c0 -20 -3.66699 -38.167 -11 -54.5s-17.333 -30.333 -30 -42s-27.667 -20.667 -45 -27s-36 -9.5 -56 -9.5zM204.998 -0.000976562h-190l286 756h234l288 -756h-207l-50 141h-311z" />
    <glyph glyph-name="AE" unicode="&#xc6;" horiz-adv-x="1299" 
d="M600 277v305l-193 -305h193zM315 131l-83 -131h-221l501 756h726v-149h-442v-144h327v-149h-327v-162h460v-152h-656v131h-285z" />
    <glyph glyph-name="Ccedilla" unicode="&#xc7;" horiz-adv-x="802" 
d="M356 -12c-52 8 -97.6631 23.498 -136.996 46.498s-72.166 51.667 -98.499 86s-46.333 73.333 -60 117s-20.5 90.5 -20.5 140.5c0 56.667 9.5 108.834 28.5 156.501s45.833 89 80.5 124s76.334 62.333 125.001 82s102.334 29.5 161.001 29.5
c46 0 86.833 -4.66699 122.5 -14s67.167 -22.666 94.5 -39.999s51.166 -38 71.499 -62s38.166 -50.667 53.499 -80l-162 -98c-17.333 42 -40.166 73.167 -68.499 93.5s-64.5 30.5 -108.5 30.5c-58.667 0 -105.834 -18.333 -141.501 -55s-53.5 -92 -53.5 -166
c0 -37.333 4.83301 -70 14.5 -98s23.167 -51.5 40.5 -70.5s38 -33.333 62 -43s50.667 -14.5 80 -14.5c46 0 84 12.333 114 37s53 56 69 94l167 -99c-16 -28 -34.333 -54.333 -55 -79s-45 -46.167 -73 -64.5s-60.333 -32.833 -97 -43.5s-78.334 -16 -125.001 -16h-9v-43
c4 3.33301 9.66699 5.83301 17 7.5s14.666 2.5 21.999 2.5c32 0 58 -8.83301 78 -26.5s30 -41.5 30 -71.5c0 -34 -12.333 -59.167 -37 -75.5s-55.334 -24.5 -92.001 -24.5c-33.333 0 -61.833 5.5 -85.5 16.5s-41.167 27.167 -52.5 48.5l84 29
c3.33301 -7.33301 8.66602 -13.333 15.999 -18s17.666 -7 30.999 -7c26.667 0 40 11.333 40 34c0 9.33301 -3 17 -9 23s-13.667 9 -23 9c-15.333 0 -26 -4.66699 -32 -14h-62v116z" />
    <glyph glyph-name="Egrave" unicode="&#xc8;" horiz-adv-x="798" 
d="M187 954h231l77 -159h-132zM84 756h653v-149h-457v-144h342v-149h-342v-162h475v-152h-671v756z" />
    <glyph glyph-name="Eacute" unicode="&#xc9;" horiz-adv-x="798" 
d="M392 954h231l-176 -159h-132zM84 756h653v-149h-457v-144h342v-149h-342v-162h475v-152h-671v756z" />
    <glyph glyph-name="Ecircumflex" unicode="&#xca;" horiz-adv-x="798" 
d="M316 964h194l118 -169h-132l-85 71l-85 -71h-128zM84 756h653v-149h-457v-144h342v-149h-342v-162h475v-152h-671v756z" />
    <glyph glyph-name="Edieresis" unicode="&#xcb;" horiz-adv-x="798" 
d="M225 954h161v-159h-161v159zM448 954h161v-159h-161v159zM84 756h653v-149h-457v-144h342v-149h-342v-162h475v-152h-671v756z" />
    <glyph glyph-name="Igrave" unicode="&#xcc;" horiz-adv-x="372" 
d="M-43 954h231l77 -159h-132zM88 756h196v-756h-196v756z" />
    <glyph glyph-name="Iacute" unicode="&#xcd;" horiz-adv-x="372" 
d="M179 954h231l-176 -159h-132zM88 756h196v-756h-196v756z" />
    <glyph glyph-name="Icircumflex" unicode="&#xce;" horiz-adv-x="372" 
d="M89 964h194l118 -169h-132l-85 71l-85 -71h-128zM88 756h196v-756h-196v756z" />
    <glyph glyph-name="Idieresis" unicode="&#xcf;" horiz-adv-x="372" 
d="M-6 954h161v-159h-161v159zM217 954h161v-159h-161v159zM88 756h196v-756h-196v756z" />
    <glyph glyph-name="FL00D0h" unicode="&#xd0;" horiz-adv-x="877" 
d="M425 457l0.000976562 -167.999h-130v-128h146c58 0 104.667 17.833 140 53.5s53 90.5 53 164.5c0 37.333 -4.83301 69.666 -14.5 96.999s-23.167 49.833 -40.5 67.5s-37.833 30.667 -61.5 39s-49.834 12.5 -78.501 12.5h-144v-138h130zM28.001 289.001
l0.000976562 168.001h71v299h331c62 0 118.167 -8.33301 168.5 -25s93.166 -41 128.499 -73s62.5 -71 81.5 -117s28.5 -98.333 28.5 -157c0 -57.333 -8.83301 -109.5 -26.5 -156.5s-43.834 -87.333 -78.501 -121s-77.667 -59.834 -129 -78.501s-110.666 -28 -177.999 -28
h-326v289h-71z" />
    <glyph glyph-name="Ntilde" unicode="&#xd1;" horiz-adv-x="897" 
d="M517 797c-17.333 0 -32.3359 2.33398 -45.0029 7.00098s-23.667 9.66699 -33 15l-26 15c-8 4.66699 -16.333 7 -25 7c-24 0 -38.667 -13 -44 -39l-112 7c6 51.333 22 91.166 48 119.499s59 42.5 99 42.5c17.333 0 32.166 -2.33301 44.499 -7s23 -9.66699 32 -15l25 -15
c7.66699 -4.66699 15.834 -7 24.501 -7c12.667 0 21.334 3.33301 26.001 10s8.33398 16.334 11.001 29.001l122 -7c-5.33301 -50.667 -21.166 -90.334 -47.499 -119.001s-59.5 -43 -99.5 -43zM83.9971 756.001h248l304 -506l-7 506h184v-756h-229l-324 534l8 -534h-184v756z
" />
    <glyph glyph-name="Ograve" unicode="&#xd2;" horiz-adv-x="896" 
d="M210 954h231l77 -159h-132zM449 155c30.667 0 58.499 4.83301 83.499 14.5s46.5 24 64.5 43s31.833 42.5 41.5 70.5s14.5 60 14.5 96c0 36.667 -5 68.834 -15 96.501s-24.167 50.834 -42.5 69.501s-40.166 32.667 -65.499 42s-53 14 -83 14s-57.5 -4.66699 -82.5 -14
s-46.5 -23.333 -64.5 -42s-32 -41.834 -42 -69.501s-15 -59.834 -15 -96.501c0 -74 18.833 -129.833 56.5 -167.5s87.5 -56.5 149.5 -56.5zM442.999 -18c-61.333 0 -116.833 10 -166.5 30s-92 47.667 -127 83s-62 77.166 -81 125.499s-28.5 100.833 -28.5 157.5
s10.833 108.834 32.5 156.501s51 89 88 124s80.167 62.333 129.5 82s102 29.5 158 29.5s108.667 -9.16699 158 -27.5s92.5 -44.166 129.5 -77.499s66.333 -73.833 88 -121.5s32.5 -100.834 32.5 -159.501c0 -57.333 -10 -110.5 -30 -159.5s-48 -91.5 -84 -127.5
s-79.333 -64.167 -130 -84.5s-107 -30.5 -169 -30.5z" />
    <glyph glyph-name="Oacute" unicode="&#xd3;" horiz-adv-x="896" 
d="M453 954h231l-176 -159h-132zM449 155c30.667 0 58.499 4.83301 83.499 14.5s46.5 24 64.5 43s31.833 42.5 41.5 70.5s14.5 60 14.5 96c0 36.667 -5 68.834 -15 96.501s-24.167 50.834 -42.5 69.501s-40.166 32.667 -65.499 42s-53 14 -83 14s-57.5 -4.66699 -82.5 -14
s-46.5 -23.333 -64.5 -42s-32 -41.834 -42 -69.501s-15 -59.834 -15 -96.501c0 -74 18.833 -129.833 56.5 -167.5s87.5 -56.5 149.5 -56.5zM442.999 -18c-61.333 0 -116.833 10 -166.5 30s-92 47.667 -127 83s-62 77.166 -81 125.499s-28.5 100.833 -28.5 157.5
s10.833 108.834 32.5 156.501s51 89 88 124s80.167 62.333 129.5 82s102 29.5 158 29.5s108.667 -9.16699 158 -27.5s92.5 -44.166 129.5 -77.499s66.333 -73.833 88 -121.5s32.5 -100.834 32.5 -159.501c0 -57.333 -10 -110.5 -30 -159.5s-48 -91.5 -84 -127.5
s-79.333 -64.167 -130 -84.5s-107 -30.5 -169 -30.5z" />
    <glyph glyph-name="Ocircumflex" unicode="&#xd4;" horiz-adv-x="896" 
d="M351 964h194l118 -169h-132l-85 71l-85 -71h-128zM449 155c30.667 0 58.499 4.83301 83.499 14.5s46.5 24 64.5 43s31.833 42.5 41.5 70.5s14.5 60 14.5 96c0 36.667 -5 68.834 -15 96.501s-24.167 50.834 -42.5 69.501s-40.166 32.667 -65.499 42s-53 14 -83 14
s-57.5 -4.66699 -82.5 -14s-46.5 -23.333 -64.5 -42s-32 -41.834 -42 -69.501s-15 -59.834 -15 -96.501c0 -74 18.833 -129.833 56.5 -167.5s87.5 -56.5 149.5 -56.5zM442.999 -18c-61.333 0 -116.833 10 -166.5 30s-92 47.667 -127 83s-62 77.166 -81 125.499
s-28.5 100.833 -28.5 157.5s10.833 108.834 32.5 156.501s51 89 88 124s80.167 62.333 129.5 82s102 29.5 158 29.5s108.667 -9.16699 158 -27.5s92.5 -44.166 129.5 -77.499s66.333 -73.833 88 -121.5s32.5 -100.834 32.5 -159.501c0 -57.333 -10 -110.5 -30 -159.5
s-48 -91.5 -84 -127.5s-79.333 -64.167 -130 -84.5s-107 -30.5 -169 -30.5z" />
    <glyph glyph-name="Otilde" unicode="&#xd5;" horiz-adv-x="896" 
d="M517 797c-17.333 0 -32.3359 2.33398 -45.0029 7.00098s-23.667 9.66699 -33 15l-26 15c-8 4.66699 -16.333 7 -25 7c-24 0 -38.667 -13 -44 -39l-112 7c6 51.333 22 91.166 48 119.499s59 42.5 99 42.5c17.333 0 32.166 -2.33301 44.499 -7s23 -9.66699 32 -15l25 -15
c7.66699 -4.66699 15.834 -7 24.501 -7c12.667 0 21.334 3.33301 26.001 10s8.33398 16.334 11.001 29.001l122 -7c-5.33301 -50.667 -21.166 -90.334 -47.499 -119.001s-59.5 -43 -99.5 -43zM448.997 155.001c30.667 0 58.499 4.83301 83.499 14.5s46.5 24 64.5 43
s31.833 42.5 41.5 70.5s14.5 60 14.5 96c0 36.667 -5 68.834 -15 96.501s-24.167 50.834 -42.5 69.501s-40.166 32.667 -65.499 42s-53 14 -83 14s-57.5 -4.66699 -82.5 -14s-46.5 -23.333 -64.5 -42s-32 -41.834 -42 -69.501s-15 -59.834 -15 -96.501
c0 -74 18.833 -129.833 56.5 -167.5s87.5 -56.5 149.5 -56.5zM442.996 -17.999c-61.333 0 -116.833 10 -166.5 30s-92 47.667 -127 83s-62 77.166 -81 125.499s-28.5 100.833 -28.5 157.5s10.833 108.834 32.5 156.501s51 89 88 124s80.167 62.333 129.5 82
s102 29.5 158 29.5s108.667 -9.16699 158 -27.5s92.5 -44.166 129.5 -77.499s66.333 -73.833 88 -121.5s32.5 -100.834 32.5 -159.501c0 -57.333 -10 -110.5 -30 -159.5s-48 -91.5 -84 -127.5s-79.333 -64.167 -130 -84.5s-107 -30.5 -169 -30.5z" />
    <glyph glyph-name="Odieresis" unicode="&#xd6;" horiz-adv-x="896" 
d="M256 954h161v-159h-161v159zM479 954h161v-159h-161v159zM449 155c30.667 0 58.499 4.83301 83.499 14.5s46.5 24 64.5 43s31.833 42.5 41.5 70.5s14.5 60 14.5 96c0 36.667 -5 68.834 -15 96.501s-24.167 50.834 -42.5 69.501s-40.166 32.667 -65.499 42s-53 14 -83 14
s-57.5 -4.66699 -82.5 -14s-46.5 -23.333 -64.5 -42s-32 -41.834 -42 -69.501s-15 -59.834 -15 -96.501c0 -74 18.833 -129.833 56.5 -167.5s87.5 -56.5 149.5 -56.5zM442.999 -18c-61.333 0 -116.833 10 -166.5 30s-92 47.667 -127 83s-62 77.166 -81 125.499
s-28.5 100.833 -28.5 157.5s10.833 108.834 32.5 156.501s51 89 88 124s80.167 62.333 129.5 82s102 29.5 158 29.5s108.667 -9.16699 158 -27.5s92.5 -44.166 129.5 -77.499s66.333 -73.833 88 -121.5s32.5 -100.834 32.5 -159.501c0 -57.333 -10 -110.5 -30 -159.5
s-48 -91.5 -84 -127.5s-79.333 -64.167 -130 -84.5s-107 -30.5 -169 -30.5z" />
    <glyph glyph-name="multiply" unicode="&#xd7;" horiz-adv-x="607" 
d="M304 198l-13.5 -13l-32 -31.5l-38 -38l-32 -32l-13.5 -13.5l-96 96l128 128l-13 13.5l-31.5 32l-38 38l-32 32l-13.5 13.5l96 96l13.5 -13.5l32 -32l37.5 -38l31.5 -32l13.5 -13.5l129 129l96 -96l-13 -12.5l-30.5 -30.5l-37 -37.5l-32.5 -32l-16 -15.5l129 -129l-96 -96
z" />
    <glyph glyph-name="Oslash" unicode="&#xd8;" horiz-adv-x="896" 
d="M561 575c-32 18 -70.001 27 -114.001 27c-30 0 -57.667 -4.66699 -83 -14s-47.166 -23.333 -65.499 -42s-32.5 -42 -42.5 -70s-15 -60.333 -15 -97c0 -46 7.33301 -85.667 22 -119zM330.999 182c32.667 -18.667 72 -28 118 -28c30.667 0 58.667 5 84 15s47 24.5 65 43.5
s32 42.5 42 70.5s15 60 15 96c0 48 -8 88 -24 120zM762.999 638c29.333 -32.667 52.168 -70.1689 68.501 -112.502s24.5 -89.5 24.5 -141.5c0 -57.333 -10 -110.5 -30 -159.5s-48 -91.5 -84 -127.5s-79.333 -64.167 -130 -84.5s-107 -30.5 -169 -30.5
c-46.667 0 -89.834 5.83301 -129.501 17.5s-75.5 28.167 -107.5 49.5l-47 -49h-143l113 118c-28.667 34.667 -50.667 74 -66 118s-23 91.333 -23 142c0 56.667 10.833 108.834 32.5 156.501s51 89 88 124s80.167 62.333 129.5 82s102 29.5 158 29.5
c44 0 85.833 -5.66699 125.5 -17s76.5 -27.666 110.5 -48.999l49 52h142z" />
    <glyph glyph-name="Ugrave" unicode="&#xd9;" horiz-adv-x="881" 
d="M211 954h231l77 -159h-132zM440 -18c-118.667 0 -208.5 27.335 -269.5 82.002s-91.5 137 -91.5 247v445h196v-434c0 -30 2.5 -55.5 7.5 -76.5s13.833 -38.333 26.5 -52s29.667 -23.5 51 -29.5s48.333 -9 81 -9c32 0 58.667 3 80 9s38.333 15.833 51 29.5s21.5 31 26.5 52
s7.5 46.5 7.5 76.5v434h196v-445c0 -57.333 -8.5 -106.833 -25.5 -148.5s-41.167 -75.834 -72.5 -102.501s-69.333 -46.334 -114 -59.001s-94.667 -19 -150 -19z" />
    <glyph glyph-name="Uacute" unicode="&#xda;" horiz-adv-x="881" 
d="M433 954h231l-176 -159h-132zM440 -18c-118.667 0 -208.5 27.335 -269.5 82.002s-91.5 137 -91.5 247v445h196v-434c0 -30 2.5 -55.5 7.5 -76.5s13.833 -38.333 26.5 -52s29.667 -23.5 51 -29.5s48.333 -9 81 -9c32 0 58.667 3 80 9s38.333 15.833 51 29.5
s21.5 31 26.5 52s7.5 46.5 7.5 76.5v434h196v-445c0 -57.333 -8.5 -106.833 -25.5 -148.5s-41.167 -75.834 -72.5 -102.501s-69.333 -46.334 -114 -59.001s-94.667 -19 -150 -19z" />
    <glyph glyph-name="Ucircumflex" unicode="&#xdb;" horiz-adv-x="881" 
d="M343 964h194l118 -169h-132l-85 71l-85 -71h-128zM440 -18c-118.667 0 -208.5 27.335 -269.5 82.002s-91.5 137 -91.5 247v445h196v-434c0 -30 2.5 -55.5 7.5 -76.5s13.833 -38.333 26.5 -52s29.667 -23.5 51 -29.5s48.333 -9 81 -9c32 0 58.667 3 80 9
s38.333 15.833 51 29.5s21.5 31 26.5 52s7.5 46.5 7.5 76.5v434h196v-445c0 -57.333 -8.5 -106.833 -25.5 -148.5s-41.167 -75.834 -72.5 -102.501s-69.333 -46.334 -114 -59.001s-94.667 -19 -150 -19z" />
    <glyph glyph-name="Udieresis" unicode="&#xdc;" horiz-adv-x="881" 
d="M248 954h161v-159h-161v159zM471 954h161v-159h-161v159zM440 -18c-118.667 0 -208.5 27.335 -269.5 82.002s-91.5 137 -91.5 247v445h196v-434c0 -30 2.5 -55.5 7.5 -76.5s13.833 -38.333 26.5 -52s29.667 -23.5 51 -29.5s48.333 -9 81 -9c32 0 58.667 3 80 9
s38.333 15.833 51 29.5s21.5 31 26.5 52s7.5 46.5 7.5 76.5v434h196v-445c0 -57.333 -8.5 -106.833 -25.5 -148.5s-41.167 -75.834 -72.5 -102.501s-69.333 -46.334 -114 -59.001s-94.667 -19 -150 -19z" />
    <glyph glyph-name="Yacute" unicode="&#xdd;" horiz-adv-x="810" 
d="M410 954h231l-176 -159h-132zM15 756h223l181 -278l170 278h206l-287 -440v-316h-196v318z" />
    <glyph glyph-name="Thorn" unicode="&#xde;" horiz-adv-x="792" 
d="M478 312c37.333 0 62.5 7 75.5 21s19.5 34.333 19.5 61c0 23.333 -6.5 42 -19.5 56s-37.833 21 -74.5 21h-199v-159h198zM490 632c48.667 0 90.335 -6 125.002 -18s63 -28.833 85 -50.5s38 -47.667 48 -78s15 -63.833 15 -100.5c0 -33.333 -4.83301 -64 -14.5 -92
s-24.834 -52.167 -45.501 -72.5s-46.834 -36.333 -78.501 -48s-69.5 -17.5 -113.5 -17.5h-231v-155h-196v756h196v-124h210z" />
    <glyph glyph-name="germandbls" unicode="&#xdf;" horiz-adv-x="639" 
d="M388 -9c-18 0 -34.666 1.66309 -49.999 4.99609s-28.666 7.33301 -39.999 12v120h2l19 -5c7.33301 -2 16 -3 26 -3c29.333 0 51.333 10.333 66 31s22 54 22 100c0 52.667 -11.167 88.334 -33.5 107.001s-55.833 27.334 -100.5 26.001v117c66.667 2 100 28.333 100 79
c0 48.667 -25.667 73 -77 73c-27.333 0 -47.833 -7.83301 -61.5 -23.5s-20.5 -35.5 -20.5 -59.5v-570h-176v553c0 42 7 76.833 21 104.5s32.833 49.834 56.5 66.501s51.167 28.5 82.5 35.5s64.666 10.5 99.999 10.5c34 0 66 -3.33301 96 -10s56 -17.5 78 -32.5
s39.5 -34.333 52.5 -58s19.5 -52.167 19.5 -85.5c0 -36 -9.5 -64.833 -28.5 -86.5s-43.5 -36.834 -73.5 -45.501c18.667 -4 36.667 -11.333 54 -22s32.5 -25 45.5 -43s23.333 -39.667 31 -65s11.5 -54.666 11.5 -87.999c0 -77.333 -18.833 -137.166 -56.5 -179.499
s-92.834 -63.5 -165.501 -63.5z" />
    <glyph glyph-name="agrave" unicode="&#xe0;" horiz-adv-x="630" 
d="M248 109c13.333 0 27.667 2.33301 43 7s29.333 11.5 42 20.5s23.167 20 31.5 33s12.5 28.167 12.5 45.5c-54.667 0 -98.334 -5.5 -131.001 -16.5s-49 -28.5 -49 -52.5c0 -13.333 4.83301 -22.833 14.5 -28.5s21.834 -8.5 36.501 -8.5zM86.001 726h231l77 -159h-132z
M374.001 320c0 14 -1.00098 25.667 -3.00098 35s-6 16.833 -12 22.5s-14.333 9.66699 -25 12s-25 3.5 -43 3.5c-37.333 0 -67.333 -6.33301 -90 -19s-40.667 -27.667 -54 -45l-111 92c33.333 37.333 73.333 65 120 83s98.667 27 156 27c28 0 55.667 -2 83 -6
s51.833 -12 73.5 -24s39.167 -29 52.5 -51s20 -50.667 20 -86v-195c0 -23.333 3.33301 -38.5 10 -45.5s16.334 -10.5 29.001 -10.5c6.66699 0 11.834 0.5 15.501 1.5s7.16699 2.16699 10.5 3.5h4l-34 -114c-7.33301 -3.33301 -17.833 -6.16602 -31.5 -8.49902
s-26.5 -3.5 -38.5 -3.5s-24.5 1 -37.5 3s-25.167 5.5 -36.5 10.5s-21.666 12 -30.999 21s-16.333 20.167 -21 33.5c-21.333 -27.333 -47.166 -47 -77.499 -59s-63.5 -18 -99.5 -18c-25.333 0 -48.833 2.83301 -70.5 8.5s-40.334 14.5 -56.001 26.5
s-27.834 27.333 -36.501 46s-13 41 -13 67c0 37.333 8.83301 67.666 26.5 90.999s42 41.833 73 55.5s67.667 23.5 110 29.5s88.166 10.333 137.499 13z" />
    <glyph glyph-name="aacute" unicode="&#xe1;" horiz-adv-x="630" 
d="M248 109c13.333 0 27.667 2.33301 43 7s29.333 11.5 42 20.5s23.167 20 31.5 33s12.5 28.167 12.5 45.5c-54.667 0 -98.334 -5.5 -131.001 -16.5s-49 -28.5 -49 -52.5c0 -13.333 4.83301 -22.833 14.5 -28.5s21.834 -8.5 36.501 -8.5zM308.001 726h231l-176 -159h-132z
M374.001 320c0 14 -1.00098 25.667 -3.00098 35s-6 16.833 -12 22.5s-14.333 9.66699 -25 12s-25 3.5 -43 3.5c-37.333 0 -67.333 -6.33301 -90 -19s-40.667 -27.667 -54 -45l-111 92c33.333 37.333 73.333 65 120 83s98.667 27 156 27c28 0 55.667 -2 83 -6
s51.833 -12 73.5 -24s39.167 -29 52.5 -51s20 -50.667 20 -86v-195c0 -23.333 3.33301 -38.5 10 -45.5s16.334 -10.5 29.001 -10.5c6.66699 0 11.834 0.5 15.501 1.5s7.16699 2.16699 10.5 3.5h4l-34 -114c-7.33301 -3.33301 -17.833 -6.16602 -31.5 -8.49902
s-26.5 -3.5 -38.5 -3.5s-24.5 1 -37.5 3s-25.167 5.5 -36.5 10.5s-21.666 12 -30.999 21s-16.333 20.167 -21 33.5c-21.333 -27.333 -47.166 -47 -77.499 -59s-63.5 -18 -99.5 -18c-25.333 0 -48.833 2.83301 -70.5 8.5s-40.334 14.5 -56.001 26.5
s-27.834 27.333 -36.501 46s-13 41 -13 67c0 37.333 8.83301 67.666 26.5 90.999s42 41.833 73 55.5s67.667 23.5 110 29.5s88.166 10.333 137.499 13z" />
    <glyph glyph-name="acircumflex" unicode="&#xe2;" horiz-adv-x="630" 
d="M248 109c13.333 0 27.667 2.33301 43 7s29.333 11.5 42 20.5s23.167 20 31.5 33s12.5 28.167 12.5 45.5c-54.667 0 -98.334 -5.5 -131.001 -16.5s-49 -28.5 -49 -52.5c0 -13.333 4.83301 -22.833 14.5 -28.5s21.834 -8.5 36.501 -8.5zM205.001 736h194l118 -169h-132
l-85 71l-85 -71h-128zM374.001 320c0 14 -1.00098 25.667 -3.00098 35s-6 16.833 -12 22.5s-14.333 9.66699 -25 12s-25 3.5 -43 3.5c-37.333 0 -67.333 -6.33301 -90 -19s-40.667 -27.667 -54 -45l-111 92c33.333 37.333 73.333 65 120 83s98.667 27 156 27
c28 0 55.667 -2 83 -6s51.833 -12 73.5 -24s39.167 -29 52.5 -51s20 -50.667 20 -86v-195c0 -23.333 3.33301 -38.5 10 -45.5s16.334 -10.5 29.001 -10.5c6.66699 0 11.834 0.5 15.501 1.5s7.16699 2.16699 10.5 3.5h4l-34 -114
c-7.33301 -3.33301 -17.833 -6.16602 -31.5 -8.49902s-26.5 -3.5 -38.5 -3.5s-24.5 1 -37.5 3s-25.167 5.5 -36.5 10.5s-21.666 12 -30.999 21s-16.333 20.167 -21 33.5c-21.333 -27.333 -47.166 -47 -77.499 -59s-63.5 -18 -99.5 -18c-25.333 0 -48.833 2.83301 -70.5 8.5
s-40.334 14.5 -56.001 26.5s-27.834 27.333 -36.501 46s-13 41 -13 67c0 37.333 8.83301 67.666 26.5 90.999s42 41.833 73 55.5s67.667 23.5 110 29.5s88.166 10.333 137.499 13z" />
    <glyph glyph-name="atilde" unicode="&#xe3;" horiz-adv-x="630" 
d="M248 109c13.333 0 27.667 2.33301 43 7s29.333 11.5 42 20.5s23.167 20 31.5 33s12.5 28.167 12.5 45.5c-54.667 0 -98.334 -5.5 -131.001 -16.5s-49 -28.5 -49 -52.5c0 -13.333 4.83301 -22.833 14.5 -28.5s21.834 -8.5 36.501 -8.5zM376.001 569
c-17.333 0 -32.3359 2.33398 -45.0029 7.00098s-23.667 9.66699 -33 15l-26 15c-8 4.66699 -16.333 7 -25 7c-24 0 -38.667 -13 -44 -39l-112 7c6 51.333 22 91.166 48 119.499s59 42.5 99 42.5c17.333 0 32.166 -2.33301 44.499 -7s23 -9.66699 32 -15l25 -15
c7.66699 -4.66699 15.834 -7 24.501 -7c12.667 0 21.334 3.33301 26.001 10s8.33398 16.334 11.001 29.001l122 -7c-5.33301 -50.667 -21.166 -90.334 -47.499 -119.001s-59.5 -43 -99.5 -43zM373.998 320.001c0 14 -1.00098 25.667 -3.00098 35s-6 16.833 -12 22.5
s-14.333 9.66699 -25 12s-25 3.5 -43 3.5c-37.333 0 -67.333 -6.33301 -90 -19s-40.667 -27.667 -54 -45l-111 92c33.333 37.333 73.333 65 120 83s98.667 27 156 27c28 0 55.667 -2 83 -6s51.833 -12 73.5 -24s39.167 -29 52.5 -51s20 -50.667 20 -86v-195
c0 -23.333 3.33301 -38.5 10 -45.5s16.334 -10.5 29.001 -10.5c6.66699 0 11.834 0.5 15.501 1.5s7.16699 2.16699 10.5 3.5h4l-34 -114c-7.33301 -3.33301 -17.833 -6.16602 -31.5 -8.49902s-26.5 -3.5 -38.5 -3.5s-24.5 1 -37.5 3s-25.167 5.5 -36.5 10.5
s-21.666 12 -30.999 21s-16.333 20.167 -21 33.5c-21.333 -27.333 -47.166 -47 -77.499 -59s-63.5 -18 -99.5 -18c-25.333 0 -48.833 2.83301 -70.5 8.5s-40.334 14.5 -56.001 26.5s-27.834 27.333 -36.501 46s-13 41 -13 67c0 37.333 8.83301 67.666 26.5 90.999
s42 41.833 73 55.5s67.667 23.5 110 29.5s88.166 10.333 137.499 13z" />
    <glyph glyph-name="adieresis" unicode="&#xe4;" horiz-adv-x="630" 
d="M248 109c13.333 0 27.667 2.33301 43 7s29.333 11.5 42 20.5s23.167 20 31.5 33s12.5 28.167 12.5 45.5c-54.667 0 -98.334 -5.5 -131.001 -16.5s-49 -28.5 -49 -52.5c0 -13.333 4.83301 -22.833 14.5 -28.5s21.834 -8.5 36.501 -8.5zM334.001 726h161v-159h-161v159z
M111.001 726h161v-159h-161v159zM374.001 320c0 14 -1.00098 25.667 -3.00098 35s-6 16.833 -12 22.5s-14.333 9.66699 -25 12s-25 3.5 -43 3.5c-37.333 0 -67.333 -6.33301 -90 -19s-40.667 -27.667 -54 -45l-111 92c33.333 37.333 73.333 65 120 83s98.667 27 156 27
c28 0 55.667 -2 83 -6s51.833 -12 73.5 -24s39.167 -29 52.5 -51s20 -50.667 20 -86v-195c0 -23.333 3.33301 -38.5 10 -45.5s16.334 -10.5 29.001 -10.5c6.66699 0 11.834 0.5 15.501 1.5s7.16699 2.16699 10.5 3.5h4l-34 -114
c-7.33301 -3.33301 -17.833 -6.16602 -31.5 -8.49902s-26.5 -3.5 -38.5 -3.5s-24.5 1 -37.5 3s-25.167 5.5 -36.5 10.5s-21.666 12 -30.999 21s-16.333 20.167 -21 33.5c-21.333 -27.333 -47.166 -47 -77.499 -59s-63.5 -18 -99.5 -18c-25.333 0 -48.833 2.83301 -70.5 8.5
s-40.334 14.5 -56.001 26.5s-27.834 27.333 -36.501 46s-13 41 -13 67c0 37.333 8.83301 67.666 26.5 90.999s42 41.833 73 55.5s67.667 23.5 110 29.5s88.166 10.333 137.499 13z" />
    <glyph glyph-name="aring" unicode="&#xe5;" horiz-adv-x="630" 
d="M308 642c14 0 25.5 4.5 34.5 13.5s13.5 22.833 13.5 41.5s-4.5 32.667 -13.5 42s-20.5 14 -34.5 14s-25.667 -4.33301 -35 -13s-14 -22.667 -14 -42s4.5 -33.5 13.5 -42.5s20.833 -13.5 35.5 -13.5zM248 109c13.333 0 27.667 2.33301 43 7s29.333 11.5 42 20.5
s23.167 20 31.5 33s12.5 28.167 12.5 45.5c-54.667 0 -98.334 -5.5 -131.001 -16.5s-49 -28.5 -49 -52.5c0 -13.333 4.83301 -22.833 14.5 -28.5s21.834 -8.5 36.501 -8.5zM307.001 565c-20 0 -38.6689 3.16602 -56.002 9.49902s-32.166 15.166 -44.499 26.499
s-22.166 24.833 -29.499 40.5s-11 33.167 -11 52.5c0 20 3.66699 38.333 11 55s17.333 30.834 30 42.501s27.667 20.834 45 27.501s36 10 56 10s38.5 -3.33301 55.5 -10s31.833 -16 44.5 -28s22.667 -26 30 -42s11 -33 11 -51c0 -20 -3.66699 -38.167 -11 -54.5
s-17.333 -30.333 -30 -42s-27.667 -20.667 -45 -27s-36 -9.5 -56 -9.5zM373.999 319.999c0 14 -1.00098 25.667 -3.00098 35s-6 16.833 -12 22.5s-14.333 9.66699 -25 12s-25 3.5 -43 3.5c-37.333 0 -67.333 -6.33301 -90 -19s-40.667 -27.667 -54 -45l-111 92
c33.333 37.333 73.333 65 120 83s98.667 27 156 27c28 0 55.667 -2 83 -6s51.833 -12 73.5 -24s39.167 -29 52.5 -51s20 -50.667 20 -86v-195c0 -23.333 3.33301 -38.5 10 -45.5s16.334 -10.5 29.001 -10.5c6.66699 0 11.834 0.5 15.501 1.5s7.16699 2.16699 10.5 3.5h4
l-34 -114c-7.33301 -3.33301 -17.833 -6.16602 -31.5 -8.49902s-26.5 -3.5 -38.5 -3.5s-24.5 1 -37.5 3s-25.167 5.5 -36.5 10.5s-21.666 12 -30.999 21s-16.333 20.167 -21 33.5c-21.333 -27.333 -47.166 -47 -77.499 -59s-63.5 -18 -99.5 -18
c-25.333 0 -48.833 2.83301 -70.5 8.5s-40.334 14.5 -56.001 26.5s-27.834 27.333 -36.501 46s-13 41 -13 67c0 37.333 8.83301 67.666 26.5 90.999s42 41.833 73 55.5s67.667 23.5 110 29.5s88.166 10.333 137.499 13z" />
    <glyph glyph-name="ae" unicode="&#xe6;" horiz-adv-x="950" 
d="M752 317c-4 24.667 -14.168 43.667 -30.501 57s-40.166 20 -71.499 20c-28 0 -51 -5.33301 -69 -16s-30.333 -31 -37 -61h208zM247.999 109c13.333 0 27.667 2.33301 43 7s29.333 11.5 42 20.5s23.167 20 31.5 33s12.5 28.167 12.5 45.5
c-54.667 0 -98.334 -5.5 -131.001 -16.5s-49 -28.5 -49 -52.5c0 -13.333 4.83301 -22.833 14.5 -28.5s21.834 -8.5 36.501 -8.5zM374 320c0 14 -0.99707 25.668 -2.99707 35.001s-6 16.833 -12 22.5s-14.333 9.66699 -25 12s-25 3.5 -43 3.5
c-37.333 0 -67.333 -6.33301 -90 -19s-40.667 -27.667 -54 -45l-111 92c33.333 37.333 73.333 65 120 83s98.667 27 156 27c35.333 0 67.5 -4.16699 96.5 -12.5s52.833 -23.833 71.5 -46.5c21.333 18.667 46 33.167 74 43.5s60 15.5 96 15.5c32 0 65 -5.16699 99 -15.5
s64.5 -27.666 91.5 -51.999s48.167 -56.666 63.5 -96.999s20.666 -90.5 15.999 -150.5h-377c5.33301 -32 17.5 -56 36.5 -72s42.833 -24 71.5 -24c27.333 0 51 4.16699 71 12.5s36 25.166 48 50.499l149 -47c-24 -52 -58.667 -90.667 -104 -116s-99.333 -38 -162 -38
c-50 0 -93.5 9.16699 -130.5 27.5s-66.167 44.833 -87.5 79.5c-17.333 -23.333 -35.666 -41.833 -54.999 -55.5s-38.833 -24.334 -58.5 -32.001s-39.5 -12.667 -59.5 -15s-39.667 -3.5 -59 -3.5c-25.333 0 -48.833 2.83301 -70.5 8.5s-40.334 14.5 -56.001 26.5
s-27.834 27.333 -36.501 46s-13 41 -13 67c0 37.333 8.83301 67.666 26.5 90.999s42 41.833 73 55.5s67.667 23.5 110 29.5s88.166 10.333 137.499 13z" />
    <glyph glyph-name="ccedilla" unicode="&#xe7;" horiz-adv-x="576" 
d="M231 -11c-30 6 -57.4951 16.3301 -82.4951 30.9971s-46.667 33.167 -65 55.5s-32.5 48.333 -42.5 78s-15 62.5 -15 98.5c0 43.333 6.83301 82.333 20.5 117s32.5 64 56.5 88s52.5 42.333 85.5 55s69.167 19 108.5 19c65.333 0 118.166 -13.667 158.499 -41
s71.166 -67 92.499 -119l-142 -70c-8.66699 24.667 -21 45.334 -37 62.001s-38 25 -66 25c-32 0 -56.5 -10.5 -73.5 -31.5s-25.5 -53.833 -25.5 -98.5c0 -44 8.33301 -78 25 -102s41.667 -36 75 -36c27.333 0 49.333 8.33301 66 25s28.667 39.667 36 69l149 -65
c-20 -53.333 -50.667 -94.166 -92 -122.499s-93.666 -43.166 -156.999 -44.499v-43c4 3.33301 9.66699 5.83301 17 7.5s14.666 2.5 21.999 2.5c32 0 58 -8.83301 78 -26.5s30 -41.5 30 -71.5c0 -34 -12.333 -59.167 -37 -75.5s-55.334 -24.5 -92.001 -24.5
c-33.333 0 -61.833 5.5 -85.5 16.5s-41.167 27.167 -52.5 48.5l84 29c3.33301 -7.33301 8.66602 -13.333 15.999 -18s17.666 -7 30.999 -7c26.667 0 40 11.333 40 34c0 9.33301 -3 17 -9 23s-13.667 9 -23 9c-15.333 0 -26 -4.66699 -32 -14h-62v117z" />
    <glyph glyph-name="egrave" unicode="&#xe8;" horiz-adv-x="606" 
d="M408 317c-4 24.667 -14.168 43.667 -30.501 57s-40.166 20 -71.499 20c-28 0 -51 -5.33301 -69 -16s-30.333 -31 -37 -61h208zM70.999 726h231l77 -159h-132zM198.999 216c5.33301 -32 17.502 -56.002 36.502 -72.002s42.833 -24 71.5 -24c27.333 0 51 4.16699 71 12.5
s36 25.166 48 50.499l149 -47c-24 -52 -58.667 -90.667 -104 -116s-99.333 -38 -162 -38c-40.667 0 -78 6 -112 18s-63.5 29.5 -88.5 52.5s-44.5 51.333 -58.5 85s-21 71.834 -21 114.501c0 43.333 6.66699 82.333 20 117s32.166 64 56.499 88s53.5 42.333 87.5 55
s71.667 19 113 19c32 0 65 -5.16699 99 -15.5s64.5 -27.666 91.5 -51.999s48.167 -56.666 63.5 -96.999s20.666 -90.5 15.999 -150.5h-377z" />
    <glyph glyph-name="eacute" unicode="&#xe9;" horiz-adv-x="606" 
d="M408 317c-4 24.667 -14.168 43.667 -30.501 57s-40.166 20 -71.499 20c-28 0 -51 -5.33301 -69 -16s-30.333 -31 -37 -61h208zM304.999 726h231l-176 -159h-132zM198.999 216c5.33301 -32 17.502 -56.002 36.502 -72.002s42.833 -24 71.5 -24
c27.333 0 51 4.16699 71 12.5s36 25.166 48 50.499l149 -47c-24 -52 -58.667 -90.667 -104 -116s-99.333 -38 -162 -38c-40.667 0 -78 6 -112 18s-63.5 29.5 -88.5 52.5s-44.5 51.333 -58.5 85s-21 71.834 -21 114.501c0 43.333 6.66699 82.333 20 117s32.166 64 56.499 88
s53.5 42.333 87.5 55s71.667 19 113 19c32 0 65 -5.16699 99 -15.5s64.5 -27.666 91.5 -51.999s48.167 -56.666 63.5 -96.999s20.666 -90.5 15.999 -150.5h-377z" />
    <glyph glyph-name="ecircumflex" unicode="&#xea;" horiz-adv-x="606" 
d="M408 317c-4 24.667 -14.168 43.667 -30.501 57s-40.166 20 -71.499 20c-28 0 -51 -5.33301 -69 -16s-30.333 -31 -37 -61h208zM206.999 736h194l118 -169h-132l-85 71l-85 -71h-128zM198.999 216c5.33301 -32 17.502 -56.002 36.502 -72.002s42.833 -24 71.5 -24
c27.333 0 51 4.16699 71 12.5s36 25.166 48 50.499l149 -47c-24 -52 -58.667 -90.667 -104 -116s-99.333 -38 -162 -38c-40.667 0 -78 6 -112 18s-63.5 29.5 -88.5 52.5s-44.5 51.333 -58.5 85s-21 71.834 -21 114.501c0 43.333 6.66699 82.333 20 117s32.166 64 56.499 88
s53.5 42.333 87.5 55s71.667 19 113 19c32 0 65 -5.16699 99 -15.5s64.5 -27.666 91.5 -51.999s48.167 -56.666 63.5 -96.999s20.666 -90.5 15.999 -150.5h-377z" />
    <glyph glyph-name="edieresis" unicode="&#xeb;" horiz-adv-x="606" 
d="M408 317c-4 24.667 -14.168 43.667 -30.501 57s-40.166 20 -71.499 20c-28 0 -51 -5.33301 -69 -16s-30.333 -31 -37 -61h208zM330.999 726h161v-159h-161v159zM107.999 726h161v-159h-161v159zM198.999 216c5.33301 -32 17.502 -56.002 36.502 -72.002
s42.833 -24 71.5 -24c27.333 0 51 4.16699 71 12.5s36 25.166 48 50.499l149 -47c-24 -52 -58.667 -90.667 -104 -116s-99.333 -38 -162 -38c-40.667 0 -78 6 -112 18s-63.5 29.5 -88.5 52.5s-44.5 51.333 -58.5 85s-21 71.834 -21 114.501c0 43.333 6.66699 82.333 20 117
s32.166 64 56.499 88s53.5 42.333 87.5 55s71.667 19 113 19c32 0 65 -5.16699 99 -15.5s64.5 -27.666 91.5 -51.999s48.167 -56.666 63.5 -96.999s20.666 -90.5 15.999 -150.5h-377z" />
    <glyph glyph-name="igrave" unicode="&#xec;" horiz-adv-x="314" 
d="M-84 726h231l77 -159h-132zM69 517h176v-517h-176v517z" />
    <glyph glyph-name="iacute" unicode="&#xed;" horiz-adv-x="314" 
d="M162 726h231l-176 -159h-132zM69 517h176v-517h-176v517z" />
    <glyph glyph-name="icircumflex" unicode="&#xee;" horiz-adv-x="314" 
d="M60 736h194l118 -169h-132l-85 71l-85 -71h-128zM69 517h176v-517h-176v517z" />
    <glyph glyph-name="idieresis" unicode="&#xef;" horiz-adv-x="314" 
d="M-35 726h161v-159h-161v159zM188 726h161v-159h-161v159zM69 517h176v-517h-176v517z" />
    <glyph glyph-name="eth" unicode="&#xf0;" horiz-adv-x="608" 
d="M305 120c32.667 0 57.5 11.666 74.5 34.999s25.5 54 25.5 92s-8.33301 67.667 -25 89s-41.667 32 -75 32c-32 0 -56.833 -10.167 -74.5 -30.5s-26.5 -50.166 -26.5 -89.499c0 -38 8.5 -68.833 25.5 -92.5s42.167 -35.5 75.5 -35.5zM250 525.999l-55.002 67.002l49 41
c-10 9.33301 -19.833 17.666 -29.5 24.999l-28.5 21l83 107c30.667 -18 59.667 -37 87 -57l59 50l55 -67l-48 -41c54 -55.333 94.167 -116.333 120.5 -183s39.5 -136.334 39.5 -209.001c0 -47.333 -7 -89.5 -21 -126.5s-33.333 -68.167 -58 -93.5s-54 -44.666 -88 -57.999
s-71 -20 -111 -20s-77 6.66699 -111 20s-63.333 31.666 -88 54.999s-44 51 -58 83s-21 66.667 -21 104c0 43.333 7.33301 81.5 22 114.5s33.834 60.833 57.501 83.5s50.834 39.667 81.501 51s62 17 94 17c34.667 0 61.667 -9.33301 81 -28
c-7.33301 17.333 -15.833 33.5 -25.5 48.5s-20.167 29.167 -31.5 42.5z" />
    <glyph glyph-name="ntilde" unicode="&#xf1;" 
d="M393 569c-17.333 0 -32.3359 2.33398 -45.0029 7.00098s-23.667 9.66699 -33 15l-26 15c-8 4.66699 -16.333 7 -25 7c-24 0 -38.667 -13 -44 -39l-112 7c6 51.333 22 91.166 48 119.499s59 42.5 99 42.5c17.333 0 32.166 -2.33301 44.499 -7s23 -9.66699 32 -15l25 -15
c7.66699 -4.66699 15.834 -7 24.501 -7c12.667 0 21.334 3.33301 26.001 10s8.33398 16.334 11.001 29.001l122 -7c-5.33301 -50.667 -21.166 -90.334 -47.499 -119.001s-59.5 -43 -99.5 -43zM63.9971 517.001l175.999 -0.000976562l-2 -91
c17.333 30.667 40.666 55.834 69.999 75.501s67 29.5 113 29.5c24.667 0 47.334 -3.33301 68.001 -10s38.5 -17 53.5 -31s26.5 -32 34.5 -54s12 -48.667 12 -80v-356h-176v295c0 26 -5.16699 47 -15.5 63s-28.833 24 -55.5 24c-33.333 0 -58.666 -10.5 -75.999 -31.5
s-26 -58.833 -26 -113.5v-237h-176v517z" />
    <glyph glyph-name="ograve" unicode="&#xf2;" horiz-adv-x="612" 
d="M66 726h231l77 -159h-132zM307 120c32.667 0 57.5 12 74.5 36s25.5 57.667 25.5 101c0 87.333 -33.333 131 -100 131c-32 0 -56.833 -10.5 -74.5 -31.5s-26.5 -53.833 -26.5 -98.5c0 -44 8.5 -78 25.5 -102s42.167 -36 75.5 -36zM306 -18c-40 0 -77 5.99902 -111 17.999
s-63.333 29.5 -88 52.5s-43.834 51.333 -57.501 85s-20.5 71.834 -20.5 114.501c0 43.333 6.83301 82.333 20.5 117s32.834 64 57.501 88s54 42.333 88 55s71.333 19 112 19s77.834 -6.66699 111.501 -20s62.667 -32 87 -56s43.333 -52.667 57 -86s20.5 -70.333 20.5 -111
c0 -44 -6.83301 -83 -20.5 -117s-32.834 -62.833 -57.501 -86.5s-54 -41.667 -88 -54s-71 -18.5 -111 -18.5z" />
    <glyph glyph-name="oacute" unicode="&#xf3;" horiz-adv-x="612" 
d="M309 726h231l-176 -159h-132zM307 120c32.667 0 57.5 12 74.5 36s25.5 57.667 25.5 101c0 87.333 -33.333 131 -100 131c-32 0 -56.833 -10.5 -74.5 -31.5s-26.5 -53.833 -26.5 -98.5c0 -44 8.5 -78 25.5 -102s42.167 -36 75.5 -36zM306 -18
c-40 0 -77 5.99902 -111 17.999s-63.333 29.5 -88 52.5s-43.834 51.333 -57.501 85s-20.5 71.834 -20.5 114.501c0 43.333 6.83301 82.333 20.5 117s32.834 64 57.501 88s54 42.333 88 55s71.333 19 112 19s77.834 -6.66699 111.501 -20s62.667 -32 87 -56
s43.333 -52.667 57 -86s20.5 -70.333 20.5 -111c0 -44 -6.83301 -83 -20.5 -117s-32.834 -62.833 -57.501 -86.5s-54 -41.667 -88 -54s-71 -18.5 -111 -18.5z" />
    <glyph glyph-name="ocircumflex" unicode="&#xf4;" horiz-adv-x="612" 
d="M307 120c32.667 0 57.5 12 74.5 36s25.5 57.667 25.5 101c0 87.333 -33.333 131 -100 131c-32 0 -56.833 -10.5 -74.5 -31.5s-26.5 -53.833 -26.5 -98.5c0 -44 8.5 -78 25.5 -102s42.167 -36 75.5 -36zM207 736h194l118 -169h-132l-85 71l-85 -71h-128zM306 -18
c-40 0 -77 5.99902 -111 17.999s-63.333 29.5 -88 52.5s-43.834 51.333 -57.501 85s-20.5 71.834 -20.5 114.501c0 43.333 6.83301 82.333 20.5 117s32.834 64 57.501 88s54 42.333 88 55s71.333 19 112 19s77.834 -6.66699 111.501 -20s62.667 -32 87 -56
s43.333 -52.667 57 -86s20.5 -70.333 20.5 -111c0 -44 -6.83301 -83 -20.5 -117s-32.834 -62.833 -57.501 -86.5s-54 -41.667 -88 -54s-71 -18.5 -111 -18.5z" />
    <glyph glyph-name="otilde" unicode="&#xf5;" horiz-adv-x="612" 
d="M307 120c32.667 0 57.5 12 74.5 36s25.5 57.667 25.5 101c0 87.333 -33.333 131 -100 131c-32 0 -56.833 -10.5 -74.5 -31.5s-26.5 -53.833 -26.5 -98.5c0 -44 8.5 -78 25.5 -102s42.167 -36 75.5 -36zM373 569c-17.333 0 -32.3359 2.33398 -45.0029 7.00098
s-23.667 9.66699 -33 15l-26 15c-8 4.66699 -16.333 7 -25 7c-24 0 -38.667 -13 -44 -39l-112 7c6 51.333 22 91.166 48 119.499s59 42.5 99 42.5c17.333 0 32.166 -2.33301 44.499 -7s23 -9.66699 32 -15l25 -15c7.66699 -4.66699 15.834 -7 24.501 -7
c12.667 0 21.334 3.33301 26.001 10s8.33398 16.334 11.001 29.001l122 -7c-5.33301 -50.667 -21.166 -90.334 -47.499 -119.001s-59.5 -43 -99.5 -43zM305.997 -17.999c-40 0 -77 5.99902 -111 17.999s-63.333 29.5 -88 52.5s-43.834 51.333 -57.501 85
s-20.5 71.834 -20.5 114.501c0 43.333 6.83301 82.333 20.5 117s32.834 64 57.501 88s54 42.333 88 55s71.333 19 112 19s77.834 -6.66699 111.501 -20s62.667 -32 87 -56s43.333 -52.667 57 -86s20.5 -70.333 20.5 -111c0 -44 -6.83301 -83 -20.5 -117
s-32.834 -62.833 -57.501 -86.5s-54 -41.667 -88 -54s-71 -18.5 -111 -18.5z" />
    <glyph glyph-name="odieresis" unicode="&#xf6;" horiz-adv-x="612" 
d="M112 726h161v-159h-161v159zM335 726h161v-159h-161v159zM307 120c32.667 0 57.5 12 74.5 36s25.5 57.667 25.5 101c0 87.333 -33.333 131 -100 131c-32 0 -56.833 -10.5 -74.5 -31.5s-26.5 -53.833 -26.5 -98.5c0 -44 8.5 -78 25.5 -102s42.167 -36 75.5 -36zM306 -18
c-40 0 -77 5.99902 -111 17.999s-63.333 29.5 -88 52.5s-43.834 51.333 -57.501 85s-20.5 71.834 -20.5 114.501c0 43.333 6.83301 82.333 20.5 117s32.834 64 57.501 88s54 42.333 88 55s71.333 19 112 19s77.834 -6.66699 111.501 -20s62.667 -32 87 -56
s43.333 -52.667 57 -86s20.5 -70.333 20.5 -111c0 -44 -6.83301 -83 -20.5 -117s-32.834 -62.833 -57.501 -86.5s-54 -41.667 -88 -54s-71 -18.5 -111 -18.5z" />
    <glyph glyph-name="divide" unicode="&#xf7;" horiz-adv-x="656" 
d="M238 175h185v-175h-185v175zM238 658h185v-175h-185v175zM71 403h514v-148h-514v148z" />
    <glyph glyph-name="oslash" unicode="&#xf8;" horiz-adv-x="612" 
d="M364 376c-15.333 9.33301 -34 14.001 -56 14.001c-32 0 -57.333 -10.833 -76 -32.5s-28 -54.834 -28 -99.501c0 -16 1 -31 3 -45zM246 137.001c16.667 -12.667 37.333 -19 62 -19c32.667 0 58 12.333 76 37s27 58.667 27 102c0 18 -1.33301 33.333 -4 46z
M529.999 430.001c17.333 -23.333 30.833 -49.333 40.5 -78s14.5 -60 14.5 -94c0 -44 -7 -83 -21 -117s-33.333 -62.833 -58 -86.5s-54 -41.667 -88 -54s-71 -18.5 -111 -18.5c-64 0 -119.667 15 -167 45l-26 -27h-113l80 82c-16.667 22 -29.5 47.167 -38.5 75.5
s-13.5 59.833 -13.5 94.5c0 43.333 7 82.333 21 117s33.333 64 58 88s54 42.333 88 55s71.333 19 112 19c63.333 0 117.333 -15.333 162 -46l31 32h113z" />
    <glyph glyph-name="ugrave" unicode="&#xf9;" 
d="M95 726h231l77 -159h-132zM228 -14c-25.333 0 -48.1699 3.33398 -68.5029 10.001s-38 17 -53 31s-26.5 32 -34.5 54s-12 48.667 -12 80v356h176v-295c0 -26 5.16699 -47 15.5 -63s28.833 -24 55.5 -24c16.667 0 31.334 2.33301 44.001 7s23.334 12.667 32.001 24
s15.167 26.333 19.5 45s6.5 41.667 6.5 69v237h176v-517h-176l2 91c-17.333 -30.667 -40.666 -55.834 -69.999 -75.501s-67 -29.5 -113 -29.5z" />
    <glyph glyph-name="uacute" unicode="&#xfa;" 
d="M317 726h231l-176 -159h-132zM228 -14c-25.333 0 -48.1699 3.33398 -68.5029 10.001s-38 17 -53 31s-26.5 32 -34.5 54s-12 48.667 -12 80v356h176v-295c0 -26 5.16699 -47 15.5 -63s28.833 -24 55.5 -24c16.667 0 31.334 2.33301 44.001 7s23.334 12.667 32.001 24
s15.167 26.333 19.5 45s6.5 41.667 6.5 69v237h176v-517h-176l2 91c-17.333 -30.667 -40.666 -55.834 -69.999 -75.501s-67 -29.5 -113 -29.5z" />
    <glyph glyph-name="ucircumflex" unicode="&#xfb;" 
d="M227 736h194l118 -169h-132l-85 71l-85 -71h-128zM228 -14c-25.333 0 -48.1699 3.33398 -68.5029 10.001s-38 17 -53 31s-26.5 32 -34.5 54s-12 48.667 -12 80v356h176v-295c0 -26 5.16699 -47 15.5 -63s28.833 -24 55.5 -24c16.667 0 31.334 2.33301 44.001 7
s23.334 12.667 32.001 24s15.167 26.333 19.5 45s6.5 41.667 6.5 69v237h176v-517h-176l2 91c-17.333 -30.667 -40.666 -55.834 -69.999 -75.501s-67 -29.5 -113 -29.5z" />
    <glyph glyph-name="udieresis" unicode="&#xfc;" 
d="M132 726h161v-159h-161v159zM355 726h161v-159h-161v159zM228 -14c-25.333 0 -48.1699 3.33398 -68.5029 10.001s-38 17 -53 31s-26.5 32 -34.5 54s-12 48.667 -12 80v356h176v-295c0 -26 5.16699 -47 15.5 -63s28.833 -24 55.5 -24c16.667 0 31.334 2.33301 44.001 7
s23.334 12.667 32.001 24s15.167 26.333 19.5 45s6.5 41.667 6.5 69v237h176v-517h-176l2 91c-17.333 -30.667 -40.666 -55.834 -69.999 -75.501s-67 -29.5 -113 -29.5z" />
    <glyph glyph-name="yacute" unicode="&#xfd;" horiz-adv-x="598" 
d="M303 726h231l-176 -159h-132zM12 517l189.002 0.000976562l105 -299l108 299h172l-199 -491c-9.33301 -23.333 -18.333 -44.333 -27 -63s-17.5 -35.334 -26.5 -50.001s-18.333 -27.5 -28 -38.5s-19.834 -20.5 -30.501 -28.5c-30.667 -22.667 -70 -34 -118 -34
c-20 0 -37.833 2 -53.5 6s-28.834 9.66699 -39.501 17v143h6c5.33301 -6 13.333 -11.167 24 -15.5s23.667 -6.5 39 -6.5c24 0 42 4.16699 54 12.5s21.333 21.5 28 39.5z" />
    <glyph glyph-name="thorn" unicode="&#xfe;" horiz-adv-x="647" 
d="M338 132c66 0 99 43 99 129c0 85.333 -33 128 -99 128c-30 0 -54.333 -12 -73 -36s-28 -55 -28 -93s9.33301 -68.833 28 -92.5s43 -35.5 73 -35.5zM64 756l176 -0.000976562v-312c7.33301 12 15.666 23.333 24.999 34s20.333 19.834 33 27.501s27 13.834 43 18.501
s34.667 7 56 7c68 0 121.167 -23.167 159.5 -69.5s57.5 -112.833 57.5 -199.5s-18 -154.334 -54 -203.001s-86.333 -73 -151 -73c-40.667 0 -74.667 7 -102 21s-49.666 35 -66.999 63v-249h-176v935z" />
    <glyph glyph-name="ydieresis" unicode="&#xff;" horiz-adv-x="598" 
d="M115 726h161v-159h-161v159zM338 726h161v-159h-161v159zM12 517l189.002 0.000976562l105 -299l108 299h172l-199 -491c-9.33301 -23.333 -18.333 -44.333 -27 -63s-17.5 -35.334 -26.5 -50.001s-18.333 -27.5 -28 -38.5s-19.834 -20.5 -30.501 -28.5
c-30.667 -22.667 -70 -34 -118 -34c-20 0 -37.833 2 -53.5 6s-28.834 9.66699 -39.501 17v143h6c5.33301 -6 13.333 -11.167 24 -15.5s23.667 -6.5 39 -6.5c24 0 42 4.16699 54 12.5s21.333 21.5 28 39.5z" />
    <glyph glyph-name="OE" unicode="&#x152;" horiz-adv-x="1342" 
d="M449 155c30.667 0 58.499 4.83301 83.499 14.5s46.5 24 64.5 43s31.833 42.5 41.5 70.5s14.5 60 14.5 96c0 36.667 -5 68.834 -15 96.501s-24.167 50.834 -42.5 69.501s-40.166 32.667 -65.499 42s-53 14 -83 14s-57.5 -4.66699 -82.5 -14s-46.5 -23.333 -64.5 -42
s-32 -41.834 -42 -69.501s-15 -59.834 -15 -96.501c0 -74 18.833 -129.833 56.5 -167.5s87.5 -56.5 149.5 -56.5zM437.999 -18c-61.333 0 -116.5 9.99902 -165.5 29.999s-90.667 47.667 -125 83s-60.833 77.166 -79.5 125.499s-28 100.833 -28 157.5
s10.5 108.834 31.5 156.501s49.833 89 86.5 124s79.5 62.333 128.5 82s101.167 29.5 156.5 29.5c40 0 77.333 -5 112 -15s66 -26.667 94 -50v51h632v-149h-442v-144h327v-149h-327v-162h460v-152h-650v51c-27.333 -23.333 -58.833 -40.666 -94.5 -51.999
s-74.5 -17 -116.5 -17z" />
    <glyph glyph-name="oe" unicode="&#x153;" horiz-adv-x="974" 
d="M776 317c-4 24.667 -13.668 43.667 -29.001 57s-38 20 -68 20c-27.333 0 -49.666 -5.33301 -66.999 -16s-29.333 -31 -36 -61h200zM307.999 120c32.667 0 57.5 12 74.5 36s25.5 57.667 25.5 101c0 87.333 -33.333 131 -100 131c-32 0 -56.833 -10.5 -74.5 -31.5
s-26.5 -53.833 -26.5 -98.5c0 -44 8.5 -78 25.5 -102s42.167 -36 75.5 -36zM493.999 57c-22.667 -24 -49.8301 -42.502 -81.4971 -55.502s-66.834 -19.5 -105.501 -19.5c-40 0 -77 6 -111 18s-63.333 29.5 -88 52.5s-44 51.333 -58 85s-21 71.834 -21 114.501
c0 43.333 7 82.333 21 117s33.333 64 58 88s54 42.333 88 55s71.333 19 112 19c38 0 72.667 -6.83301 104 -20.5s58 -32.167 80 -55.5c22 24 48.667 42.667 80 56s67 20 107 20c31.333 0 63.666 -5.16699 96.999 -15.5s63.333 -27.666 90 -51.999s47.5 -56.666 62.5 -96.999
s20.167 -90.5 15.5 -150.5h-371c6 -32 18.167 -56 36.5 -72s41.833 -24 70.5 -24c27.333 0 50.166 4.16699 68.499 12.5s33.5 25.166 45.5 50.499l149 -47c-24 -52 -58 -90.667 -102 -116s-97 -38 -159 -38c-40 0 -75.667 6.5 -107 19.5s-58.333 31.5 -81 55.5z" />
    <glyph glyph-name="Scedilla" unicode="&#x15e;" horiz-adv-x="776" 
d="M310 -269c27.333 3.33301 48.001 12.001 62.001 26.001s22 28.333 24 43h-86v152h180v-126c0 -19.333 -3.33301 -39.166 -10 -59.499s-17.167 -38.833 -31.5 -55.5s-32.833 -30.334 -55.5 -41.001s-50.334 -16.334 -83.001 -17.001v78zM404.001 -17.999
c-47.333 0 -90.3291 3.49609 -128.996 10.4961s-73.834 16.833 -105.501 29.5s-60 28 -85 46s-47.833 38 -68.5 60l129 115c26.667 -31.333 61.167 -56.666 103.5 -75.999s93.166 -29 152.499 -29c54 0 92.333 5.66699 115 17s34 29.333 34 54
c0 13.333 -2.66699 24.333 -8 33s-14.833 15.834 -28.5 21.501s-31.834 10.5 -54.501 14.5s-51 8.33301 -85 13c-37.333 5.33301 -75.5 12 -114.5 20s-74.5 20.667 -106.5 38s-58.167 40.5 -78.5 69.5s-30.5 67.167 -30.5 114.5c0 40.667 7.83301 75.834 23.5 105.501
s37.667 54.167 66 73.5s62.5 33.833 102.5 43.5s84.667 14.5 134 14.5c84.667 0 154.5 -11.167 209.5 -33.5s102.167 -54.5 141.5 -96.5l-121 -115c-8.66699 10.667 -19.5 21.667 -32.5 33s-28.667 21.333 -47 30s-39.333 15.834 -63 21.501s-50.5 8.5 -80.5 8.5
c-52 0 -89.167 -5.33301 -111.5 -16s-33.5 -28 -33.5 -52c0 -12.667 2.83301 -23.167 8.5 -31.5s15.667 -15.333 30 -21s33.333 -10.5 57 -14.5s53.5 -8 89.5 -12c38.667 -4.66699 77.5 -11.334 116.5 -20.001s74 -22 105 -40s56.167 -41.5 75.5 -70.5s29 -66.5 29 -112.5
c0 -83.333 -27.333 -145.166 -82 -185.499s-140.334 -60.5 -257.001 -60.5z" />
    <glyph glyph-name="scedilla" unicode="&#x15f;" horiz-adv-x="562" 
d="M201 -269c27.333 3.33301 48.001 12.001 62.001 26.001s22 28.333 24 43h-86v152h180v-126c0 -19.333 -3.33301 -39.166 -10 -59.499s-17.167 -38.833 -31.5 -55.5s-32.833 -30.334 -55.5 -41.001s-50.334 -16.334 -83.001 -17.001v78zM291.001 -14.999
c-64.667 0 -119.666 7.83789 -164.999 23.5049s-83.666 38.5 -114.999 68.5l92 102c10 -8.66699 20.667 -16.667 32 -24s24 -13.833 38 -19.5s30 -10 48 -13s39 -4.5 63 -4.5c33.333 0 55.333 3 66 9s16 14.667 16 26c0 7.33301 -1.5 12.666 -4.5 15.999s-8.83301 6 -17.5 8
s-20.5 3.66699 -35.5 5s-34.5 3.33301 -58.5 6c-32 4 -61.333 9.33301 -88 16s-49.334 16.5 -68.001 29.5s-33.167 29.667 -43.5 50s-15.5 46.166 -15.5 77.499c0 30.667 6.33301 56.667 19 78s30 38.666 52 51.999s47.833 23.166 77.5 29.499s61.5 9.5 95.5 9.5
c56.667 0 105.334 -5.66699 146.001 -17s71 -24 91 -38l-80 -116c-16 11.333 -36.5 21.166 -61.5 29.499s-58.833 12.5 -101.5 12.5c-17.333 0 -31 -1 -41 -3s-17.667 -4.5 -23 -7.5s-8.83301 -6.33301 -10.5 -10s-2.5 -7.5 -2.5 -11.5
c0 -4.66699 1.16699 -8.83398 3.5 -12.501s7 -6.83398 14 -9.50098s16.833 -5 29.5 -7s29 -3.66699 49 -5c29.333 -2 58.666 -5.66699 87.999 -11s55.666 -14.166 78.999 -26.499s42.333 -29.166 57 -50.499s22 -49.333 22 -84c0 -62 -22 -107.167 -66 -135.5
s-104.333 -42.5 -181 -42.5z" />
    <glyph glyph-name="Scaron" unicode="&#x160;" horiz-adv-x="776" 
d="M163 964h132l85 -71l85 71h128l-118 -169h-194zM404 -18c-47.333 0 -90.3291 3.49609 -128.996 10.4961s-73.834 16.833 -105.501 29.5s-60 28 -85 46s-47.833 38 -68.5 60l129 115c26.667 -31.333 61.167 -56.666 103.5 -75.999s93.166 -29 152.499 -29
c54 0 92.333 5.66699 115 17s34 29.333 34 54c0 13.333 -2.66699 24.333 -8 33s-14.833 15.834 -28.5 21.501s-31.834 10.5 -54.501 14.5s-51 8.33301 -85 13c-37.333 5.33301 -75.5 12 -114.5 20s-74.5 20.667 -106.5 38s-58.167 40.5 -78.5 69.5s-30.5 67.167 -30.5 114.5
c0 40.667 7.83301 75.834 23.5 105.501s37.667 54.167 66 73.5s62.5 33.833 102.5 43.5s84.667 14.5 134 14.5c84.667 0 154.5 -11.167 209.5 -33.5s102.167 -54.5 141.5 -96.5l-121 -115c-8.66699 10.667 -19.5 21.667 -32.5 33s-28.667 21.333 -47 30
s-39.333 15.834 -63 21.501s-50.5 8.5 -80.5 8.5c-52 0 -89.167 -5.33301 -111.5 -16s-33.5 -28 -33.5 -52c0 -12.667 2.83301 -23.167 8.5 -31.5s15.667 -15.333 30 -21s33.333 -10.5 57 -14.5s53.5 -8 89.5 -12c38.667 -4.66699 77.5 -11.334 116.5 -20.001
s74 -22 105 -40s56.167 -41.5 75.5 -70.5s29 -66.5 29 -112.5c0 -83.333 -27.333 -145.166 -82 -185.499s-140.334 -60.5 -257.001 -60.5z" />
    <glyph glyph-name="scaron" unicode="&#x161;" horiz-adv-x="562" 
d="M61 736h132l85 -71l85 71h128l-118 -169h-194zM291 -15c-64.667 0 -119.666 7.83789 -164.999 23.5049s-83.666 38.5 -114.999 68.5l92 102c10 -8.66699 20.667 -16.667 32 -24s24 -13.833 38 -19.5s30 -10 48 -13s39 -4.5 63 -4.5c33.333 0 55.333 3 66 9
s16 14.667 16 26c0 7.33301 -1.5 12.666 -4.5 15.999s-8.83301 6 -17.5 8s-20.5 3.66699 -35.5 5s-34.5 3.33301 -58.5 6c-32 4 -61.333 9.33301 -88 16s-49.334 16.5 -68.001 29.5s-33.167 29.667 -43.5 50s-15.5 46.166 -15.5 77.499c0 30.667 6.33301 56.667 19 78
s30 38.666 52 51.999s47.833 23.166 77.5 29.499s61.5 9.5 95.5 9.5c56.667 0 105.334 -5.66699 146.001 -17s71 -24 91 -38l-80 -116c-16 11.333 -36.5 21.166 -61.5 29.499s-58.833 12.5 -101.5 12.5c-17.333 0 -31 -1 -41 -3s-17.667 -4.5 -23 -7.5
s-8.83301 -6.33301 -10.5 -10s-2.5 -7.5 -2.5 -11.5c0 -4.66699 1.16699 -8.83398 3.5 -12.501s7 -6.83398 14 -9.50098s16.833 -5 29.5 -7s29 -3.66699 49 -5c29.333 -2 58.666 -5.66699 87.999 -11s55.666 -14.166 78.999 -26.499s42.333 -29.166 57 -50.499
s22 -49.333 22 -84c0 -62 -22 -107.167 -66 -135.5s-104.333 -42.5 -181 -42.5z" />
    <glyph glyph-name="Tcommaaccent" unicode="&#x162;" horiz-adv-x="751" 
d="M285 -269c27.333 3.33301 48.001 12.001 62.001 26.001s22 28.333 24 43h-86v152h180v-126c0 -19.333 -3.33301 -39.166 -10 -59.499s-17.167 -38.833 -31.5 -55.5s-32.833 -30.334 -55.5 -41.001s-50.334 -16.334 -83.001 -17.001v78zM38.001 600.001v156h675v-156h-233
v-600h-196v600h-246z" />
    <glyph glyph-name="tcommaaccent" unicode="&#x163;" horiz-adv-x="406" 
d="M137 -269c27.333 3.33301 48.001 12.001 62.001 26.001s22 28.333 24 43h-86v152h180v-126c0 -19.333 -3.33301 -39.166 -10 -59.499s-17.167 -38.833 -31.5 -55.5s-32.833 -30.334 -55.5 -41.001s-50.334 -16.334 -83.001 -17.001v78zM15.001 378.001
l0.00195312 139.002h84v72c25.333 16 53.166 35.667 83.499 59s58.5 47.666 84.5 72.999h8v-204h106v-139h-106v-191c0 -14 2.66699 -24.833 8 -32.5s15.666 -11.5 30.999 -11.5c11.333 0 21 1 29 3s14.667 4.66699 20 8h2v-148c-10 -4 -25.167 -8.33301 -45.5 -13
s-43.5 -7 -69.5 -7c-28 0 -52 2.66699 -72 8s-35.667 14.666 -47 27.999c-10.667 12 -18.667 27 -24 45s-8 41 -8 69v242h-84z" />
    <glyph glyph-name="Ydieresis" unicode="&#x178;" horiz-adv-x="810" 
d="M220 954h161v-159h-161v159zM443 954h161v-159h-161v159zM15 756h223l181 -278l170 278h206l-287 -440v-316h-196v318z" />
    <glyph glyph-name="florin" unicode="&#x192;" horiz-adv-x="495" 
d="M50 328l-0.00292969 138.997h102l12 137c5.33301 57.333 24.333 99.833 57 127.5s75 41.5 127 41.5c34 0 62.167 -2.66699 84.5 -8s41.833 -11.666 58.5 -18.999l-30 -135h-2c-7.33301 5.33301 -16 10.333 -26 15s-22.333 7 -37 7c-16 0 -28.333 -3.5 -37 -10.5
s-13.667 -20.167 -15 -39.5l-10 -116h110v-139h-123l-30 -338c-3.33301 -35.333 -10.166 -64.333 -20.499 -87s-23.666 -40.667 -39.999 -54s-35.166 -22.666 -56.499 -27.999s-44.333 -8 -69 -8c-32 0 -56.667 1.83301 -74 5.5s-32.666 8.83398 -45.999 15.501l23 131h2
c6 -4 12.833 -7 20.5 -9s17.167 -3 28.5 -3c14 0 25.667 3 35 9s14.666 18 15.999 36l29 330h-89z" />
    <glyph glyph-name="uni021A" unicode="&#x21a;" horiz-adv-x="751" 
d="M285 -269c27.333 3.33301 48.001 12.001 62.001 26.001s22 28.333 24 43h-86v152h180v-126c0 -19.333 -3.33301 -39.166 -10 -59.499s-17.167 -38.833 -31.5 -55.5s-32.833 -30.334 -55.5 -41.001s-50.334 -16.334 -83.001 -17.001v78zM38.001 600.001v156h675v-156h-233
v-600h-196v600h-246z" />
    <glyph glyph-name="uni021B" unicode="&#x21b;" horiz-adv-x="406" 
d="M137 -269c27.333 3.33301 48.001 12.001 62.001 26.001s22 28.333 24 43h-86v152h180v-126c0 -19.333 -3.33301 -39.166 -10 -59.499s-17.167 -38.833 -31.5 -55.5s-32.833 -30.334 -55.5 -41.001s-50.334 -16.334 -83.001 -17.001v78zM15.001 378.001
l0.00195312 139.002h84v72c25.333 16 53.166 35.667 83.499 59s58.5 47.666 84.5 72.999h8v-204h106v-139h-106v-191c0 -14 2.66699 -24.833 8 -32.5s15.666 -11.5 30.999 -11.5c11.333 0 21 1 29 3s14.667 4.66699 20 8h2v-148c-10 -4 -25.167 -8.33301 -45.5 -13
s-43.5 -7 -69.5 -7c-28 0 -52 2.66699 -72 8s-35.667 14.666 -47 27.999c-10.667 12 -18.667 27 -24 45s-8 41 -8 69v242h-84z" />
    <glyph glyph-name="circumflex" unicode="&#x2c6;" horiz-adv-x="500" 
d="M153 736h194l118 -169h-132l-85 71l-85 -71h-128z" />
    <glyph glyph-name="uni02C9" unicode="&#x2c9;" horiz-adv-x="500" 
d="M99 721h302v-140h-302v140z" />
    <glyph glyph-name="tilde" unicode="&#x2dc;" horiz-adv-x="500" 
d="M319 569c-17.333 0 -32.3359 2.33398 -45.0029 7.00098s-23.667 9.66699 -33 15l-26 15c-8 4.66699 -16.333 7 -25 7c-24 0 -38.667 -13 -44 -39l-112 7c6 51.333 22 91.166 48 119.499s59 42.5 99 42.5c17.333 0 32.166 -2.33301 44.499 -7s23 -9.66699 32 -15l25 -15
c7.66699 -4.66699 15.834 -7 24.501 -7c12.667 0 21.334 3.33301 26.001 10s8.33398 16.334 11.001 29.001l122 -7c-5.33301 -50.667 -21.166 -90.334 -47.499 -119.001s-59.5 -43 -99.5 -43z" />
    <glyph glyph-name="Delta" unicode="&#x394;" horiz-adv-x="842" 
d="M566 152l-150 411l-149 -411h299zM311 756h218l298 -756h-812z" />
    <glyph glyph-name="Omega" unicode="&#x3a9;" horiz-adv-x="894" 
d="M19 152h178c-46 28 -80.833 64 -104.5 108s-35.5 97.333 -35.5 160c0 50 10.333 96.5 31 139.5s48.5 80 83.5 111s76 55.333 123 73s97.167 26.5 150.5 26.5c52.667 0 102.667 -8.66699 150 -26s88.5 -41.166 123.5 -71.499s62.833 -66.666 83.5 -108.999
s31 -88.5 31 -138.5c0 -68 -13.167 -123.833 -39.5 -167.5s-62.833 -78.834 -109.5 -105.501h191v-152h-387v206c47.333 9.33301 82.833 30 106.5 62s35.5 78 35.5 138c0 30 -4.5 57.167 -13.5 81.5s-21.5 44.833 -37.5 61.5s-35.5 29.5 -58.5 38.5s-48.5 13.5 -76.5 13.5
c-56.667 0 -101.5 -17.333 -134.5 -52s-49.5 -82.334 -49.5 -143.001c0 -60 12.333 -105.833 37 -137.5s61 -52.5 109 -62.5v-206h-387v152z" />
    <glyph glyph-name="uni03BC" unicode="&#x3bc;" horiz-adv-x="653" 
d="M64 517l176 0.000976562v-300c0 -30 5.5 -51.167 16.5 -63.5s29.167 -18.5 54.5 -18.5c16.667 0 31.334 2.33301 44.001 7s23.334 12.667 32.001 24s15.167 26.333 19.5 45s6.5 41.667 6.5 69v237h176v-517h-176l2 91c-14.667 -29.333 -34.334 -54.5 -59.001 -75.5
s-53.334 -31.5 -86.001 -31.5c-5.33301 0 -10.333 0.166992 -15 0.5s-9.66699 1.16602 -15 2.49902v-166h-176v696z" />
    <glyph glyph-name="endash" unicode="&#x2013;" horiz-adv-x="639" 
d="M71 372h497v-150h-497v150z" />
    <glyph glyph-name="emdash" unicode="&#x2014;" horiz-adv-x="929" 
d="M71 372h787v-150h-787v150z" />
    <glyph glyph-name="quoteleft" unicode="&#x2018;" horiz-adv-x="361" 
d="M76 580c0 20 3.66602 40.3311 10.999 60.998s19.333 39.834 36 57.501s38.334 32.834 65.001 45.501s59 21 97 25v-84c-32 -4.66699 -56.5 -14.667 -73.5 -30s-26.5 -30.333 -28.5 -45h102v-168h-209v138z" />
    <glyph glyph-name="quoteright" unicode="&#x2019;" horiz-adv-x="361" 
d="M76 513c32 4.66699 56.501 14.6689 73.501 30.002s26.5 30.333 28.5 45h-102v168h209v-138c0 -20 -3.66699 -40.333 -11 -61s-19.333 -39.834 -36 -57.501s-38.334 -32.834 -65.001 -45.501s-59 -21 -97 -25v84z" />
    <glyph glyph-name="quotesinglbase" unicode="&#x201a;" horiz-adv-x="361" 
d="M76 -75c32 4.66699 56.501 14.6689 73.501 30.002s26.5 30.333 28.5 45h-102v168h209v-138c0 -20 -3.66699 -40.333 -11 -61s-19.333 -39.834 -36 -57.501s-38.334 -32.834 -65.001 -45.501s-59 -21 -97 -25v84z" />
    <glyph glyph-name="quotedblleft" unicode="&#x201c;" 
d="M76 580c0 20 3.66602 40.3311 10.999 60.998s19.333 39.834 36 57.501s38.334 32.834 65.001 45.501s59 21 97 25v-84c-32 -4.66699 -56.5 -14.667 -73.5 -30s-26.5 -30.333 -28.5 -45h102v-168h-209v138zM363.999 579.998c0 20 3.66602 40.3311 10.999 60.998
s19.333 39.834 36 57.501s38.334 32.834 65.001 45.501s59 21 97 25v-84c-32 -4.66699 -56.5 -14.667 -73.5 -30s-26.5 -30.333 -28.5 -45h102v-168h-209v138z" />
    <glyph glyph-name="quotedblright" unicode="&#x201d;" 
d="M76 513c32 4.66699 56.501 14.6689 73.501 30.002s26.5 30.333 28.5 45h-102v168h209v-138c0 -20 -3.66699 -40.333 -11 -61s-19.333 -39.834 -36 -57.501s-38.334 -32.834 -65.001 -45.501s-59 -21 -97 -25v84zM364.001 513.002
c32 4.66699 56.501 14.6689 73.501 30.002s26.5 30.333 28.5 45h-102v168h209v-138c0 -20 -3.66699 -40.333 -11 -61s-19.333 -39.834 -36 -57.501s-38.334 -32.834 -65.001 -45.501s-59 -21 -97 -25v84z" />
    <glyph glyph-name="quotedblbase" unicode="&#x201e;" 
d="M76 -75c32 4.66699 56.501 14.6689 73.501 30.002s26.5 30.333 28.5 45h-102v168h209v-138c0 -20 -3.66699 -40.333 -11 -61s-19.333 -39.834 -36 -57.501s-38.334 -32.834 -65.001 -45.501s-59 -21 -97 -25v84zM364.001 -74.998
c32 4.66699 56.501 14.6689 73.501 30.002s26.5 30.333 28.5 45h-102v168h209v-138c0 -20 -3.66699 -40.333 -11 -61s-19.333 -39.834 -36 -57.501s-38.334 -32.834 -65.001 -45.501s-59 -21 -97 -25v84z" />
    <glyph glyph-name="dagger" unicode="&#x2020;" horiz-adv-x="554" 
d="M36 433v151h158v172h166v-172h158v-151h-158v-433h-166v433h-158z" />
    <glyph glyph-name="daggerdbl" unicode="&#x2021;" horiz-adv-x="554" 
d="M36 433v151h158v172h166v-172h158v-151h-158v-110h158v-151h-158v-172h-166v172h-158v151h158v110h-158z" />
    <glyph glyph-name="bullet" unicode="&#x2022;" horiz-adv-x="508" 
d="M254 160c-31.333 0 -59.998 5.5 -85.998 16.5s-48.333 25.833 -67 44.5s-33.167 40.667 -43.5 66s-15.5 52.333 -15.5 81c0 29.333 5.16699 56.833 15.5 82.5s24.666 48.167 42.999 67.5s40.666 34.666 66.999 45.999s55.5 17 87.5 17s61 -5.5 87 -16.5
s48.333 -26.167 67 -45.5s33 -41.833 43 -67.5s14.667 -53.167 14 -82.5s-6 -56.666 -16 -81.999s-24.167 -47.5 -42.5 -66.5s-40.5 -33.833 -66.5 -44.5s-55 -16 -87 -16z" />
    <glyph glyph-name="ellipsis" unicode="&#x2026;" horiz-adv-x="1009" 
d="M87 190h215v-190h-215v190zM397 190h215v-190h-215v190zM707 190h215v-190h-215v190z" />
    <glyph glyph-name="perthousand" unicode="&#x2030;" horiz-adv-x="1586" 
d="M864 103c24.667 0 43.333 9 56 27s19 44 19 78s-6.66699 59.5 -20 76.5s-32 25.5 -56 25.5c-48.667 0 -73 -34 -73 -102c0 -70 24.667 -105 74 -105zM1338 103c24.667 0 43.333 9 56 27s19 44 19 78s-6.66699 59.5 -20 76.5s-32 25.5 -56 25.5
c-48.667 0 -73 -34 -73 -102c0 -70 24.667 -105 74 -105zM246.998 392c24.667 0 43.333 9 56 27s19 44 19 78s-6.66699 59.5 -20 76.5s-32 25.5 -56 25.5c-48.667 0 -73 -34 -73 -102c0 -70 24.667 -105 74 -105zM660.997 704h156l-366 -704h-155zM1336 -15
c-35.333 0 -66.333 5.83203 -93 17.499s-49 27.5 -67 47.5s-31.667 43.5 -41 70.5s-14 55.833 -14 86.5s5.33301 59.167 16 85.5s25.5 49.333 44.5 69s41.833 35.167 68.5 46.5s56 17 88 17s61.333 -5.16699 88 -15.5s49.667 -25 69 -44s34.333 -41.667 45 -68
s16 -55.5 16 -87.5c0 -30.667 -4.83301 -59.667 -14.5 -87s-23.834 -51.166 -42.501 -71.499s-41.667 -36.5 -69 -48.5s-58.666 -18 -93.999 -18zM861.997 -15.001c-35.333 0 -66.333 5.83203 -93 17.499s-49 27.5 -67 47.5s-31.667 43.5 -41 70.5s-14 55.833 -14 86.5
s5.33301 59.167 16 85.5s25.5 49.333 44.5 69s41.833 35.167 68.5 46.5s56 17 88 17s61.333 -5.16699 88 -15.5s49.667 -25 69 -44s34.333 -41.667 45 -68s16 -55.5 16 -87.5c0 -30.667 -4.83301 -59.667 -14.5 -87s-23.834 -51.166 -42.501 -71.499
s-41.667 -36.5 -69 -48.5s-58.666 -18 -93.999 -18zM244.997 273.998c-35.333 0 -66.333 5.83203 -93 17.499s-49 27.5 -67 47.5s-31.667 43.5 -41 70.5s-14 55.833 -14 86.5s5.33301 59.167 16 85.5s25.5 49.333 44.5 69s41.833 35.167 68.5 46.5s56 17 88 17
s61.333 -5.16699 88 -15.5s49.667 -25 69 -44s34.333 -41.667 45 -68s16 -55.5 16 -87.5c0 -30.667 -4.83301 -59.667 -14.5 -87s-23.834 -51.166 -42.501 -71.499s-41.667 -36.5 -69 -48.5s-58.666 -18 -93.999 -18z" />
    <glyph glyph-name="guilsinglleft" unicode="&#x2039;" horiz-adv-x="348" 
d="M32 241l110 208h168l-115 -208l115 -208h-168z" />
    <glyph glyph-name="guilsinglright" unicode="&#x203a;" horiz-adv-x="348" 
d="M153 241l-115 208h168l110 -208l-110 -208h-168z" />
    <glyph glyph-name="fraction" unicode="&#x2044;" horiz-adv-x="453" 
d="M331 704h156l-366 -704h-155z" />
    <glyph glyph-name="Euro" unicode="&#x20ac;" horiz-adv-x="763" 
d="M24 375l0.0078125 89.0029h84c10 38 25.167 72.5 45.5 103.5s45.166 57.667 74.499 80s62.666 39.666 99.999 51.999s78 18.5 122 18.5c38.667 0 73.167 -4.16699 103.5 -12.5s57.333 -20.333 81 -36s44.167 -34.5 61.5 -56.5s32.333 -47 45 -75l-152 -91
c-14 40 -32 69 -54 87s-52 27 -90 27c-70.667 0 -118 -32.333 -142 -97h184v-89h-200v-23v-18c0 -6 0.333008 -11.667 1 -17h199v-89h-181c24 -58.667 70.667 -88 140 -88c20.667 0 39.167 3.16699 55.5 9.5s30.666 15 42.999 26s22.666 23.667 30.999 38
s15.166 29.5 20.499 45.5l155 -91c-13.333 -26 -28.333 -50.333 -45 -73s-36.834 -42.334 -60.501 -59.001s-51.834 -29.834 -84.501 -39.501s-71.334 -14.5 -116.001 -14.5c-45.333 0 -86.5 6 -123.5 18s-69.5 28.833 -97.5 50.5s-51.667 47.5 -71 77.5s-34 63.333 -44 100
h-85v89h70c-0.666992 6 -1 11.667 -1 17v18v23h-69z" />
    <glyph glyph-name="trademark" unicode="&#x2122;" horiz-adv-x="856" 
d="M34 667v89h310v-89h-98v-237h-107v237h-105zM397 756h134l65 -213l60 213h142v-326h-100v194l-60 -194h-90l-58 194v-194h-93v326z" />
    <glyph glyph-name="uni2126" unicode="&#x2126;" horiz-adv-x="894" 
d="M19 152h178c-46 28 -80.833 64 -104.5 108s-35.5 97.333 -35.5 160c0 50 10.333 96.5 31 139.5s48.5 80 83.5 111s76 55.333 123 73s97.167 26.5 150.5 26.5c52.667 0 102.667 -8.66699 150 -26s88.5 -41.166 123.5 -71.499s62.833 -66.666 83.5 -108.999
s31 -88.5 31 -138.5c0 -68 -13.167 -123.833 -39.5 -167.5s-62.833 -78.834 -109.5 -105.501h191v-152h-387v206c47.333 9.33301 82.833 30 106.5 62s35.5 78 35.5 138c0 30 -4.5 57.167 -13.5 81.5s-21.5 44.833 -37.5 61.5s-35.5 29.5 -58.5 38.5s-48.5 13.5 -76.5 13.5
c-56.667 0 -101.5 -17.333 -134.5 -52s-49.5 -82.334 -49.5 -143.001c0 -60 12.333 -105.833 37 -137.5s61 -52.5 109 -62.5v-206h-387v152z" />
    <glyph glyph-name="uni2206" unicode="&#x2206;" horiz-adv-x="842" 
d="M566 152l-150 411l-149 -411h299zM311 756h218l298 -756h-812z" />
    <glyph glyph-name="uni2215" unicode="&#x2215;" horiz-adv-x="453" 
d="M331 704h156l-366 -704h-155z" />
    <glyph glyph-name="uni2219" unicode="&#x2219;" horiz-adv-x="399" 
d="M87 432h225v-190h-225v190z" />
    <glyph glyph-name="uni2224" unicode="&#x2224;" horiz-adv-x="399" 
d="M87 432h225v-190h-225v190z" />
    <glyph glyph-name="uni2227" unicode="&#x2227;" horiz-adv-x="399" 
d="M87 432h225v-190h-225v190z" />
    <glyph glyph-name="uni22C5" unicode="&#x22c5;" horiz-adv-x="399" 
d="M87 432h225v-190h-225v190z" />
    <glyph glyph-name="uniF6C1" unicode="&#xf6c1;" horiz-adv-x="776" 
d="M310 -269c27.333 3.33301 48.001 12.001 62.001 26.001s22 28.333 24 43h-86v152h180v-126c0 -19.333 -3.33301 -39.166 -10 -59.499s-17.167 -38.833 -31.5 -55.5s-32.833 -30.334 -55.5 -41.001s-50.334 -16.334 -83.001 -17.001v78zM404.001 -17.999
c-47.333 0 -90.3291 3.49609 -128.996 10.4961s-73.834 16.833 -105.501 29.5s-60 28 -85 46s-47.833 38 -68.5 60l129 115c26.667 -31.333 61.167 -56.666 103.5 -75.999s93.166 -29 152.499 -29c54 0 92.333 5.66699 115 17s34 29.333 34 54
c0 13.333 -2.66699 24.333 -8 33s-14.833 15.834 -28.5 21.501s-31.834 10.5 -54.501 14.5s-51 8.33301 -85 13c-37.333 5.33301 -75.5 12 -114.5 20s-74.5 20.667 -106.5 38s-58.167 40.5 -78.5 69.5s-30.5 67.167 -30.5 114.5c0 40.667 7.83301 75.834 23.5 105.501
s37.667 54.167 66 73.5s62.5 33.833 102.5 43.5s84.667 14.5 134 14.5c84.667 0 154.5 -11.167 209.5 -33.5s102.167 -54.5 141.5 -96.5l-121 -115c-8.66699 10.667 -19.5 21.667 -32.5 33s-28.667 21.333 -47 30s-39.333 15.834 -63 21.501s-50.5 8.5 -80.5 8.5
c-52 0 -89.167 -5.33301 -111.5 -16s-33.5 -28 -33.5 -52c0 -12.667 2.83301 -23.167 8.5 -31.5s15.667 -15.333 30 -21s33.333 -10.5 57 -14.5s53.5 -8 89.5 -12c38.667 -4.66699 77.5 -11.334 116.5 -20.001s74 -22 105 -40s56.167 -41.5 75.5 -70.5s29 -66.5 29 -112.5
c0 -83.333 -27.333 -145.166 -82 -185.499s-140.334 -60.5 -257.001 -60.5z" />
    <glyph glyph-name="uniF6C2" unicode="&#xf6c2;" horiz-adv-x="562" 
d="M201 -269c27.333 3.33301 48.001 12.001 62.001 26.001s22 28.333 24 43h-86v152h180v-126c0 -19.333 -3.33301 -39.166 -10 -59.499s-17.167 -38.833 -31.5 -55.5s-32.833 -30.334 -55.5 -41.001s-50.334 -16.334 -83.001 -17.001v78zM291.001 -14.999
c-64.667 0 -119.666 7.83789 -164.999 23.5049s-83.666 38.5 -114.999 68.5l92 102c10 -8.66699 20.667 -16.667 32 -24s24 -13.833 38 -19.5s30 -10 48 -13s39 -4.5 63 -4.5c33.333 0 55.333 3 66 9s16 14.667 16 26c0 7.33301 -1.5 12.666 -4.5 15.999s-8.83301 6 -17.5 8
s-20.5 3.66699 -35.5 5s-34.5 3.33301 -58.5 6c-32 4 -61.333 9.33301 -88 16s-49.334 16.5 -68.001 29.5s-33.167 29.667 -43.5 50s-15.5 46.166 -15.5 77.499c0 30.667 6.33301 56.667 19 78s30 38.666 52 51.999s47.833 23.166 77.5 29.499s61.5 9.5 95.5 9.5
c56.667 0 105.334 -5.66699 146.001 -17s71 -24 91 -38l-80 -116c-16 11.333 -36.5 21.166 -61.5 29.499s-58.833 12.5 -101.5 12.5c-17.333 0 -31 -1 -41 -3s-17.667 -4.5 -23 -7.5s-8.83301 -6.33301 -10.5 -10s-2.5 -7.5 -2.5 -11.5
c0 -4.66699 1.16699 -8.83398 3.5 -12.501s7 -6.83398 14 -9.50098s16.833 -5 29.5 -7s29 -3.66699 49 -5c29.333 -2 58.666 -5.66699 87.999 -11s55.666 -14.166 78.999 -26.499s42.333 -29.166 57 -50.499s22 -49.333 22 -84c0 -62 -22 -107.167 -66 -135.5
s-104.333 -42.5 -181 -42.5z" />
    <glyph glyph-name=".null" horiz-adv-x="0" 
 />
    <glyph glyph-name="nonmarkingreturn" horiz-adv-x="240" 
 />
    </font>
</defs>
</svg>
