<?xml version="1.0" encoding="UTF-8" standalone="no"?>
<svg width="100px" height="100px" viewBox="0 0 100 100" version="1.1" xmlns="http://www.w3.org/2000/svg" xmlns:xlink="http://www.w3.org/1999/xlink" xmlns:sketch="http://www.bohemiancoding.com/sketch/ns">
    <!-- Generator: Sketch 3.5.1 (25234) - http://www.bohemiancoding.com/sketch -->
    <title>Icon</title>
    <desc>Created with Sketch.</desc>
    <defs></defs>
    <g id="Page-1" stroke="none" stroke-width="1" fill="none" fill-rule="evenodd" sketch:type="MSPage">
        <path d="M50.001,100 C77.6152376,100 100.001,77.6142376 100.001,50 C100.001,22.3857625 77.6152376,0 50.001,0 C22.3867625,0 0.001,22.3857625 0.001,50 C0.001,77.6142376 22.3867625,100 50.001,100 L50.001,100 Z M29.0941641,21.3800781 C24.8345938,21.3800781 21.3812734,24.8332031 21.3812734,29.0929688 L21.3812734,70.9064452 C21.3812734,75.1664064 24.8343984,78.619336 29.0941641,78.619336 L49.7160392,78.619336 L49.7517812,58.1658204 L44.437328,58.1658204 C43.7467032,58.1658204 43.1861564,57.6072264 43.1838124,56.9166016 L43.157836,50.3230468 C43.1551016,49.6291016 43.7177968,49.0644532 44.411742,49.0644532 L49.7168204,49.0644532 L49.7168204,42.69375 C49.7168204,35.3007812 54.2320548,31.2751953 60.8269764,31.2751953 L66.239086,31.2751953 C66.931078,31.2751953 67.492992,31.8365234 67.492992,32.5291016 L67.492992,38.0882812 C67.492992,38.7808594 66.931664,39.3421875 66.2398672,39.3421875 L62.9183828,39.3441406 C59.3318592,39.3441406 58.6369376,41.048242 58.6369376,43.5498048 L58.6369376,49.0652344 L66.517992,49.0652344 C67.2695548,49.0652344 67.8519764,49.7210936 67.7631092,50.4662108 L66.981664,57.0597656 C66.90725,57.6910156 66.3718984,58.1662108 65.7365468,58.1662108 L58.6724844,58.1662108 L58.636742,78.620508 L70.9074452,78.620508 C75.1670156,78.620508 78.620336,75.166992 78.620336,70.907422 L78.620336,29.0929688 C78.6205312,24.8333984 75.1672108,21.3800781 70.9076408,21.3800781 L29.0941641,21.3800781 L29.0941641,21.3800781 Z" id="Icon" fill="#FFFFFF" sketch:type="MSShapeGroup"></path>
    </g>
</svg>