<?xml version="1.0" encoding="UTF-8" standalone="no"?>
<svg width="100px" height="100px" viewBox="0 0 100 100" version="1.1" xmlns="http://www.w3.org/2000/svg" xmlns:xlink="http://www.w3.org/1999/xlink" xmlns:sketch="http://www.bohemiancoding.com/sketch/ns">
    <!-- Generator: Sketch 3.5.1 (25234) - http://www.bohemiancoding.com/sketch -->
    <title>Oval</title>
    <desc>Created with Sketch.</desc>
    <defs></defs>
    <g id="Page-1" stroke="none" stroke-width="1" fill="none" fill-rule="evenodd" sketch:type="MSPage">
        <path d="M50,100 C77.6142376,100 100,77.6142376 100,50 C100,22.3857625 77.6142376,0 50,0 C22.3857625,0 0,22.3857625 0,50 C0,77.6142376 22.3857625,100 50,100 L50,100 Z M61.5677736,21.3804688 L38.4320312,21.3804688 C29.0296875,21.3804688 21.3804688,29.0296875 21.3804688,38.4320312 L21.3804688,61.5677736 C21.3804688,70.9697264 29.0296875,78.6195312 38.4322266,78.6195312 L61.5679688,78.6195312 C70.969922,78.6195312 78.6197264,70.9701172 78.6197264,61.5677736 L78.6197264,38.4320312 C78.6195312,29.0296875 70.9701172,21.3804688 61.5677736,21.3804688 L61.5677736,21.3804688 Z M72.861328,61.5679688 C72.861328,67.805078 67.805078,72.861328 61.5679688,72.861328 L38.4322266,72.861328 C32.1951172,72.861328 27.1388672,67.805078 27.1388672,61.5679688 L27.1388672,38.4322266 C27.1388672,32.1951172 32.1951172,27.1386719 38.4322266,27.1386719 L61.5679688,27.1386719 C67.805078,27.1386719 72.861328,32.1953125 72.861328,38.4322266 L72.861328,61.5679688 L72.861328,61.5679688 Z M50,35.1957031 C41.8371092,35.1957031 35.1957031,41.8371092 35.1957031,50 C35.1957031,58.1623048 41.8371092,64.8037108 50,64.8037108 C58.1628908,64.8037108 64.8037108,58.1628908 64.8037108,50 C64.8037108,41.8371092 58.1628908,35.1957031 50,35.1957031 L50,35.1957031 Z M50,59.045508 C45.0041016,59.045508 40.9539064,54.9960936 40.9539064,50 C40.9539064,45.0039064 45.0041016,40.9539064 50,40.9539064 C54.9958984,40.9539064 59.045508,45.0037108 59.045508,50 C59.045508,54.9958984 54.9958984,59.045508 50,59.045508 L50,59.045508 Z M64.8320312,38.8548828 C62.8730468,38.8548828 61.2845704,37.2664062 61.2845704,35.3074219 C61.2845704,33.3482422 62.8730468,31.7599609 64.8320312,31.7599609 C66.7916016,31.7599609 68.379492,33.3478516 68.379492,35.3074219 C68.379492,37.2664062 66.7912108,38.8548828 64.8320312,38.8548828 L64.8320312,38.8548828 Z" id="Oval" fill="#FFFFFF" sketch:type="MSShapeGroup"></path>
    </g>
</svg>