<?xml version="1.0" encoding="UTF-8" standalone="no"?>
<svg width="567px" height="35px" viewBox="0 0 567 35" version="1.1" xmlns="http://www.w3.org/2000/svg" xmlns:xlink="http://www.w3.org/1999/xlink" xmlns:sketch="http://www.bohemiancoding.com/sketch/ns">
    <!-- Generator: Sketch 3.5.1 (25234) - http://www.bohemiancoding.com/sketch -->
    <title>Group 2</title>
    <desc>Created with Sketch.</desc>
    <defs></defs>
    <g id="Page-1" stroke="none" stroke-width="1" fill="none" fill-rule="evenodd" sketch:type="MSPage">
        <g id="Group-2" sketch:type="MSLayerGroup">
            <path d="M279.268,20.177 L273,20.177 L273,14.196 L279.268,14.196 L279.268,8 L285.463,8 L285.463,14.196 L291.731,14.196 L291.731,20.177 L285.463,20.177 L285.463,26.373 L279.268,26.373 L279.268,20.177 L279.268,20.177 Z" id="Plus" fill="#BE202D" sketch:type="MSShapeGroup"></path>
            <g id="Light">
                <g id="Page-1-Copy" transform="translate(231.000000, 0.000000)">
                    <g id="Logo">
                        <g id="Group">
                            <g id="Group-22"></g>
                        </g>
                    </g>
                </g>
                <path d="M0,1 L0,33.024 L24.384,33.024 L24.384,25.246 L8.875,25.246 L8.875,1 L0,1 L0,1 Z" id="Fill-1-Copy" fill="#FFFFFF" sketch:type="MSShapeGroup"></path>
                <path d="M60,33.023 L68.921,33.023 L68.921,1 L60,1 L60,33.023 L60,33.023 Z" id="Fill-2-Copy" fill="#FFFFFF" sketch:type="MSShapeGroup"></path>
                <path d="M165,1 L173.875,1 L173.875,12.986 L185.266,12.986 L185.266,1 L194.141,1 L194.141,33.024 L185.266,33.024 L185.266,20.854 L173.875,20.854 L173.875,33.024 L165,33.024 L165,1 L165,1 Z" id="Fill-6-Copy" fill="#FFFFFF" sketch:type="MSShapeGroup"></path>
                <path d="M229.607,8.777 L220,8.777 L220,1 L248.09,1 L248.09,8.777 L238.484,8.777 L238.484,33.023 L229.608,33.023 L229.608,8.777 L229.607,8.777 Z" id="Fill-8-Copy" fill="#FFFFFF" sketch:type="MSShapeGroup"></path>
                <path d="M106,17.744 L106,17.653 C106,8.32 113.319,1 123.248,1 C128.875,1 132.855,2.739 136.24,5.667 L131.024,11.934 C128.737,10.013 126.45,8.914 123.293,8.914 C118.673,8.914 115.104,12.803 115.104,17.698 L115.104,17.789 C115.104,22.959 118.719,26.664 123.797,26.664 C125.946,26.664 127.594,26.207 128.921,25.338 L128.921,21.449 L122.608,21.449 L122.608,14.952 L137.338,14.952 L137.338,29.365 C133.952,32.155 129.24,34.305 123.431,34.305 C113.458,34.305 106,27.443 106,17.744" id="Fill-3-Copy" fill="#FFFFFF" sketch:type="MSShapeGroup"></path>
            </g>
            <g id="Shade" transform="translate(317.000000, 0.000000)" fill="#FFFFFF" sketch:type="MSShapeGroup">
                <path d="M2.84217094e-14,27.813 L4.94,21.912 C8.096,24.428 11.619,25.755 15.326,25.755 C17.704,25.755 18.984,24.931 18.984,23.558 L18.984,23.467 C18.984,22.14 17.933,21.408 13.586,20.402 C6.771,18.846 1.51,16.925 1.51,10.339 L1.51,10.248 C1.51,4.3 6.222,3.55271368e-15 13.907,3.55271368e-15 C19.351,3.55271368e-15 23.605,1.463 27.083,4.254 L22.645,10.522 C19.718,8.463 16.515,7.365 13.679,7.365 C11.529,7.365 10.477,8.28 10.477,9.423 L10.477,9.514 C10.477,10.979 11.575,11.618 16.012,12.626 C23.376,14.227 27.952,16.606 27.952,22.599 L27.952,22.69 C27.952,29.233 22.782,33.122 15.005,33.122 C9.332,33.119 3.935,31.335 2.84217094e-14,27.813" id="Fill-12-Copy"></path>
                <path d="M53,0 L61.875,0 L61.875,11.986 L73.267,11.986 L73.267,0 L82.142,0 L82.142,32.024 L73.267,32.024 L73.267,19.854 L61.875,19.854 L61.875,32.024 L53,32.024 L53,0 L53,0 Z" id="Fill-14-Copy"></path>
                <path d="M128.408,19.625 L124.84,10.521 L121.227,19.625 L128.408,19.625 L128.408,19.625 Z M120.631,0 L129.188,0 L142.821,32.251 L133.304,32.251 L130.971,26.533 L118.618,26.533 L116.331,32.251 L107,32.251 L120.631,0 L120.631,0 Z" id="Fill-16-Copy"></path>
                <path d="M180.49,24.155 C185.796,24.155 189.319,21.227 189.319,16.058 L189.319,15.967 C189.319,10.842 185.796,7.869 180.49,7.869 L176.876,7.869 L176.876,24.155 L180.49,24.155 L180.49,24.155 Z M168,0 L180.353,0 C191.791,0 198.423,6.588 198.423,15.828 L198.423,15.92 C198.423,25.161 191.697,32.024 180.17,32.024 L168,32.024 L168,0 L168,0 Z" id="Fill-18-Copy"></path>
                <path d="M224,0 L249.757,0 L249.757,7.549 L232.783,7.549 L232.783,12.398 L248.156,12.398 L248.156,19.398 L232.783,19.398 L232.783,24.476 L249.984,24.476 L249.984,32.024 L224,32.024 L224,0 L224,0 Z" id="Fill-20-Copy"></path>
            </g>
        </g>
    </g>
</svg>