<?xml version="1.0" encoding="UTF-8" standalone="no"?>
<svg width="100px" height="100px" viewBox="0 0 100 100" version="1.1" xmlns="http://www.w3.org/2000/svg" xmlns:xlink="http://www.w3.org/1999/xlink" xmlns:sketch="http://www.bohemiancoding.com/sketch/ns">
    <!-- Generator: Sketch 3.5.1 (25234) - http://www.bohemiancoding.com/sketch -->
    <title>Oval</title>
    <desc>Created with Sketch.</desc>
    <defs></defs>
    <g id="Page-1" stroke="none" stroke-width="1" fill="none" fill-rule="evenodd" sketch:type="MSPage">
        <path d="M50,100 C77.6142376,100 100,77.6142376 100,50 C100,22.3857625 77.6142376,0 50,0 C22.3857625,0 0,22.3857625 0,50 C0,77.6142376 22.3857625,100 50,100 L50,100 L50,100 Z M70.2878908,25.9097656 C63.0316408,25.6753906 57.9,29.5359375 55.035742,37.3810547 C54.8855468,37.7931641 54.9771484,38.2503906 55.2751952,38.5736328 C55.5714844,38.8949219 56.0166016,39.0230469 56.4367188,38.9076172 C57.2609376,38.6810547 58.0775392,38.5666016 58.8654296,38.5666016 C59.9226564,38.5666016 61.3304688,38.7609375 62.0310548,39.6867188 C62.568164,40.3978516 62.6414064,41.4634764 62.2478516,42.854492 C61.9162108,44.0285156 60.2070312,47.1703124 58.0916016,50.4945312 C55.5144532,54.5451172 54.0912108,56.3609376 53.6804688,56.3609376 C52.3212892,56.3609376 47.4078124,34.5744141 47.2724608,34.0966797 C45.863672,29.1033203 45.1560548,26.5970703 40.5734376,26.5970703 C37.0804688,26.5970703 29.290625,32.9755859 22.8943359,38.5324219 C22.5007812,38.8734375 22.1697266,39.1613281 21.9134766,39.38125 C21.2953125,39.9099609 21.2019531,40.8273436 21.7009766,41.4714844 L22.8929688,43.0064452 C23.3953125,43.6535156 24.3107422,43.7888672 24.9789062,43.314258 C27.1134766,41.7951172 29.06875,40.4048828 30.5445312,40.3281248 C32.1478516,40.2496092 33.5394531,42.7554688 35.1984375,48.716992 C38.3576172,60.2968752 43.1583984,74.0998048 48.0845704,74.0998048 C53.232422,74.0998048 59.374414,69.735742 67.3132812,59.4041016 C74.4984376,50.0535156 78.3462892,42.6375 78.5927736,37.2414062 C78.7785156,33.1673828 77.9902344,30.1494141 76.2501952,28.2738281 C74.864258,26.7804688 72.858008,25.9853516 70.2878908,25.9097656 L70.2878908,25.9097656 L70.2878908,25.9097656 Z" id="Oval" fill="#FFFFFF" sketch:type="MSShapeGroup"></path>
    </g>
</svg>